<svg xmlns="http://www.w3.org/2000/svg" width="50.977" height="46.87" viewBox="0 0 50.977 46.87">
  <g id="Group_9894" data-name="Group 9894" transform="translate(0 -6.223)">
    <path id="Path_11521" data-name="Path 11521" d="M125.87,126.435a23.55,23.55,0,0,1-.334,3.963q-.137.8-.328,1.59c-.028.117-.057.233-.087.348a23.484,23.484,0,0,1-15.006,16.246q-.328.115-.662.218a23.534,23.534,0,0,1-15.536-.527q-.423-.165-.837-.346A23.44,23.44,0,0,1,79,126.435c0-.2,0-.4.008-.6a23.441,23.441,0,0,1,20.12-22.606,23.689,23.689,0,0,1,3.307-.232q1.158,0,2.289.11A23.438,23.438,0,0,1,125.87,126.435Z" transform="translate(-77.168 -96.777)" fill="#b6e0ff" opacity="0.33"/>
    <g id="Group_5218" data-name="Group 5218" transform="translate(42.941 8.16)">
      <g id="Group_5217" data-name="Group 5217" transform="translate(0 0)" opacity="0.49">
        <g id="Group_5216" data-name="Group 5216" opacity="0.49">
          <rect id="Rectangle_1862" data-name="Rectangle 1862" width="1.64" height="1.64" fill="#fff"/>
          <rect id="Rectangle_1863" data-name="Rectangle 1863" width="3.936" height="1.476" transform="translate(4.1 0.164)" fill="#fff"/>
          <rect id="Rectangle_1864" data-name="Rectangle 1864" width="3.936" height="1.476" transform="translate(4.1 5.904)" fill="#fff"/>
          <rect id="Rectangle_1865" data-name="Rectangle 1865" width="3.936" height="1.476" transform="translate(4.1 10.988)" fill="#fff"/>
          <rect id="Rectangle_1866" data-name="Rectangle 1866" width="3.936" height="1.476" transform="translate(4.1 17.057)" fill="#fff"/>
          <rect id="Rectangle_1867" data-name="Rectangle 1867" width="1.64" height="1.64" transform="translate(0 4.428)" fill="#fff"/>
          <rect id="Rectangle_1868" data-name="Rectangle 1868" width="1.64" height="1.64" transform="translate(0 8.692)" fill="#fff"/>
          <rect id="Rectangle_1869" data-name="Rectangle 1869" width="1.64" height="1.64" transform="translate(0 13.941)" fill="#fff"/>
        </g>
      </g>
    </g>
    <g id="Group_5220" data-name="Group 5220" transform="translate(1.832 0)">
      <g id="Group_5219" data-name="Group 5219" opacity="0.75">
        <path id="Path_11525" data-name="Path 11525" d="M428.328,309.93q-.137.8-.328,1.59v-1.59Z" transform="translate(-381.792 -276.309)" fill="#a0d3e0" opacity="0.49"/>
      </g>
    </g>
    <g id="Group_5221" data-name="Group 5221" transform="translate(0 6.439)" opacity="0.49">
      <rect id="Rectangle_1870" data-name="Rectangle 1870" width="1.64" height="1.64" transform="translate(6.396 0)" fill="#fff"/>
      <rect id="Rectangle_1871" data-name="Rectangle 1871" width="3.936" height="1.476" transform="translate(0 0.164)" fill="#fff"/>
      <rect id="Rectangle_1872" data-name="Rectangle 1872" width="3.936" height="1.476" transform="translate(0 5.904)" fill="#fff"/>
      <rect id="Rectangle_1873" data-name="Rectangle 1873" width="3.936" height="1.476" transform="translate(0 10.988)" fill="#fff"/>
      <rect id="Rectangle_1874" data-name="Rectangle 1874" width="3.936" height="1.476" transform="translate(0 17.057)" fill="#fff"/>
      <rect id="Rectangle_1875" data-name="Rectangle 1875" width="1.64" height="1.64" transform="translate(6.396 4.428)" fill="#fff"/>
      <rect id="Rectangle_1876" data-name="Rectangle 1876" width="1.64" height="1.64" transform="translate(6.396 8.692)" fill="#fff"/>
      <rect id="Rectangle_1877" data-name="Rectangle 1877" width="1.64" height="1.64" transform="translate(6.396 13.941)" fill="#fff"/>
    </g>
    <g id="Group_5226" data-name="Group 5226" transform="translate(16.915 18.291)">
      <g id="Group_5223" data-name="Group 5223" transform="translate(0 0.001)">
        <g id="Group_5222" data-name="Group 5222">
          <path id="Path_11526" data-name="Path 11526" d="M202.04,185.693a10.553,10.553,0,0,0-6.882,2.056,7.163,7.163,0,0,0-1.921,7.443c1.132,3.984,8.945,13.721,8.945,13.721l4.391-11.411a8.5,8.5,0,0,0,1.082-4.15c0-3.542-.517-4.7-4.007-5.4C203.147,187.854,202.535,185.693,202.04,185.693Zm-1.85,10.033a2.837,2.837,0,1,1,2.837-2.837A2.837,2.837,0,0,1,200.19,195.726Z" transform="translate(-192.92 -185.693)" fill="#23607a"/>
        </g>
      </g>
      <g id="Group_5225" data-name="Group 5225" transform="translate(1.895 0)">
        <g id="Group_5224" data-name="Group 5224">
          <path id="Path_11527" data-name="Path 11527" d="M214.554,185.685a7.465,7.465,0,0,0-7.323,7.464c0,.074,0,.153,0,.236a8.379,8.379,0,0,0,1.046,3.84L214.7,208.9l6.383-11.411a8.5,8.5,0,0,0,1.082-4.15h0A7.625,7.625,0,0,0,214.554,185.685Zm.143,10.033a2.837,2.837,0,1,1,2.837-2.837A2.837,2.837,0,0,1,214.7,195.718Z" transform="translate(-207.231 -185.683)" fill="#17005d"/>
        </g>
      </g>
    </g>
  </g>
</svg>
