<svg id="Group_9825" data-name="Group 9825" xmlns="http://www.w3.org/2000/svg" width="33.333" height="33.333" viewBox="0 0 33.333 33.333">
  <g id="Rectangle_9296" data-name="Rectangle 9296" transform="translate(0)" fill="#fff" stroke="#707070" stroke-width="1" opacity="0">
    <rect width="33.333" height="33.333" stroke="none"/>
    <rect x="0.5" y="0.5" width="32.333" height="32.333" fill="none"/>
  </g>
  <g id="noun_Location_2144027" transform="translate(8.241 6.178)">
    <g id="Group_9026" data-name="Group 9026" transform="translate(0 0)">
      <ellipse id="Ellipse_4451" data-name="Ellipse 4451" cx="2.592" cy="2.592" rx="2.592" ry="2.592" transform="translate(6.606 5.91)" fill="#50646e"/>
      <path id="Path_12678" data-name="Path 12678" d="M123.511,85.335A9.2,9.2,0,0,0,107.89,80.1a9.218,9.218,0,0,0,0,13.016l6.075,6.081h.86l6.075-6.081a9.2,9.2,0,0,0,2.611-7.777ZM114.4,89.715A3.812,3.812,0,1,1,118.21,85.9,3.814,3.814,0,0,1,114.4,89.715Z" transform="translate(-105.2 -77.4)" fill="#50646e"/>
    </g>
  </g>
</svg>
