<svg id="Group_28915" data-name="Group 28915" xmlns="http://www.w3.org/2000/svg" width="33.333" height="33.333" viewBox="0 0 33.333 33.333">
  <g id="Rectangle_9296" data-name="Rectangle 9296" transform="translate(0)" fill="#fff" stroke="#707070" stroke-width="1" opacity="0">
    <rect width="33.333" height="33.333" stroke="none"/>
    <rect x="0.5" y="0.5" width="32.333" height="32.333" fill="none"/>
  </g>
  <g id="lock" transform="translate(-82.454 5)">
    <g id="Group_28853" data-name="Group 28853" transform="translate(98.621 15.714)">
      <g id="Group_28852" data-name="Group 28852" transform="translate(0)">
        <path id="Path_41021" data-name="Path 41021" d="M243.523,332.068a.62.62,0,1,0,.62.62A.62.62,0,0,0,243.523,332.068Z" transform="translate(-242.903 -332.068)" fill="#50646e"/>
      </g>
    </g>
    <g id="Group_28855" data-name="Group 28855" transform="translate(91.454)">
      <g id="Group_28854" data-name="Group 28854" transform="translate(0)">
        <path id="Path_41022" data-name="Path 41022" d="M105.382,10.384h-.229V5.913a5.913,5.913,0,0,0-11.825,0v4.472H93.1a1.647,1.647,0,0,0-1.645,1.645v8.943a3.26,3.26,0,0,0,3.256,3.256h9.06a3.26,3.26,0,0,0,3.256-3.256V12.03A1.647,1.647,0,0,0,105.382,10.384Zm-5.433,7.86v1.178a.709.709,0,1,1-1.418,0V18.244a2.037,2.037,0,1,1,1.418,0Zm1.674-7.86H96.858v-4.5a2.383,2.383,0,0,1,4.765,0v4.5Z" transform="translate(-91.454)" fill="#50646e"/>
      </g>
    </g>
  </g>
</svg>
