<svg xmlns="http://www.w3.org/2000/svg" xmlns:xlink="http://www.w3.org/1999/xlink" width="68" height="68" viewBox="0 0 68 68">
  <defs>
    <filter id="Path_43987" x="0" y="0" width="68" height="68" filterUnits="userSpaceOnUse">
      <feOffset dy="1" input="SourceAlpha"/>
      <feGaussianBlur stdDeviation="3" result="blur"/>
      <feFlood flood-opacity="0.051"/>
      <feComposite operator="in" in2="blur"/>
      <feComposite in="SourceGraphic"/>
    </filter>
  </defs>
  <g id="Group_28907" data-name="Group 28907" transform="translate(-219 -220)">
    <g transform="matrix(1, 0, 0, 1, 219, 220)" filter="url(#Path_43987)">
      <g id="Path_43987-2" data-name="Path 43987" transform="translate(9 8)" fill="#17005d">
        <path d="M 25 49.5 C 21.69230079650879 49.5 18.48381042480469 48.85229110717773 15.46364974975586 47.57487106323242 C 12.54625988006592 46.3409309387207 9.926079750061035 44.57432174682617 7.675879955291748 42.32411956787109 C 5.425680160522461 40.07392120361328 3.659070014953613 37.45373916625977 2.425129890441895 34.53635025024414 C 1.147709965705872 31.51618957519531 0.5 28.30769920349121 0.5 25 C 0.5 21.69230079650879 1.147709965705872 18.48381042480469 2.425129890441895 15.46364974975586 C 3.659070014953613 12.54625988006592 5.425680160522461 9.926079750061035 7.675879955291748 7.675879955291748 C 9.926079750061035 5.425680160522461 12.54625988006592 3.659070014953613 15.46364974975586 2.425129890441895 C 18.48381042480469 1.147709965705872 21.69230079650879 0.5 25 0.5 C 28.30769920349121 0.5 31.51618957519531 1.147709965705872 34.53635025024414 2.425129890441895 C 37.45373916625977 3.659070014953613 40.07392120361328 5.425680160522461 42.32411956787109 7.675879955291748 C 44.57432174682617 9.926079750061035 46.3409309387207 12.54625988006592 47.57487106323242 15.46364974975586 C 48.85229110717773 18.48381042480469 49.5 21.69230079650879 49.5 25 C 49.5 28.30769920349121 48.85229110717773 31.51618957519531 47.57487106323242 34.53635025024414 C 46.3409309387207 37.45373916625977 44.57432174682617 40.07392120361328 42.32411956787109 42.32411956787109 C 40.07392120361328 44.57432174682617 37.45373916625977 46.3409309387207 34.53635025024414 47.57487106323242 C 31.51618957519531 48.85229110717773 28.30769920349121 49.5 25 49.5 Z" stroke="none"/>
        <path d="M 25 1 C 21.75958061218262 1 18.61661911010742 1.634418487548828 15.65842056274414 2.885631561279297 C 12.80064010620117 4.094371795654297 10.23387908935547 5.825000762939453 8.029441833496094 8.029441833496094 C 5.825000762939453 10.23387908935547 4.094371795654297 12.80064010620117 2.885631561279297 15.65842056274414 C 1.634418487548828 18.61661911010742 1 21.75958061218262 1 25 C 1 28.24041938781738 1.634418487548828 31.38338088989258 2.885631561279297 34.34157943725586 C 4.094371795654297 37.19935989379883 5.825000762939453 39.76612091064453 8.029441833496094 41.97055816650391 C 10.23387908935547 44.17499923706055 12.80064010620117 45.90563201904297 15.65842056274414 47.1143684387207 C 18.61661911010742 48.36558151245117 21.75958061218262 49 25 49 C 28.24041938781738 49 31.38338088989258 48.36558151245117 34.34157943725586 47.1143684387207 C 37.19935989379883 45.90563201904297 39.76612091064453 44.17499923706055 41.97055816650391 41.97055816650391 C 44.17499923706055 39.76612091064453 45.90563201904297 37.19935989379883 47.1143684387207 34.34157943725586 C 48.36558151245117 31.38338088989258 49 28.24041938781738 49 25 C 49 21.75958061218262 48.36558151245117 18.61661911010742 47.1143684387207 15.65842056274414 C 45.90563201904297 12.80064010620117 44.17499923706055 10.23387908935547 41.97055816650391 8.029441833496094 C 39.76612091064453 5.825000762939453 37.19935989379883 4.094371795654297 34.34157943725586 2.885631561279297 C 31.38338088989258 1.634418487548828 28.24041938781738 1 25 1 M 25 0 C 38.80712127685547 0 50 11.19287872314453 50 25 C 50 38.80712127685547 38.80712127685547 50 25 50 C 11.19287872314453 50 0 38.80712127685547 0 25 C 0 11.19287872314453 11.19287872314453 0 25 0 Z" stroke="none" fill="#fff"/>
      </g>
    </g>
    <g id="envelope" transform="translate(243 190.924)">
      <g id="Group_9199" data-name="Group 9199" transform="translate(0 54.82)">
        <path id="Path_12805" data-name="Path 12805" d="M1.964,59.775q.388.274,2.341,1.627T7.3,63.486q.114.08.485.348t.617.434q.246.165.594.371a3.446,3.446,0,0,0,.657.308,1.809,1.809,0,0,0,.571.1h.023a1.811,1.811,0,0,0,.571-.1,3.449,3.449,0,0,0,.657-.308q.348-.206.594-.371t.617-.434q.371-.269.485-.348l5.344-3.711a5.424,5.424,0,0,0,1.393-1.4,3.015,3.015,0,0,0,.56-1.724,1.842,1.842,0,0,0-1.827-1.827H1.827a1.631,1.631,0,0,0-1.353.594A2.3,2.3,0,0,0,0,56.9a2.667,2.667,0,0,0,.628,1.559A5.667,5.667,0,0,0,1.964,59.775Z" transform="translate(0 -54.82)" fill="#fff"/>
        <path id="Path_12806" data-name="Path 12806" d="M19.319,185.43q-3.745,2.535-5.686,3.939-.651.479-1.056.748a6.517,6.517,0,0,1-1.079.548,3.285,3.285,0,0,1-1.256.28h-.023a3.286,3.286,0,0,1-1.256-.28,6.52,6.52,0,0,1-1.079-.548q-.405-.268-1.056-.748-1.542-1.13-5.675-3.939A6.048,6.048,0,0,1,0,184.437V193.5a1.759,1.759,0,0,0,.537,1.29,1.759,1.759,0,0,0,1.29.537H18.634a1.832,1.832,0,0,0,1.827-1.827v-9.066A6.3,6.3,0,0,1,19.319,185.43Z" transform="translate(0 -179.253)" fill="#fff"/>
      </g>
    </g>
  </g>
</svg>
