<svg xmlns="http://www.w3.org/2000/svg" width="21.079" height="21.079" viewBox="0 0 21.079 21.079">
  <path id="Path_40988" data-name="Path 40988" d="M13.04,2.5a10.54,10.54,0,1,0,10.54,10.54A10.549,10.549,0,0,0,13.04,2.5Zm3.927,12.625a1.294,1.294,0,1,1-1.819,1.842L13.04,14.881l-2.086,2.086a1.294,1.294,0,0,1-1.819-1.842L11.22,13.04,9.134,10.954a1.3,1.3,0,0,1,1.842-1.842L13.062,11.2l2.086-2.086a1.3,1.3,0,0,1,1.842,1.842L14.881,13.04Z" transform="translate(-2.5 -2.5)" fill="#d4d4d4"/>
</svg>
