<svg xmlns="http://www.w3.org/2000/svg" xmlns:xlink="http://www.w3.org/1999/xlink" width="63" height="63" viewBox="0 0 63 63">
  <defs>
    <filter id="Path_44033" x="0" y="0" width="63" height="63" filterUnits="userSpaceOnUse">
      <feOffset dy="3" input="SourceAlpha"/>
      <feGaussianBlur stdDeviation="3" result="blur"/>
      <feFlood flood-opacity="0.161"/>
      <feComposite operator="in" in2="blur"/>
      <feComposite in="SourceGraphic"/>
    </filter>
  </defs>
  <g id="Group_38119" data-name="Group 38119" transform="translate(-72 -310)">
    <g transform="matrix(1, 0, 0, 1, 72, 310)" filter="url(#Path_44033)">
      <g id="Path_44033-2" data-name="Path 44033" transform="translate(9 6)" fill="#fff">
        <path d="M 22.5 44.5 C 19.52980041503906 44.5 16.64871025085449 43.91838836669922 13.93675994873047 42.77133941650391 C 11.31707000732422 41.66329956054688 8.964249610900879 40.07695007324219 6.943649768829346 38.05635070800781 C 4.923049926757813 36.03575134277344 3.336699962615967 33.68292999267578 2.228660106658936 31.06324005126953 C 1.081609964370728 28.35128974914551 0.5 25.47019958496094 0.5 22.5 C 0.5 19.52980041503906 1.081609964370728 16.64871025085449 2.228660106658936 13.93675994873047 C 3.336699962615967 11.31707000732422 4.923049926757813 8.964249610900879 6.943649768829346 6.943649768829346 C 8.964249610900879 4.923049926757813 11.31707000732422 3.336699962615967 13.93675994873047 2.228660106658936 C 16.64871025085449 1.081609964370728 19.52980041503906 0.5 22.5 0.5 C 25.47019958496094 0.5 28.35128974914551 1.081609964370728 31.06324005126953 2.228660106658936 C 33.68292999267578 3.336699962615967 36.03575134277344 4.923049926757813 38.05635070800781 6.943649768829346 C 40.07695007324219 8.964249610900879 41.66329956054688 11.31707000732422 42.77133941650391 13.93675994873047 C 43.91838836669922 16.64871025085449 44.5 19.52980041503906 44.5 22.5 C 44.5 25.47019958496094 43.91838836669922 28.35128974914551 42.77133941650391 31.06324005126953 C 41.66329956054688 33.68292999267578 40.07695007324219 36.03575134277344 38.05635070800781 38.05635070800781 C 36.03575134277344 40.07695007324219 33.68292999267578 41.66329956054688 31.06324005126953 42.77133941650391 C 28.35128974914551 43.91838836669922 25.47019958496094 44.5 22.5 44.5 Z" stroke="none"/>
        <path d="M 22.5 1 C 19.59708023071289 1 16.78152084350586 1.568321228027344 14.13154029846191 2.689170837402344 C 11.57144927978516 3.771991729736328 9.272048950195313 5.322360992431641 7.297199249267578 7.297199249267578 C 5.322360992431641 9.272048950195313 3.771991729736328 11.57144927978516 2.689170837402344 14.13154029846191 C 1.568321228027344 16.78152084350586 1 19.59708023071289 1 22.5 C 1 25.40291976928711 1.568321228027344 28.21847915649414 2.689170837402344 30.86845970153809 C 3.771991729736328 33.42855072021484 5.322360992431641 35.72795104980469 7.297199249267578 37.70280075073242 C 9.272048950195313 39.67763900756836 11.57144927978516 41.22800827026367 14.13154029846191 42.31082916259766 C 16.78152084350586 43.43167877197266 19.59708023071289 44 22.5 44 C 25.40291976928711 44 28.21847915649414 43.43167877197266 30.86845970153809 42.31082916259766 C 33.42855072021484 41.22800827026367 35.72795104980469 39.67763900756836 37.70280075073242 37.70280075073242 C 39.67763900756836 35.72795104980469 41.22800827026367 33.42855072021484 42.31082916259766 30.86845970153809 C 43.43167877197266 28.21847915649414 44 25.40291976928711 44 22.5 C 44 19.59708023071289 43.43167877197266 16.78152084350586 42.31082916259766 14.13154029846191 C 41.22800827026367 11.57144927978516 39.67763900756836 9.272048950195313 37.70280075073242 7.297199249267578 C 35.72795104980469 5.322360992431641 33.42855072021484 3.771991729736328 30.86845970153809 2.689170837402344 C 28.21847915649414 1.568321228027344 25.40291976928711 1 22.5 1 M 22.5 0 C 34.92641067504883 0 45 10.07358932495117 45 22.5 C 45 34.92641067504883 34.92641067504883 45 22.5 45 C 10.07358932495117 45 0 34.92641067504883 0 22.5 C 0 10.07358932495117 10.07358932495117 0 22.5 0 Z" stroke="none" fill="#17005d"/>
      </g>
    </g>
    <g id="envelope_1_" data-name="envelope (1)" transform="translate(91 265)">
      <g id="Group_38117" data-name="Group 38117" transform="translate(0 64)">
        <g id="Group_38116" data-name="Group 38116">
          <path id="Path_44029" data-name="Path 44029" d="M7.094,65.487c3.353,2.84,9.238,7.837,10.967,9.394a1.022,1.022,0,0,0,1.478,0c1.731-1.559,7.615-6.556,10.969-9.4a.509.509,0,0,0,.072-.7,2.022,2.022,0,0,0-1.6-.784H8.62a2.021,2.021,0,0,0-1.6.784A.509.509,0,0,0,7.094,65.487Z" transform="translate(-6.584 -64)" fill="#17005d"/>
          <path id="Path_44030" data-name="Path 44030" d="M24.139,126.459a.507.507,0,0,0-.543.074c-3.719,3.153-8.465,7.194-9.959,8.539a2.061,2.061,0,0,1-2.842,0c-1.592-1.434-6.922-5.965-9.958-8.538a.509.509,0,0,0-.838.388v12.8a2.038,2.038,0,0,0,2.036,2.036H22.4a2.038,2.038,0,0,0,2.036-2.036v-12.8A.509.509,0,0,0,24.139,126.459Z" transform="translate(0 -123.433)" fill="#17005d"/>
        </g>
      </g>
    </g>
  </g>
</svg>
