<svg xmlns="http://www.w3.org/2000/svg" width="149.02" height="127.661" viewBox="0 0 149.02 127.661">
  <g id="Group_9850" data-name="Group 9850" transform="translate(3306.676 -13893.541)">
    <g id="Background_Complete" data-name="Background Complete" transform="translate(-3215.713 13893.639)">
      <g id="Group_9872" data-name="Group 9872" transform="translate(6.123 35.002)">
        <g id="Group_9869" data-name="Group 9869" transform="translate(0 0.081)">
          <g id="Group_9860" data-name="Group 9860">
            <g id="Group_9853" data-name="Group 9853">
              <g id="Group_9850-2" data-name="Group 9850" transform="translate(3.713 0.127)">
                <path id="Path_16239" data-name="Path 16239" d="M341.123,175.15l-15.016,7.124,27.367,6.353-10.4-13.03A1.607,1.607,0,0,0,341.123,175.15Z" transform="translate(-326.107 -174.992)" fill="#d0caff"/>
              </g>
              <g id="Group_9851" data-name="Group 9851" transform="translate(0 7.409)">
                <rect id="Rectangle_9983" data-name="Rectangle 9983" width="28.192" height="16.42" transform="translate(3.713 0) rotate(13.07)" fill="#d0caff"/>
              </g>
              <g id="Group_9852" data-name="Group 9852" transform="translate(5.162)">
                <path id="Path_16240" data-name="Path 16240" d="M354.168,188.39l-12.844,4.319-11.3-9.385,1.993-7.514a1.533,1.533,0,0,1,1.834-1.122l20.8,4.829a1.533,1.533,0,0,1,1.147,1.84Z" transform="translate(-330.024 -174.648)" fill="#fff"/>
              </g>
            </g>
            <g id="Group_9854" data-name="Group 9854" transform="translate(0.244 16.718)">
              <path id="Path_16241" data-name="Path 16241" d="M332.131,219.926l-15.372,5.363h0a1.255,1.255,0,0,0,.938,1.506l25.048,5.812a1.254,1.254,0,0,0,1.505-.938l.022-.094-10.752-11.312A1.319,1.319,0,0,0,332.131,219.926Z" transform="translate(-316.727 -219.853)" fill="#d0caff"/>
            </g>
            <g id="Group_9855" data-name="Group 9855" transform="translate(9.009 3.674)">
              <rect id="Rectangle_9984" data-name="Rectangle 9984" width="8.355" height="0.853" transform="translate(0.193 0) rotate(13.063)" fill="#e0e0e0"/>
            </g>
            <g id="Group_9856" data-name="Group 9856" transform="translate(8.495 5.779)">
              <rect id="Rectangle_9985" data-name="Rectangle 9985" width="18.538" height="0.964" transform="matrix(0.974, 0.226, -0.226, 0.974, 0.218, 0)" fill="#f5f5f5"/>
            </g>
            <g id="Group_9857" data-name="Group 9857" transform="translate(7.963 8.074)">
              <rect id="Rectangle_9986" data-name="Rectangle 9986" width="18.538" height="0.964" transform="matrix(0.974, 0.226, -0.226, 0.974, 0.218, 0)" fill="#f5f5f5"/>
            </g>
            <g id="Group_9858" data-name="Group 9858" transform="translate(7.649 10.498)">
              <path id="Path_16242" data-name="Path 16242" d="M354.3,207.669l-.758.246L338.3,204.569l-1.548-1.308.031-.224,18,4.176-.072.311Z" transform="translate(-336.749 -203.036)" fill="#f5f5f5"/>
            </g>
            <g id="Group_9859" data-name="Group 9859" transform="translate(11.506 13.927)">
              <path id="Path_16243" data-name="Path 16243" d="M355.645,215.261l-6.83-1.585-1.636-1.369,10.207,2.368Z" transform="translate(-347.179 -212.308)" fill="#f5f5f5"/>
            </g>
          </g>
          <g id="Group_9862" data-name="Group 9862" transform="translate(0.168 16.985)">
            <g id="Group_9861" data-name="Group 9861">
              <path id="Path_16244" data-name="Path 16244" d="M331.44,220.578a3.782,3.782,0,0,1-.574.235l-1.589.574c-1.345.477-3.206,1.122-5.267,1.825s-3.929,1.328-5.285,1.771l-1.608.516a3.805,3.805,0,0,1-.6.164,3.843,3.843,0,0,1,.575-.235l1.589-.574c1.345-.476,3.206-1.122,5.266-1.824s3.927-1.327,5.283-1.771l1.609-.516A3.814,3.814,0,0,1,331.44,220.578Z" transform="translate(-316.52 -220.577)" fill="#ebebeb"/>
            </g>
          </g>
          <g id="Group_9864" data-name="Group 9864" transform="translate(17.555 17.692)">
            <g id="Group_9863" data-name="Group 9863">
              <path id="Path_16245" data-name="Path 16245" d="M373.772,233.235c-.038.037-2.361-2.339-5.187-5.306s-5.086-5.4-5.048-5.44,2.361,2.339,5.187,5.307S373.81,233.2,373.772,233.235Z" transform="translate(-363.537 -222.489)" fill="#ebebeb"/>
            </g>
          </g>
          <g id="Group_9866" data-name="Group 9866" transform="translate(17.666 13.53)">
            <g id="Group_9865" data-name="Group 9865">
              <path id="Path_16246" data-name="Path 16246" d="M376.09,211.236a2.584,2.584,0,0,1-.465.21c-.3.124-.746.3-1.294.5-1.1.414-2.619.967-4.311,1.547s-3.235,1.076-4.355,1.419c-.561.172-1.015.307-1.331.395a2.623,2.623,0,0,1-.5.118,2.575,2.575,0,0,1,.474-.19l1.312-.453,4.335-1.472,4.327-1.492,1.315-.445A2.569,2.569,0,0,1,376.09,211.236Z" transform="translate(-363.837 -211.234)" fill="#ebebeb"/>
            </g>
          </g>
          <g id="Group_9868" data-name="Group 9868" transform="translate(3.713 7.408)">
            <g id="Group_9867" data-name="Group 9867">
              <path id="Path_16247" data-name="Path 16247" d="M337.481,204.259a3.422,3.422,0,0,1-.462-.359l-1.223-1.02-4.062-3.335c-1.59-1.3-3.018-2.492-4.03-3.381-.506-.444-.911-.809-1.184-1.068a3.38,3.38,0,0,1-.413-.415,3.418,3.418,0,0,1,.462.359l1.223,1.02,4.063,3.335c1.59,1.3,3.017,2.491,4.029,3.38.506.444.911.809,1.184,1.068A3.381,3.381,0,0,1,337.481,204.259Z" transform="translate(-326.106 -194.681)" fill="#ebebeb"/>
            </g>
          </g>
        </g>
        <g id="Group_9871" data-name="Group 9871" transform="translate(5.161)">
          <g id="Group_9870" data-name="Group 9870">
            <path id="Path_16248" data-name="Path 16248" d="M354.167,188.251a.42.42,0,0,1,.014-.105l.061-.306.254-1.172.967-4.3.158-.7a5.442,5.442,0,0,0,.14-.719,1.457,1.457,0,0,0-.645-1.284,1.946,1.946,0,0,0-.752-.271l-.839-.193-1.753-.4-7.8-1.8-7.8-1.818-1.751-.41a7.547,7.547,0,0,0-.829-.173,1.435,1.435,0,0,0-.764.159,1.451,1.451,0,0,0-.558.51,2.312,2.312,0,0,0-.259.7l-.381,1.41-1.16,4.253-.325,1.154-.09.3a.432.432,0,0,1-.037.1.438.438,0,0,1,.018-.105l.071-.3.29-1.163,1.1-4.268.368-1.413a2.451,2.451,0,0,1,.273-.748,1.613,1.613,0,0,1,1.463-.752,7.422,7.422,0,0,1,.857.173l1.753.4,7.8,1.8,7.8,1.818,1.75.41.839.2a2.106,2.106,0,0,1,.8.3,1.61,1.61,0,0,1,.7,1.425,5.478,5.478,0,0,1-.149.743l-.165.695-1.027,4.287-.288,1.163-.08.3A.427.427,0,0,1,354.167,188.251Z" transform="translate(-330.022 -174.428)" fill="#d0caff"/>
          </g>
        </g>
      </g>
      <g id="Group_9880" data-name="Group 9880" transform="translate(0 0)">
        <g id="Group_9873" data-name="Group 9873" transform="translate(0 0)">
          <path id="Path_16249" data-name="Path 16249" d="M299.509,84.544l25.61-4.762,3.826,17.307-26.6,4.492Z" transform="translate(-299.509 -79.782)" fill="#d0caff"/>
        </g>
        <g id="Group_9875" data-name="Group 9875">
          <g id="Group_9874" data-name="Group 9874">
            <path id="Path_16250" data-name="Path 16250" d="M325.119,79.782a.3.3,0,0,1-.044.072l-.145.2-.571.762-2.13,2.787-7.125,9.2-.049.064-.072-.038-.5-.262-10.61-5.642-3.2-1.729-.867-.479-.223-.129a.044.044,0,1,1,.009-.017l.232.112.883.447,3.234,1.675L314.577,92.4l.5.262-.121.026,7.171-9.168,2.178-2.75.6-.74.159-.189C325.1,79.8,325.116,79.78,325.119,79.782Z" transform="translate(-299.509 -79.782)" fill="#fff" stroke="#fff" stroke-width="0.2"/>
          </g>
        </g>
        <g id="Group_9877" data-name="Group 9877" transform="translate(2.839 10.238)">
          <g id="Group_9876" data-name="Group 9876">
            <path id="Path_16251" data-name="Path 16251" d="M307.185,119.027c-.045-.029,1.6-2.64,3.678-5.832s3.8-5.757,3.84-5.728-1.6,2.64-3.679,5.833S307.23,119.056,307.185,119.027Z" transform="translate(-307.185 -107.466)" fill="#fff"/>
          </g>
        </g>
        <g id="Group_9879" data-name="Group 9879" transform="translate(18.855 8.963)">
          <g id="Group_9878" data-name="Group 9878">
            <path id="Path_16252" data-name="Path 16252" d="M361.074,112.362c-.033.042-2.428-1.792-5.35-4.1s-5.264-4.205-5.231-4.247,2.428,1.792,5.35,4.1S361.107,112.321,361.074,112.362Z" transform="translate(-350.493 -104.019)" fill="#fff"/>
          </g>
        </g>
      </g>
      <g id="Group_9888" data-name="Group 9888" transform="translate(38.135 16.73)">
        <g id="Group_9881" data-name="Group 9881" transform="translate(0 0)">
          <path id="Path_16253" data-name="Path 16253" d="M405.567,125.021l16.983,4.115-2.409,11.644-17.513-4.551Z" transform="translate(-402.629 -125.021)" fill="#d0caff"/>
        </g>
        <g id="Group_9883" data-name="Group 9883" transform="translate(2.938)">
          <g id="Group_9882" data-name="Group 9882">
            <path id="Path_16254" data-name="Path 16254" d="M427.558,129.136a1.032,1.032,0,0,1-.188.121l-.555.315-2.065,1.13-6.883,3.686-.071.038-.05-.064-.232-.3-4.939-6.371L411.1,125.75l-.394-.535a1.035,1.035,0,0,1-.127-.195,1.063,1.063,0,0,1,.158.171l.423.512,1.528,1.907,4.983,6.337.232.3-.121-.026,6.91-3.635,2.093-1.077.572-.284A.967.967,0,0,1,427.558,129.136Z" transform="translate(-410.574 -125.02)" fill="#fff"/>
          </g>
        </g>
        <g id="Group_9885" data-name="Group 9885" transform="translate(0 6.194)">
          <g id="Group_9884" data-name="Group 9884">
            <path id="Path_16255" data-name="Path 16255" d="M402.628,146.783c-.029-.045,1.689-1.2,3.835-2.587s3.911-2.47,3.94-2.426-1.688,1.2-3.836,2.587S402.657,146.828,402.628,146.783Z" transform="translate(-402.628 -141.769)" fill="#fff"/>
          </g>
        </g>
        <g id="Group_9887" data-name="Group 9887" transform="translate(13.325 7.748)">
          <g id="Group_9886" data-name="Group 9886">
            <path id="Path_16256" data-name="Path 16256" d="M442.848,153.982c-.047.024-1.023-1.749-2.179-3.961s-2.055-4.026-2.008-4.051,1.023,1.748,2.179,3.961S442.895,153.957,442.848,153.982Z" transform="translate(-438.659 -145.97)" fill="#fff"/>
          </g>
        </g>
      </g>
    </g>
    <g id="Plant" transform="translate(-3199.168 13971.613)">
      <g id="Group_9909" data-name="Group 9909">
        <g id="Group_9892" data-name="Group 9892">
          <g id="Group_9891" data-name="Group 9891">
            <g id="Group_9890" data-name="Group 9890">
              <g id="Group_9889" data-name="Group 9889">
                <path id="Path_16257" data-name="Path 16257" d="M351.109,333.167s.14.046.41.146.674.24,1.213.392a14.374,14.374,0,0,0,4.849.493,19.591,19.591,0,0,0,3.489-.565,22.022,22.022,0,0,0,3.969-1.383,24.264,24.264,0,0,0,8.09-6.183,7.479,7.479,0,0,0,1.48-2.47,3.865,3.865,0,0,0-.139-2.919,2.867,2.867,0,0,0-1.032-1.111,3.713,3.713,0,0,0-1.476-.513,5.871,5.871,0,0,0-3.177.518,11.272,11.272,0,0,1-1.607.57,3.112,3.112,0,0,1-1.744-.044,1.855,1.855,0,0,1-1.258-1.225,2.173,2.173,0,0,1,.347-1.758,3.316,3.316,0,0,1,1.41-1.159,13.466,13.466,0,0,1,1.73-.624,23.236,23.236,0,0,0,6.671-3.413,7.6,7.6,0,0,0,1.429-1.28,2.726,2.726,0,0,0,.729-1.713,1.69,1.69,0,0,0-.269-.887,2.112,2.112,0,0,0-.691-.646,4.346,4.346,0,0,0-1.878-.527,11.039,11.039,0,0,1-2.023-.276,2.267,2.267,0,0,1-1.568-1.331,1.216,1.216,0,0,1,.133-1.068,2.665,2.665,0,0,1,.8-.707c.578-.377,1.145-.773,1.7-1.194a27.248,27.248,0,0,0,3.129-2.8,13.491,13.491,0,0,0,2.541-3.377,4.229,4.229,0,0,0,.434-2.044,3.122,3.122,0,0,0-.8-1.908,4.154,4.154,0,0,0-3.851-1.265,6.791,6.791,0,0,0-3.592,2.078c-1.951,2.052-2.91,4.76-4.51,7.005a11.538,11.538,0,0,1-1.326,1.578,3.694,3.694,0,0,1-.815.645,1.06,1.06,0,0,1-1.056.038,1.316,1.316,0,0,1-.554-.9,3.714,3.714,0,0,1-.008-1.024,2.82,2.82,0,0,0-.038-.961,1.733,1.733,0,0,0-.466-.806,2.4,2.4,0,0,0-1.714-.677,2.72,2.72,0,0,0-1.695.728,4.266,4.266,0,0,0-1.074,1.529,6.956,6.956,0,0,0-.455,1.815c-.078.62-.1,1.244-.123,1.865s-.041,1.239-.061,1.852q-.06,1.84-.12,3.63c-.022.6-.034,1.186-.065,1.778a5.729,5.729,0,0,1-.334,1.737,2.042,2.042,0,0,1-1.209,1.245,2.524,2.524,0,0,1-1.711-.111,6.807,6.807,0,0,1-2.639-2,7.267,7.267,0,0,1-.881-1.36,14.019,14.019,0,0,0-.728-1.386,2.2,2.2,0,0,0-1.122-.943,2.02,2.02,0,0,0-1.424.1,2.865,2.865,0,0,0-1.126.878,3.286,3.286,0,0,0-.578,1.28,20.376,20.376,0,0,0-.242,2.764c-.062.9-.092,1.784-.1,2.641a33.342,33.342,0,0,0,.293,4.827,23.656,23.656,0,0,0,.9,4.108c.171.625.424,1.192.625,1.747.115.271.243.529.359.784a8.064,8.064,0,0,0,.364.734,15.587,15.587,0,0,0,2.92,3.906,5.521,5.521,0,0,0,.546.5l.408.347c.218.187.327.287.327.287s-.117-.089-.34-.271l-.414-.34a5.384,5.384,0,0,1-.554-.492,15.393,15.393,0,0,1-2.96-3.9,8.166,8.166,0,0,1-.369-.735c-.118-.256-.248-.515-.365-.787-.2-.556-.461-1.125-.635-1.751a23.644,23.644,0,0,1-.915-4.121,33.317,33.317,0,0,1-.309-4.843c.01-.859.037-1.743.1-2.649a20.3,20.3,0,0,1,.239-2.786,3.417,3.417,0,0,1,.6-1.335,3.008,3.008,0,0,1,1.18-.924,2.164,2.164,0,0,1,1.526-.108,2.341,2.341,0,0,1,1.2,1,14,14,0,0,1,.739,1.4,7.122,7.122,0,0,0,.865,1.33,6.663,6.663,0,0,0,2.576,1.946,2.366,2.366,0,0,0,1.6.107,1.876,1.876,0,0,0,1.109-1.152,11.391,11.391,0,0,0,.382-3.46q.057-1.79.116-3.63.029-.92.059-1.853c.02-.622.044-1.251.123-1.881a7.123,7.123,0,0,1,.466-1.862,4.441,4.441,0,0,1,1.119-1.594,2.9,2.9,0,0,1,1.81-.775,2.579,2.579,0,0,1,1.849.73,1.92,1.92,0,0,1,.514.89,3,3,0,0,1,.044,1.021,3.552,3.552,0,0,0,.005.973,1.138,1.138,0,0,0,.467.772.875.875,0,0,0,.874-.043,3.545,3.545,0,0,0,.771-.614,11.371,11.371,0,0,0,1.3-1.553A40.008,40.008,0,0,0,368,296.316a16.894,16.894,0,0,1,2.415-3.471,6.978,6.978,0,0,1,3.7-2.134,4.345,4.345,0,0,1,4.029,1.327,3.319,3.319,0,0,1,.849,2.024,4.419,4.419,0,0,1-.452,2.137,13.644,13.644,0,0,1-2.578,3.429,27.4,27.4,0,0,1-3.152,2.814c-.555.424-1.129.824-1.709,1.2a2.5,2.5,0,0,0-.743.653,1.025,1.025,0,0,0-.112.9,2.085,2.085,0,0,0,1.442,1.212,10.927,10.927,0,0,0,1.988.27,4.521,4.521,0,0,1,1.955.554,2.3,2.3,0,0,1,.751.7,1.875,1.875,0,0,1,.3.985,2.9,2.9,0,0,1-.772,1.833,7.771,7.771,0,0,1-1.463,1.309,23.416,23.416,0,0,1-6.726,3.433,13.331,13.331,0,0,0-1.708.614,3.146,3.146,0,0,0-1.343,1.1,2.006,2.006,0,0,0-.328,1.62,1.689,1.689,0,0,0,1.15,1.115,2.954,2.954,0,0,0,1.654.042,11.211,11.211,0,0,0,1.585-.56,6.02,6.02,0,0,1,3.258-.523,3.86,3.86,0,0,1,1.534.537,3.017,3.017,0,0,1,1.084,1.171,4.01,4.01,0,0,1,.142,3.031,7.615,7.615,0,0,1-1.511,2.514,24.328,24.328,0,0,1-8.148,6.193,22.041,22.041,0,0,1-3.992,1.374,19.537,19.537,0,0,1-3.507.55,14.215,14.215,0,0,1-4.865-.531c-.538-.159-.943-.3-1.209-.411S351.109,333.167,351.109,333.167Z" transform="translate(-344.248 -290.628)" fill="#a69cf2"/>
              </g>
            </g>
          </g>
        </g>
        <g id="Group_9908" data-name="Group 9908" transform="translate(2.039 1.203)">
          <g id="Group_9895" data-name="Group 9895" transform="translate(6.889)">
            <g id="Group_9894" data-name="Group 9894">
              <g id="Group_9893" data-name="Group 9893">
                <path id="Path_16258" data-name="Path 16258" d="M368.39,330.7a108.982,108.982,0,0,1,4.774-11.552l1.407-2.964c.464-.972.924-1.935,1.433-2.85a54.377,54.377,0,0,1,3.222-5.089c1.1-1.569,2.207-3.018,3.249-4.365s2.044-2.581,3-3.669a43.106,43.106,0,0,1,4.9-4.789c.62-.518,1.114-.9,1.453-1.162l.387-.29a.881.881,0,0,1,.136-.092.836.836,0,0,1-.122.111l-.373.307c-.329.269-.814.666-1.425,1.194a45.616,45.616,0,0,0-4.834,4.828c-.947,1.091-1.936,2.329-2.973,3.678s-2.132,2.8-3.228,4.37a55.012,55.012,0,0,0-3.2,5.076c-.5.91-.959,1.866-1.424,2.84l-1.405,2.963a111.609,111.609,0,0,0-4.782,11.522" transform="translate(-368.39 -293.881)" fill="#a69cf2"/>
              </g>
            </g>
          </g>
          <g id="Group_9898" data-name="Group 9898" transform="translate(13.306 6.017)">
            <g id="Group_9897" data-name="Group 9897">
              <g id="Group_9896" data-name="Group 9896">
                <path id="Path_16259" data-name="Path 16259" d="M387,323.584a2.465,2.465,0,0,1-.1-.523c-.051-.338-.108-.83-.17-1.438-.125-1.216-.24-2.9-.36-4.76s-.259-3.538-.4-4.749c-.07-.606-.131-1.1-.178-1.433a2.436,2.436,0,0,1-.048-.53,2.437,2.437,0,0,1,.133.515c.073.334.159.822.249,1.427.184,1.21.348,2.894.468,4.755.114,1.834.217,3.494.3,4.762.039.572.073,1.055.1,1.442A2.422,2.422,0,0,1,387,323.584Z" transform="translate(-385.741 -310.151)" fill="#a69cf2"/>
              </g>
            </g>
          </g>
          <g id="Group_9901" data-name="Group 9901" transform="translate(14.567 17.095)">
            <g id="Group_9900" data-name="Group 9900">
              <g id="Group_9899" data-name="Group 9899">
                <path id="Path_16260" data-name="Path 16260" d="M404.883,340.148a3.383,3.383,0,0,1-.626.05c-.4.02-.984.046-1.7.1-1.436.1-3.416.305-5.59.629-1.929.29-3.8.633-5.535,1.022-.7.153-1.271.292-1.663.386a3.37,3.37,0,0,1-.615.126,3.383,3.383,0,0,1,.593-.211c.386-.119.949-.283,1.65-.456,1.4-.357,3.358-.762,5.538-1.091a55.122,55.122,0,0,1,5.613-.564c.721-.035,1.306-.037,1.71-.03A3.307,3.307,0,0,1,404.883,340.148Z" transform="translate(-389.152 -340.107)" fill="#a69cf2"/>
              </g>
            </g>
          </g>
          <g id="Group_9904" data-name="Group 9904" transform="translate(0 16.29)">
            <g id="Group_9903" data-name="Group 9903">
              <g id="Group_9902" data-name="Group 9902">
                <path id="Path_16261" data-name="Path 16261" d="M356.853,358.182a.807.807,0,0,1-.1-.194l-.246-.575c-.21-.5-.5-1.233-.838-2.142-.684-1.818-1.55-4.36-2.468-7.177s-1.76-5.365-2.4-7.194l-.771-2.166-.206-.59a.8.8,0,0,1-.058-.212.831.831,0,0,1,.1.2l.245.575c.211.5.5,1.233.838,2.142.684,1.818,1.55,4.36,2.469,7.178s2.128,5.772,2.772,7.6c.317.889.209,1.213.4,1.756l.206.591A.808.808,0,0,1,356.853,358.182Z" transform="translate(-349.761 -337.931)" fill="#a69cf2"/>
              </g>
            </g>
          </g>
          <g id="Group_9907" data-name="Group 9907" transform="translate(7.092 30.654)">
            <g id="Group_9906" data-name="Group 9906">
              <g id="Group_9905" data-name="Group 9905">
                <path id="Path_16262" data-name="Path 16262" d="M389.952,376.774a.833.833,0,0,1-.209.077l-.611.179-2.25.634c-1.9.536-4.516,1.306-7.4,2.161-2.705.8-5.219,1.526-7.427,2.1-.956.249-1.731.442-2.27.565l-.621.138a.814.814,0,0,1-.22.033.876.876,0,0,1,.209-.077l.611-.178,2.25-.634c1.9-.535,4.516-1.306,7.406-2.162s5.514-1.6,7.426-2.1c.956-.248,1.731-.442,2.27-.565l.621-.138A.821.821,0,0,1,389.952,376.774Z" transform="translate(-368.939 -376.772)" fill="#a69cf2"/>
              </g>
            </g>
          </g>
        </g>
      </g>
    </g>
    <g id="Character" transform="translate(-3306.173 13904.555)">
      <g id="Group_9911" data-name="Group 9911" transform="translate(71.762)">
        <g id="Group_9910" data-name="Group 9910">
          <path id="Path_16263" data-name="Path 16263" d="M253.325,128.939s-.215-1.029-.574-4l-3.271-6.409s.727-1.341,2.41,1.5a1.617,1.617,0,0,0,2.912-1.279,2.6,2.6,0,0,0-4.681-.947s-1.047.1-1.169-.712,2.242-2.838,4.253-2.248a6.109,6.109,0,0,1,2.227,1.256s-.437-6.735.108-6.8,1.308.352,1.722,7.739c0,0,.227-5.83.342-6.573.111-.72,1.12-1.248,1.244.621.014.208.382,5.937.382,5.937s.653-3.788.724-4.091c.187-.8.974-.716,1.05.344.057.8.316,4.225.316,4.225l.49,10.561.066-.007" transform="translate(-248.948 -109.298)" fill="#ff58d5"/>
        </g>
      </g>
      <g id="Group_9950" data-name="Group 9950" transform="translate(0 15.86)">
        <g id="Group_9912" data-name="Group 9912" transform="translate(6.433)">
          <path id="Path_16264" data-name="Path 16264" d="M152.458,152.5l-12.276-.316-1.223,29.708-13.878-6.128-.021.05c-.835-.373-1.566-.7-1.954-.916-7.674-4.186-12.711-4.693-20.943-1.755h0l-15.779,6.316c-3.052,1.44-11,2.766-13.727,15.335l-.36,1.5L84.9,205.352l8.656,22.814,10.371,22.842,23.834-.774,12.455-15.519-10.569-20.189-6.568-22.608c4.64,3.079,13.255,7.272,23.569,5.085C157.821,194.634,152.458,152.5,152.458,152.5Z" transform="translate(-72.296 -152.184)" fill="#ffb227"/>
        </g>
        <g id="Group_9914" data-name="Group 9914" transform="translate(27.615 59.07)" opacity="0.3">
          <g id="Group_9913" data-name="Group 9913">
            <path id="Path_16265" data-name="Path 16265" d="M129.572,328.614a24.161,24.161,0,0,0,6.065,2.635,4.382,4.382,0,0,0,3.522-.032c1.032-.635,1.191-2.519.041-2.9l10-2.257c-1.357-3.907.88-8.364,4.265-10.74s7.228-3.052,11.349-3.409L169.8,327.39l-16.675,22.743-13.655.4Z" transform="translate(-129.572 -311.913)" stroke="rgba(0,0,0,0)" stroke-width="1"/>
          </g>
        </g>
        <g id="Group_9915" data-name="Group 9915" transform="translate(0.073 40.428)">
          <path id="Path_16266" data-name="Path 16266" d="M77.406,275.469s-6.253,13.676-4.823,20.5c.8,3.815,13.289,7.075,21.245,8.047l-2.383,13.357s-29.572-2.814-35.114-14.527c-3.145-6.646.04-22.927,6.027-41.344Z" transform="translate(-55.098 -261.504)" fill="#ffb227"/>
        </g>
        <g id="Group_9917" data-name="Group 9917" transform="translate(28.397 70.414)">
          <g id="Group_9916" data-name="Group 9916">
            <path id="Path_16267" data-name="Path 16267" d="M154.155,342.588a1.11,1.11,0,0,1-.213.114l-.625.291c-.543.251-1.338.6-2.326,1.007-1.976.823-4.74,1.879-7.85,2.878s-5.975,1.746-8.061,2.226c-1.043.24-1.89.422-2.477.534l-.677.127a1.125,1.125,0,0,1-.239.031,1.16,1.16,0,0,1,.231-.069l.669-.162c.582-.135,1.424-.336,2.461-.593,2.075-.513,4.927-1.282,8.034-2.277s5.872-2.031,7.858-2.821c.993-.394,1.795-.72,2.347-.95l.639-.257A1.149,1.149,0,0,1,154.155,342.588Z" transform="translate(-131.687 -342.587)" fill="#fff" stroke="rgba(0,0,0,0)" stroke-width="1"/>
          </g>
        </g>
        <g id="Group_9919" data-name="Group 9919" transform="translate(6.968 23.159)">
          <g id="Group_9918" data-name="Group 9918">
            <path id="Path_16268" data-name="Path 16268" d="M125.874,214.808c.018.05-11.639,4.276-26.033,9.438s-26.082,9.308-26.1,9.258,11.636-4.275,26.035-9.439S125.856,214.758,125.874,214.808Z" transform="translate(-73.741 -214.808)" fill="#fff" stroke="rgba(0,0,0,0)" stroke-width="1"/>
          </g>
        </g>
        <g id="Group_9921" data-name="Group 9921" transform="translate(9.518 36.682)">
          <g id="Group_9920" data-name="Group 9920">
            <path id="Path_16269" data-name="Path 16269" d="M90.461,276a.293.293,0,0,1,.027-.082l.1-.231.382-.884c.327-.769.788-1.888,1.258-3.305a25.324,25.324,0,0,0,1.135-5.1,17.091,17.091,0,0,0-.457-6.344,12.488,12.488,0,0,0-3.084-5.512,10.7,10.7,0,0,0-4.421-2.666,9.207,9.207,0,0,0-3.48-.369l-.55.068c-.159.023-.291.057-.4.076l-.246.046a.313.313,0,0,1-.085.01.267.267,0,0,1,.081-.028l.242-.065c.107-.026.239-.065.4-.1l.551-.086a8.973,8.973,0,0,1,3.527.313,10.712,10.712,0,0,1,4.508,2.671A12.561,12.561,0,0,1,93.088,260a17.068,17.068,0,0,1,.448,6.414,24.7,24.7,0,0,1-1.182,5.127c-.488,1.418-.969,2.532-1.318,3.293-.176.38-.315.673-.415.87l-.114.223C90.48,275.981,90.464,276.006,90.461,276Z" transform="translate(-80.637 -251.375)" fill="#263238" stroke="rgba(0,0,0,0)" stroke-width="1"/>
          </g>
        </g>
        <g id="Group_9923" data-name="Group 9923" transform="translate(49.055 20.078)">
          <g id="Group_9922" data-name="Group 9922">
            <path id="Path_16270" data-name="Path 16270" d="M187.547,206.477a1.033,1.033,0,0,1,.213.093,5.26,5.26,0,0,1,.574.336,7.788,7.788,0,0,1,1.784,1.67,12.022,12.022,0,0,1,1.753,3.172,41.321,41.321,0,0,1,1.285,4.243l2.058,7.773.6,2.361.155.645a1.08,1.08,0,0,1,.041.228,1.078,1.078,0,0,1-.079-.218l-.189-.635-.662-2.346-2.112-7.759a44.132,44.132,0,0,0-1.265-4.229,12.261,12.261,0,0,0-1.694-3.152,8.228,8.228,0,0,0-1.719-1.692C187.825,206.635,187.538,206.493,187.547,206.477Z" transform="translate(-187.546 -206.476)" fill="#263238" stroke="rgba(0,0,0,0)" stroke-width="1"/>
          </g>
        </g>
        <g id="Group_9925" data-name="Group 9925" transform="translate(3.599 28.031)">
          <g id="Group_9924" data-name="Group 9924">
            <path id="Path_16271" data-name="Path 16271" d="M130.541,227.981s-.054.03-.164.079l-.49.213-1.89.8c-1.642.693-4.026,1.679-6.978,2.883-5.9,2.408-14.09,5.657-23.19,9.092s-17.4,6.4-23.421,8.492c-3.011,1.046-5.452,1.88-7.143,2.444l-1.948.648-.508.164c-.115.036-.175.05-.175.05s.056-.026.169-.068l.5-.182,1.936-.682,7.122-2.5c6.01-2.124,14.295-5.111,23.4-8.544s17.292-6.663,23.207-9.038l7-2.825,1.9-.767.5-.195C130.481,228,130.541,227.981,130.541,227.981Z" transform="translate(-64.633 -227.981)" fill="#fff" stroke="rgba(0,0,0,0)" stroke-width="1"/>
          </g>
        </g>
        <g id="Group_9927" data-name="Group 9927" transform="translate(1.403 42.782)">
          <g id="Group_9926" data-name="Group 9926">
            <path id="Path_16272" data-name="Path 16272" d="M115.97,267.868a.919.919,0,0,1-.141.068l-.422.18-1.63.677c-1.416.587-3.474,1.413-6.025,2.414-5.1,2-12.193,4.66-20.1,7.368S72.5,283.521,67.236,285.06c-2.63.771-4.763,1.377-6.241,1.78l-1.7.463-.444.115a.97.97,0,0,1-.153.033.9.9,0,0,1,.148-.052l.439-.134,1.693-.5c1.472-.425,3.6-1.051,6.223-1.838,5.248-1.573,12.474-3.833,20.387-6.537s15.006-5.343,20.118-7.312c2.557-.984,4.622-1.791,6.046-2.356l1.643-.643.429-.163A.946.946,0,0,1,115.97,267.868Z" transform="translate(-58.695 -267.868)" fill="#fff" stroke="rgba(0,0,0,0)" stroke-width="1"/>
          </g>
        </g>
        <g id="Group_9929" data-name="Group 9929" transform="translate(62.53 29.979)">
          <g id="Group_9928" data-name="Group 9928">
            <path id="Path_16273" data-name="Path 16273" d="M249.047,233.248a1.615,1.615,0,0,1-.217.185l-.646.5c-.281.218-.628.48-1.04.772s-.873.636-1.4.988c-1.046.723-2.322,1.538-3.767,2.4s-3.072,1.739-4.814,2.595-3.444,1.582-5.006,2.2-2.995,1.116-4.207,1.5c-.6.2-1.157.355-1.641.5s-.9.258-1.248.345l-.793.2a1.622,1.622,0,0,1-.28.057,1.556,1.556,0,0,1,.27-.1l.783-.236c.341-.1.758-.221,1.237-.376s1.031-.316,1.629-.526c1.205-.4,2.625-.915,4.184-1.533s3.246-1.366,4.987-2.212,3.357-1.735,4.809-2.575,2.726-1.652,3.78-2.358c.533-.344,1-.678,1.416-.963s.77-.536,1.057-.745l.667-.473A1.594,1.594,0,0,1,249.047,233.248Z" transform="translate(-223.985 -233.248)" fill="#fff" stroke="rgba(0,0,0,0)" stroke-width="1"/>
          </g>
        </g>
        <g id="Group_9931" data-name="Group 9931" transform="translate(72.934 20.113)">
          <g id="Group_9930" data-name="Group 9930">
            <path id="Path_16274" data-name="Path 16274" d="M267.35,206.573c.019.05-3.375,1.414-7.581,3.048s-7.632,2.918-7.651,2.869,3.375-1.414,7.582-3.048S267.331,206.523,267.35,206.573Z" transform="translate(-252.118 -206.571)" fill="#fff" stroke="rgba(0,0,0,0)" stroke-width="1"/>
          </g>
        </g>
        <g id="Group_9933" data-name="Group 9933" transform="translate(74.051 10.911)">
          <g id="Group_9932" data-name="Group 9932">
            <path id="Path_16275" data-name="Path 16275" d="M268.509,181.689c.014.051-2.967.941-6.659,1.987s-6.7,1.854-6.712,1.8,2.966-.941,6.659-1.987S268.495,181.638,268.509,181.689Z" transform="translate(-255.139 -181.687)" fill="#fff" stroke="rgba(0,0,0,0)" stroke-width="1"/>
          </g>
        </g>
        <g id="Group_9935" data-name="Group 9935" transform="translate(73.848 1.908)">
          <g id="Group_9934" data-name="Group 9934">
            <path id="Path_16276" data-name="Path 16276" d="M267.509,157.346c.011.052-2.872.73-6.439,1.514s-6.47,1.378-6.481,1.326,2.871-.73,6.44-1.514S267.5,157.294,267.509,157.346Z" transform="translate(-254.589 -157.343)" fill="#fff" stroke="rgba(0,0,0,0)" stroke-width="1"/>
          </g>
        </g>
        <g id="Group_9937" data-name="Group 9937" transform="translate(24.184 52.962)">
          <g id="Group_9936" data-name="Group 9936">
            <path id="Path_16277" data-name="Path 16277" d="M157.12,295.4c.02.049-8.208,3.339-18.376,7.346s-18.429,7.218-18.448,7.168,8.207-3.338,18.378-7.347S157.1,295.348,157.12,295.4Z" transform="translate(-120.296 -295.396)" fill="#fff" stroke="rgba(0,0,0,0)" stroke-width="1"/>
          </g>
        </g>
        <g id="Group_9939" data-name="Group 9939" transform="translate(0 69.243)">
          <g id="Group_9938" data-name="Group 9938">
            <path id="Path_16278" data-name="Path 16278" d="M72.405,339.424a.709.709,0,0,1-.169.082l-.5.2c-.432.173-1.061.412-1.842.7-1.561.576-3.731,1.334-6.15,2.106s-4.629,1.409-6.235,1.843c-.8.217-1.454.386-1.907.5l-.522.122a.094.094,0,1,1-.01-.037l.512-.157,1.889-.555c1.6-.467,3.8-1.125,6.213-1.895s4.591-1.508,6.163-2.051l1.862-.642.509-.168A.679.679,0,0,1,72.405,339.424Z" transform="translate(-54.9 -339.422)" fill="#fff" stroke="rgba(0,0,0,0)" stroke-width="1"/>
          </g>
        </g>
        <g id="Group_9941" data-name="Group 9941" transform="translate(4.012 78.614)">
          <g id="Group_9940" data-name="Group 9940">
            <path id="Path_16279" data-name="Path 16279" d="M83.631,364.763c.02.05-3.967,1.715-8.9,3.72s-8.958,3.591-8.978,3.541,3.966-1.714,8.905-3.72S83.611,364.714,83.631,364.763Z" transform="translate(-65.749 -364.762)" fill="#fff" stroke="rgba(0,0,0,0)" stroke-width="1"/>
          </g>
        </g>
        <g id="Group_9943" data-name="Group 9943" transform="translate(19.019 81.206)">
          <g id="Group_9942" data-name="Group 9942">
            <path id="Path_16280" data-name="Path 16280" d="M116.463,371.771c.04.035-2.2,2.684-4.994,5.916s-5.1,5.826-5.139,5.791,2.2-2.683,4.994-5.917S116.423,371.737,116.463,371.771Z" transform="translate(-106.33 -371.771)" fill="#fff" stroke="rgba(0,0,0,0)" stroke-width="1"/>
          </g>
        </g>
        <g id="Group_9945" data-name="Group 9945" transform="translate(32.382 83.092)">
          <g id="Group_9944" data-name="Group 9944">
            <path id="Path_16281" data-name="Path 16281" d="M146.655,376.87c.05.017-.847,2.836-2,6.3s-2.137,6.252-2.187,6.235.847-2.835,2-6.3S146.6,376.853,146.655,376.87Z" transform="translate(-142.461 -376.87)" fill="#fff" stroke="rgba(0,0,0,0)" stroke-width="1"/>
          </g>
        </g>
        <g id="Group_9947" data-name="Group 9947" transform="translate(75.52 41.477)">
          <g id="Group_9946" data-name="Group 9946">
            <path id="Path_16282" data-name="Path 16282" d="M268.684,264.342c.019.05-2.108.929-4.751,1.963s-4.8,1.834-4.821,1.784,2.107-.929,4.751-1.964S268.664,264.293,268.684,264.342Z" transform="translate(-259.112 -264.34)" fill="#fff" stroke="rgba(0,0,0,0)" stroke-width="1"/>
          </g>
        </g>
        <g id="Group_9949" data-name="Group 9949" transform="translate(53.529 26.031)" opacity="0.3">
          <g id="Group_9948" data-name="Group 9948">
            <path id="Path_16283" data-name="Path 16283" d="M199.646,222.573c3.433,9.292,9.606,14.49,18.349,19.146a32.2,32.2,0,0,1-14.416-5.283" transform="translate(-199.646 -222.573)" stroke="rgba(0,0,0,0)" stroke-width="1"/>
          </g>
        </g>
      </g>
      <g id="Group_9971" data-name="Group 9971" transform="translate(18.023 65.064)">
        <g id="Group_9964" data-name="Group 9964" transform="translate(0 13.257)">
          <g id="Group_9959" data-name="Group 9959" transform="translate(0 0)">
            <g id="Group_9956" data-name="Group 9956">
              <g id="Group_9951" data-name="Group 9951" transform="translate(32.399)">
                <path id="Path_16284" data-name="Path 16284" d="M191.243,358.774h65.876V330.63a9.546,9.546,0,0,0-9.546-9.546H200.789a9.545,9.545,0,0,0-9.546,9.546Z" transform="translate(-191.243 -321.084)" fill="#a69cf2"/>
              </g>
              <g id="Group_9953" data-name="Group 9953" transform="translate(32.03)">
                <path id="Path_16285" data-name="Path 16285" d="M195.473,358.774V330.589a9.5,9.5,0,0,1,9.5-9.5H198.2s-7.954,1.057-7.954,11.013.256,26.677.256,26.677Z" transform="translate(-190.246 -321.084)" fill="#8579e2"/>
              </g>
              <g id="Group_9954" data-name="Group 9954" transform="translate(0 35.012)">
                <rect id="Rectangle_9988" data-name="Rectangle 9988" width="55.269" height="3.137" fill="#263238"/>
              </g>
              <g id="Group_9955" data-name="Group 9955" transform="translate(55.269 35.012)">
                <rect id="Rectangle_9989" data-name="Rectangle 9989" width="45.153" height="3.137" fill="#455a64"/>
              </g>
            </g>
            <g id="Group_9958" data-name="Group 9958" transform="translate(44.203 0.007)">
              <g id="Group_9957" data-name="Group 9957">
                <path id="Path_16286" data-name="Path 16286" d="M234.228,357.677a.5.5,0,0,1-.009-.113c0-.085,0-.194-.007-.33,0-.3-.005-.728-.009-1.269,0-1.115,0-2.706,0-4.665.021-3.951.05-9.387.082-15.391.016-1.5.048-2.969-.042-4.379a15.886,15.886,0,0,0-.71-3.988,8.842,8.842,0,0,0-4.24-5.176,9.389,9.389,0,0,0-4.433-1.187,6.12,6.12,0,0,0-.728.02,4.126,4.126,0,0,0-.532.052l-.327.043a.5.5,0,0,1-.113.008.471.471,0,0,1,.109-.027l.325-.062a3.786,3.786,0,0,1,.533-.07,5.834,5.834,0,0,1,.733-.038,9.288,9.288,0,0,1,4.5,1.143,8.945,8.945,0,0,1,4.343,5.24,15.969,15.969,0,0,1,.73,4.032c.094,1.42.063,2.892.047,4.394-.054,6-.1,11.439-.138,15.39-.027,1.959-.048,3.549-.064,4.664-.012.54-.021.964-.027,1.268l-.012.329A.483.483,0,0,1,234.228,357.677Z" transform="translate(-223.162 -321.103)" fill="#263238"/>
              </g>
            </g>
          </g>
          <g id="Group_9961" data-name="Group 9961" transform="translate(54.167 34.87)">
            <g id="Group_9960" data-name="Group 9960">
              <path id="Path_16287" data-name="Path 16287" d="M296.053,415.44c0,.053-10.286.114-22.972.135s-22.974,0-22.974-.057,10.284-.114,22.974-.135S296.053,415.387,296.053,415.44Z" transform="translate(-250.106 -415.375)" fill="#263238"/>
            </g>
          </g>
          <g id="Group_9963" data-name="Group 9963" transform="translate(54.499 38.097)">
            <g id="Group_9962" data-name="Group 9962">
              <path id="Path_16288" data-name="Path 16288" d="M296.619,424.276c0,.053-10.212.068-22.806.034s-22.808-.105-22.808-.158,10.21-.069,22.808-.034S296.619,424.223,296.619,424.276Z" transform="translate(-251.005 -424.1)" fill="#263238"/>
            </g>
          </g>
        </g>
        <g id="Group_9969" data-name="Group 9969" transform="translate(77.846)">
          <path id="Path_16294" data-name="Path 16294" d="M326.652,290.776v-5.541h-10.36v22.244a4.39,4.39,0,1,0,4.256-.119V290.776Z" transform="translate(-314.135 -285.235)" fill="#27275e"/>
        </g>
        <g id="Group_9970" data-name="Group 9970" transform="translate(80.665 24.254)">
          <circle id="Ellipse_4456" data-name="Ellipse 4456" cx="1.695" cy="1.695" r="1.695" transform="translate(0)" fill="#a69cf2"/>
        </g>
      </g>
      <g id="Group_9973" data-name="Group 9973" transform="translate(22.672 36.974)">
        <g id="Group_9972" data-name="Group 9972">
          <path id="Path_16295" data-name="Path 16295" d="M130.29,209.278a1.2,1.2,0,0,1,.1.227,5.92,5.92,0,0,1,.217.676,8.3,8.3,0,0,1,.251,2.595,8.6,8.6,0,0,1-1.075,3.707,7.722,7.722,0,0,1-3.458,3.189,7.281,7.281,0,0,1-4.666.557,7.735,7.735,0,0,1-3.423-1.778,7.924,7.924,0,0,1-1.63-2.034,5.958,5.958,0,0,1-.31-.639,1.157,1.157,0,0,1-.086-.232c.021-.01.145.309.461.833a8.309,8.309,0,0,0,1.656,1.97,7.711,7.711,0,0,0,3.37,1.707,7.166,7.166,0,0,0,4.547-.558,7.618,7.618,0,0,0,3.386-3.1,8.612,8.612,0,0,0,1.093-3.628,8.742,8.742,0,0,0-.188-2.568C130.4,209.6,130.268,209.286,130.29,209.278Z" transform="translate(-116.207 -209.278)" fill="#263238"/>
        </g>
      </g>
      <g id="Group_9979" data-name="Group 9979" transform="translate(68.233 94.156)">
        <g id="Group_9974" data-name="Group 9974" transform="translate(0.001)">
          <path id="Path_16296" data-name="Path 16296" d="M239.409,363.968l5.048-.067-.2,17.148-4.686.187Z" transform="translate(-239.409 -363.901)" fill="#ebebeb"/>
        </g>
        <g id="Group_9976" data-name="Group 9976" transform="translate(0.166 12.349)">
          <g id="Group_9975" data-name="Group 9975">
            <path id="Path_16297" data-name="Path 16297" d="M239.855,402.279a59.914,59.914,0,0,1,4.619-4.985,60.074,60.074,0,0,1-4.619,4.985Z" transform="translate(-239.854 -397.293)" fill="#263238"/>
          </g>
        </g>
        <g id="Group_9978" data-name="Group 9978" transform="translate(0 0.162)">
          <g id="Group_9977" data-name="Group 9977">
            <path id="Path_16298" data-name="Path 16298" d="M244.455,369.952a73.858,73.858,0,0,1-5.048-5.612,74.053,74.053,0,0,1,5.048,5.612Z" transform="translate(-239.406 -364.339)" fill="#263238"/>
          </g>
        </g>
      </g>
      <g id="Group_10007" data-name="Group 10007" transform="translate(4.129 4.182)">
        <g id="Group_9980" data-name="Group 9980" transform="translate(0 0.036)">
          <path id="Path_16299" data-name="Path 16299" d="M92.353,135.494a1.33,1.33,0,0,0,2.248.966c.712-.679.469-1.87.024-2.747a4.97,4.97,0,0,1-.927-2.747,6.569,6.569,0,0,1,.966-2.023,4.244,4.244,0,0,0,.09-3.788,3.569,3.569,0,0,0-3.159-1.98c-1.338.027-2.745.864-3.933.247-.861-.447-1.221-1.5-1.969-2.113-1.161-.959-2.91-.64-4.279-.014s-2.686,1.522-4.19,1.6a20.458,20.458,0,0,1-3.707-.637,6.592,6.592,0,0,0-5.608,11.14,4.21,4.21,0,0,0,2.542,1.347" transform="translate(-66.064 -120.703)" fill="#3e3883"/>
        </g>
        <g id="Group_10000" data-name="Group 10000" transform="translate(4.333 5.9)">
          <g id="Group_9995" data-name="Group 9995">
            <g id="Group_9994" data-name="Group 9994">
              <g id="Group_9981" data-name="Group 9981">
                <path id="Path_16300" data-name="Path 16300" d="M101.411,173.75h0A7.488,7.488,0,0,1,91.967,169c-.746-2.239-1.37-4.126-1.37-4.126s-5.956.91-7.819-4.744S77.962,141.9,77.962,141.9l-.18-.761c5.679-4.9,13.757-5.718,20.8-3.146l.361,1.172,7.379,25.631A7.486,7.486,0,0,1,101.411,173.75Z" transform="translate(-77.782 -136.561)" fill="#ffbe9d"/>
              </g>
              <g id="Group_9985" data-name="Group 9985" transform="translate(2.78 11.606)">
                <g id="Group_9982" data-name="Group 9982" transform="translate(1.015 0.491)">
                  <path id="Path_16301" data-name="Path 16301" d="M89.419,170.85a.872.872,0,0,0-.429-1.57.8.8,0,0,0-.59.161.872.872,0,0,0,.429,1.571A.8.8,0,0,0,89.419,170.85Z" transform="translate(-88.044 -169.274)" fill="#263238"/>
                </g>
                <g id="Group_9984" data-name="Group 9984">
                  <g id="Group_9983" data-name="Group 9983">
                    <path id="Path_16302" data-name="Path 16302" d="M85.326,169.3c.12.07.542-.535,1.322-.785s1.476-.026,1.53-.153c.028-.058-.116-.207-.423-.317a2.021,2.021,0,0,0-2.277.749C85.3,169.068,85.269,169.274,85.326,169.3Z" transform="translate(-85.299 -167.945)" fill="#263238"/>
                  </g>
                </g>
              </g>
              <g id="Group_9989" data-name="Group 9989" transform="translate(11.285 9.704)">
                <g id="Group_9986" data-name="Group 9986" transform="translate(0.854 0.499)">
                  <path id="Path_16303" data-name="Path 16303" d="M110.816,164.449a.864.864,0,1,0,1.219-.088A.864.864,0,0,0,110.816,164.449Z" transform="translate(-110.605 -164.151)" fill="#263238"/>
                </g>
                <g id="Group_9988" data-name="Group 9988">
                  <g id="Group_9987" data-name="Group 9987">
                    <path id="Path_16304" data-name="Path 16304" d="M108.323,164.159c.12.07.542-.535,1.322-.785s1.476-.026,1.53-.153c.028-.058-.116-.207-.423-.318a2.022,2.022,0,0,0-2.277.75C108.294,163.923,108.266,164.129,108.323,164.159Z" transform="translate(-108.296 -162.8)" fill="#263238"/>
                  </g>
                </g>
              </g>
              <g id="Group_9991" data-name="Group 9991" transform="translate(7.965 11.56)">
                <g id="Group_9990" data-name="Group 9990">
                  <path id="Path_16305" data-name="Path 16305" d="M101.569,174.762a4.185,4.185,0,0,0-1.347.14c-.21.043-.391.05-.447-.061a1.166,1.166,0,0,1-.042-.639l.115-1.784a24.151,24.151,0,0,0,.033-4.6,24.109,24.109,0,0,0-.472,4.574c-.028.618-.055,1.208-.081,1.786a1.36,1.36,0,0,0,.153.878.552.552,0,0,0,.447.212,1.371,1.371,0,0,0,.361-.064A4.208,4.208,0,0,0,101.569,174.762Z" transform="translate(-99.321 -167.821)" fill="#263238"/>
                </g>
              </g>
              <g id="Group_9992" data-name="Group 9992" transform="translate(9.544 18.432)">
                <path id="Path_16306" data-name="Path 16306" d="M107.071,186.534c.662-.743-1.866,1.9-3.482,2.325a2.265,2.265,0,0,0,2.821.055A1.718,1.718,0,0,0,107.071,186.534Z" transform="translate(-103.589 -186.403)" fill="#fff"/>
              </g>
              <g id="Group_9993" data-name="Group 9993" transform="translate(12.779 23.798)">
                <path id="Path_16307" data-name="Path 16307" d="M112.338,205.351a13.84,13.84,0,0,0,6.736-4.44s-.459,4.637-6.285,5.915Z" transform="translate(-112.338 -200.911)" fill="#eb996e"/>
              </g>
            </g>
          </g>
          <g id="Group_9999" data-name="Group 9999" transform="translate(22 6.178)">
            <g id="Group_9996" data-name="Group 9996">
              <path id="Path_16308" data-name="Path 16308" d="M137.272,153.561c.113-.078,4.13-1.653,4.961,3.348s-4.5,4.185-4.528,4.043S137.272,153.561,137.272,153.561Z" transform="translate(-137.272 -153.266)" fill="#ffbe9d"/>
            </g>
            <g id="Group_9998" data-name="Group 9998" transform="translate(1.432 1.553)">
              <g id="Group_9997" data-name="Group 9997">
                <path id="Path_16309" data-name="Path 16309" d="M141.386,161.589c.019-.02.1.047.256.09a.883.883,0,0,0,.653-.095,2.184,2.184,0,0,0,.676-2.1,2.908,2.908,0,0,0-.451-1.207,1.02,1.02,0,0,0-.766-.56.45.45,0,0,0-.475.324c-.044.151,0,.246-.02.258s-.121-.066-.115-.279a.566.566,0,0,1,.145-.346.669.669,0,0,1,.461-.207,1.242,1.242,0,0,1,1.039.625,3,3,0,0,1,.533,1.344,2.293,2.293,0,0,1-.912,2.371.946.946,0,0,1-.819,0C141.415,161.709,141.37,161.6,141.386,161.589Z" transform="translate(-141.143 -157.465)" fill="#eb996e"/>
              </g>
            </g>
          </g>
        </g>
        <g id="Group_10006" data-name="Group 10006" transform="translate(2.762)">
          <g id="Group_10001" data-name="Group 10001" transform="translate(0 4.255)">
            <path id="Path_16310" data-name="Path 16310" d="M74.64,141.838a9.835,9.835,0,0,0,7.8-2.8c2.54-2.3,5.779-3.984,6.7-3.6s1.937,3.378,5.111,3.447c0,0,1.425,5.86,3.682,5.005s-1.709-9.44-1.709-9.44l-6.366-2.333-6.5.564-6.6,2.667-3.217,3.433Z" transform="translate(-73.533 -132.113)" fill="#3e3883"/>
          </g>
          <g id="Group_10003" data-name="Group 10003" transform="translate(19.619 1.595)">
            <g id="Group_10002" data-name="Group 10002">
              <path id="Path_16311" data-name="Path 16311" d="M128.708,124.938a3.74,3.74,0,0,0-2.118,1.608,2.242,2.242,0,0,1,2.118-1.608Z" transform="translate(-126.583 -124.919)" fill="#263238"/>
            </g>
          </g>
          <g id="Group_10005" data-name="Group 10005" transform="translate(18.715)">
            <g id="Group_10004" data-name="Group 10004">
              <path id="Path_16312" data-name="Path 16312" d="M124.147,120.606a1.443,1.443,0,0,1,.266.489,5.292,5.292,0,0,1,.369,1.293,3.811,3.811,0,0,1-.034,1.349,1.242,1.242,0,0,1-.193.525,7.721,7.721,0,0,0,.036-1.846C124.434,121.408,124.082,120.63,124.147,120.606Z" transform="translate(-124.139 -120.606)" fill="#263238"/>
            </g>
          </g>
        </g>
      </g>
      <g id="Group_10021" data-name="Group 10021" transform="translate(36.575 89.199)">
        <g id="Group_10015" data-name="Group 10015" transform="translate(4.239)">
          <g id="Group_10008" data-name="Group 10008" transform="translate(0 0)">
            <path id="Path_16313" data-name="Path 16313" d="M165.263,355.26l25.61-4.762L194.7,367.8,168.1,372.3Z" transform="translate(-165.263 -350.497)" fill="#e0e0e0"/>
          </g>
          <g id="Group_10010" data-name="Group 10010">
            <g id="Group_10009" data-name="Group 10009">
              <path id="Path_16314" data-name="Path 16314" d="M190.873,350.5a.282.282,0,0,1-.044.072l-.144.2-.571.762-2.131,2.787-7.125,9.2-.05.064-.071-.038-.5-.262-10.61-5.642-3.205-1.729-.867-.479-.223-.129a.044.044,0,1,1,.009-.017l.232.112.883.447,3.234,1.675,10.637,5.592.5.262-.121.026,7.171-9.168,2.178-2.75.6-.74.159-.189C190.85,350.515,190.87,350.495,190.873,350.5Z" transform="translate(-165.263 -350.497)" fill="#263238"/>
            </g>
          </g>
          <g id="Group_10012" data-name="Group 10012" transform="translate(2.839 10.238)">
            <g id="Group_10011" data-name="Group 10011">
              <path id="Path_16315" data-name="Path 16315" d="M172.939,389.742c-.045-.029,1.6-2.64,3.678-5.832s3.8-5.757,3.84-5.728-1.6,2.64-3.679,5.833S172.984,389.771,172.939,389.742Z" transform="translate(-172.939 -378.181)" fill="#263238"/>
            </g>
          </g>
          <g id="Group_10014" data-name="Group 10014" transform="translate(18.855 8.963)">
            <g id="Group_10013" data-name="Group 10013">
              <path id="Path_16316" data-name="Path 16316" d="M226.828,383.077c-.033.042-2.429-1.792-5.35-4.1s-5.264-4.206-5.231-4.247,2.428,1.792,5.35,4.1S226.861,383.036,226.828,383.077Z" transform="translate(-216.247 -374.734)" fill="#263238"/>
            </g>
          </g>
        </g>
        <g id="Group_10016" data-name="Group 10016" transform="translate(0 8.625)">
          <path id="Path_16317" data-name="Path 16317" d="M158.712,373.82s.182,3.352,1.8,3.315,7.318-3.141,7.981-2.062-1.088,2.576-1.088,2.576,2.01-.03,1.263,1.172-2.983,6.828-5.051,7.356a70.4,70.4,0,0,1-9.812,1.057l2.113-11.787Z" transform="translate(-153.801 -373.82)" fill="#ff58d5"/>
        </g>
        <g id="Group_10018" data-name="Group 10018" transform="translate(7.285 11.752)">
          <g id="Group_10017" data-name="Group 10017">
            <path id="Path_16318" data-name="Path 16318" d="M180.437,382.275c.009.01-.068.095-.215.24s-.368.348-.65.587a18.452,18.452,0,0,1-4.936,2.971c-.344.137-.625.239-.823.3a1.06,1.06,0,0,1-.313.078,10.532,10.532,0,0,1,1.082-.5,24.37,24.37,0,0,0,4.9-2.952A10.6,10.6,0,0,1,180.437,382.275Z" transform="translate(-173.5 -382.274)" fill="#eb996e"/>
          </g>
        </g>
        <g id="Group_10020" data-name="Group 10020" transform="translate(8.494 15.073)">
          <g id="Group_10019" data-name="Group 10019">
            <path id="Path_16319" data-name="Path 16319" d="M182.408,391.257a3.685,3.685,0,0,1-.588.845,9.4,9.4,0,0,1-4.053,2.8,3.7,3.7,0,0,1-1,.252,10.109,10.109,0,0,1,.949-.379,11.147,11.147,0,0,0,4-2.767C182.146,391.551,182.382,391.239,182.408,391.257Z" transform="translate(-176.769 -391.256)" fill="#eb996e"/>
          </g>
        </g>
      </g>
    </g>
  </g>
</svg>
