<svg id="emoji_emotions-24px" xmlns="http://www.w3.org/2000/svg" width="24" height="24" viewBox="0 0 24 24">
  <g id="Group_22959" data-name="Group 22959">
    <rect id="Rectangle_2721" data-name="Rectangle 2721" width="24" height="24" fill="none"/>
  </g>
  <g id="Group_22961" data-name="Group 22961">
    <g id="Group_22960" data-name="Group 22960">
      <circle id="Ellipse_4597" data-name="Ellipse 4597" cx="1.5" cy="1.5" r="1.5" transform="translate(14 8)" fill="#6c838f"/>
      <circle id="Ellipse_4598" data-name="Ellipse 4598" cx="1.5" cy="1.5" r="1.5" transform="translate(7 8)" fill="#6c838f"/>
      <path id="Path_26870" data-name="Path 26870" d="M12,18a5.458,5.458,0,0,0,5-4H7A5.458,5.458,0,0,0,12,18Z" fill="#6c838f"/>
      <path id="Path_26871" data-name="Path 26871" d="M11.99,2A10,10,0,1,0,22,12,10,10,0,0,0,11.99,2ZM12,20a8,8,0,1,1,8-8A8,8,0,0,1,12,20Z" fill="#6c838f"/>
    </g>
  </g>
</svg>
