<svg xmlns="http://www.w3.org/2000/svg" xmlns:xlink="http://www.w3.org/1999/xlink" width="61.988" height="61.988" viewBox="0 0 61.988 61.988">
  <defs>
    <filter id="Path_11788-2" x="0" y="0" width="61.988" height="61.988" filterUnits="userSpaceOnUse">
      <feOffset dy="3" input="SourceAlpha"/>
      <feGaussianBlur stdDeviation="3" result="blur"/>
      <feFlood flood-opacity="0.11"/>
      <feComposite operator="in" in2="blur"/>
      <feComposite in="SourceGraphic"/>
    </filter>
    <filter id="Path_11754" x="21" y="21.999" width="18" height="18" filterUnits="userSpaceOnUse">
      <feOffset dy="3" input="SourceAlpha"/>
      <feGaussianBlur stdDeviation="3" result="blur-2"/>
      <feFlood flood-opacity="0.11"/>
      <feComposite operator="in" in2="blur-2"/>
      <feComposite in="SourceGraphic"/>
    </filter>
  </defs>
  <g id="Group_25088" data-name="Group 25088" transform="translate(-78 -496)">
    <g id="Group_8951" data-name="Group 8951" transform="translate(35.5 -84.5)">
      <g id="Group_8950" data-name="Group 8950">
        <g transform="matrix(1, 0, 0, 1, 42.5, 580.5)" filter="url(#Path_11788-2)">
          <path id="Path_11788-2-2" data-name="Path 11788-2" d="M41.039,11a21.991,21.991,0,1,0-8.049,30.04A21.991,21.991,0,0,0,41.039,11Z" transform="translate(52.99 49.99) rotate(180)" fill="#fff"/>
        </g>
        <g transform="matrix(1, 0, 0, 1, 42.5, 580.5)" filter="url(#Path_11754)">
          <path id="Path_11754-2" data-name="Path 11754" d="M0,0" transform="translate(30 28) rotate(180)" fill="none" stroke="rgba(112,112,112,0.18)" stroke-width="1"/>
        </g>
        <path id="facebook-2" d="M96.349,36.327V25.608h3.6l.539-4.177H96.349V18.764c0-1.209.336-2.034,2.07-2.034h2.212V12.993a29.645,29.645,0,0,0-3.223-.164c-3.189,0-5.373,1.947-5.373,5.522v3.081H88.428v4.177h3.607V36.327Z" transform="translate(-21.428 584.171)" fill="#3c5a9a"/>
      </g>
    </g>
  </g>
</svg>
