<svg xmlns="http://www.w3.org/2000/svg" width="20.625" height="17.82" viewBox="0 0 20.625 17.82">
  <g id="gallery" transform="translate(0 -26.403)">
    <g id="Group_27765" data-name="Group 27765" transform="translate(0 26.403)">
      <g id="Group_27764" data-name="Group 27764" transform="translate(0 0)">
        <path id="Path_29774" data-name="Path 29774" d="M10.685,242.272a2.609,2.609,0,0,1-1.637-.61L6.023,239a1.332,1.332,0,0,0-1.72-.083L0,242.078v2.053a1,1,0,0,0,.941,1.053c.028,0,.057,0,.085,0H16.263a1.168,1.168,0,0,0,1.221-1.054v-5.383l-5.467,3.163A2.525,2.525,0,0,1,10.685,242.272Z" transform="translate(0 -227.367)" fill="#6c838f"/>
        <circle id="Ellipse_4790" data-name="Ellipse 4790" cx="1.221" cy="1.221" r="1.221" transform="translate(9.242 7.08)" fill="#6c838f"/>
        <path id="Path_29775" data-name="Path 29775" d="M73.826,28.572a1.027,1.027,0,0,0-.749-.416L57.953,26.408a1.105,1.105,0,0,0-1.249.944l-.25,2.164H69.719a2.386,2.386,0,0,1,2.331,2.3v9.8c0-.056.25-.111.361-.222a.943.943,0,0,0,.361-.749l1.3-11.266A1.082,1.082,0,0,0,73.826,28.572Z" transform="translate(-53.456 -26.403)" fill="#6c838f"/>
        <path id="Path_29776" data-name="Path 29776" d="M16.291,105.9H1.057A1.12,1.12,0,0,0,.03,107.092V115l3.663-2.664a2.442,2.442,0,0,1,3.08.139l3.052,2.664a1.415,1.415,0,0,0,1.637.139l6.049-3.524v-4.662A1.276,1.276,0,0,0,16.291,105.9Zm-5.8,6.41a2.331,2.331,0,1,1,2.331-2.331A2.331,2.331,0,0,1,10.491,112.309Z" transform="translate(-0.028 -101.677)" fill="#6c838f"/>
      </g>
    </g>
  </g>
</svg>
