<svg xmlns="http://www.w3.org/2000/svg" width="259.232" height="61.269" viewBox="0 0 259.232 61.269">
  <g id="Group_38146" data-name="Group 38146" transform="translate(-251.558 -334.61)">
    <g id="Group_38145" data-name="Group 38145" transform="translate(-3)">
      <path id="Path_13" data-name="Path 13" d="M330.017,399.808h2.937v.591h-2.232v1.812h2.063v.583h-2.063v2.469h-.7Z" transform="translate(-0.875 -13.841)" fill="#0d1319"/>
      <rect id="Rectangle_1" data-name="Rectangle 1" width="0.704" height="5.454" transform="translate(333.687 385.966)" fill="#0d1319"/>
      <path id="Path_14" data-name="Path 14" d="M337.6,405.262v-5.454h.769l1.747,2.758a15.2,15.2,0,0,1,.98,1.773l.017-.007c-.065-.729-.081-1.393-.081-2.242v-2.282h.663v5.454h-.712l-1.732-2.768a17.047,17.047,0,0,1-1.019-1.82l-.025.008c.04.687.057,1.343.057,2.249v2.33Z" transform="translate(-1.375 -13.841)" fill="#0d1319"/>
      <path id="Path_15" data-name="Path 15" d="M343.948,399.878a10.119,10.119,0,0,1,1.5-.114,3.12,3.12,0,0,1,2.209.681,2.509,2.509,0,0,1,.769,1.958,2.884,2.884,0,0,1-.785,2.12,3.362,3.362,0,0,1-2.412.784,11.221,11.221,0,0,1-1.279-.064Zm.7,4.822a4.527,4.527,0,0,0,.712.04,2.1,2.1,0,0,0,2.323-2.314,1.946,1.946,0,0,0-2.209-2.1,4.021,4.021,0,0,0-.826.073Z" transform="translate(-1.794 -13.838)" fill="#0d1319"/>
      <path id="Path_16" data-name="Path 16" d="M353.393,405.262l-1.384-5.454h.744l.647,2.758c.163.681.307,1.36.4,1.887h.017c.088-.544.259-1.19.445-1.9l.728-2.75h.737l.663,2.767c.154.647.3,1.294.381,1.869h.016c.113-.6.267-1.206.436-1.887l.721-2.75h.72l-1.546,5.454h-.736l-.688-2.84a16.382,16.382,0,0,1-.356-1.781h-.016a16.837,16.837,0,0,1-.42,1.781l-.777,2.84Z" transform="translate(-2.326 -13.841)" fill="#0d1319"/>
      <path id="Path_17" data-name="Path 17" d="M361.216,399.808v2.282h2.638v-2.282h.712v5.454h-.712V402.7h-2.638v2.557h-.7v-5.454Z" transform="translate(-2.887 -13.841)" fill="#0d1319"/>
      <path id="Path_18" data-name="Path 18" d="M367.66,403.547l-.567,1.715h-.728l1.853-5.454h.849l1.861,5.454h-.752l-.583-1.715Zm1.788-.551-.533-1.569c-.121-.357-.2-.68-.284-1h-.016c-.08.323-.17.655-.276.987L367.8,403Z" transform="translate(-3.273 -13.841)" fill="#0d1319"/>
      <path id="Path_19" data-name="Path 19" d="M373.08,400.407h-1.659v-.6h4.038v.6h-1.666v4.855h-.712Z" transform="translate(-3.607 -13.841)" fill="#0d1319"/>
      <path id="Path_20" data-name="Path 20" d="M380.305,405.262v-2.315l-1.723-3.139h.8l.769,1.506c.209.412.372.743.542,1.124h.016c.154-.356.34-.712.55-1.124l.785-1.506h.8l-1.828,3.131v2.323Z" transform="translate(-4.079 -13.841)" fill="#0d1319"/>
      <path id="Path_21" data-name="Path 21" d="M388.788,402.472a2.554,2.554,0,0,1-2.533,2.872,2.5,2.5,0,0,1-2.452-2.767,2.59,2.59,0,0,1,2.532-2.865,2.483,2.483,0,0,1,2.453,2.759m-4.233.089c0,1.165.631,2.209,1.74,2.209s1.748-1.027,1.748-2.266c0-1.084-.566-2.217-1.739-2.217s-1.749,1.076-1.749,2.274" transform="translate(-4.423 -13.835)" fill="#0d1319"/>
      <path id="Path_22" data-name="Path 22" d="M391.468,399.808v3.228c0,1.223.543,1.74,1.27,1.74.81,0,1.328-.535,1.328-1.74v-3.228h.711v3.18c0,1.675-.882,2.362-2.062,2.362-1.117,0-1.959-.639-1.959-2.33v-3.212Z" transform="translate(-4.882 -13.841)" fill="#0d1319"/>
      <path id="Path_23" data-name="Path 23" d="M400.354,403.547l-.566,1.715h-.729l1.853-5.454h.85l1.861,5.454h-.753l-.582-1.715Zm1.789-.551-.534-1.569c-.121-.357-.2-.68-.283-1h-.016c-.081.323-.171.655-.276.987L400.5,403Z" transform="translate(-5.43 -13.841)" fill="#0d1319"/>
      <path id="Path_24" data-name="Path 24" d="M405.448,399.877a7.428,7.428,0,0,1,1.352-.113,2.233,2.233,0,0,1,1.578.445,1.36,1.36,0,0,1,.43,1.036,1.43,1.43,0,0,1-1.027,1.392v.025a1.357,1.357,0,0,1,.8,1.1,8.734,8.734,0,0,0,.421,1.5h-.729a7.1,7.1,0,0,1-.363-1.3c-.163-.753-.453-1.036-1.093-1.06h-.664v2.363h-.7Zm.7,2.484h.72c.753,0,1.23-.412,1.23-1.036,0-.7-.509-1.011-1.253-1.018a2.956,2.956,0,0,0-.7.064Z" transform="translate(-5.852 -13.838)" fill="#0d1319"/>
      <path id="Path_25" data-name="Path 25" d="M413.581,402.7h-2.119v1.966h2.361v.591h-3.066v-5.454H413.7v.591h-2.241v1.723h2.119Z" transform="translate(-6.202 -13.841)" fill="#0d1319"/>
      <path id="Path_26" data-name="Path 26" d="M418.151,399.808h.7v4.863h2.331v.591h-3.035Z" transform="translate(-6.69 -13.841)" fill="#0d1319"/>
      <path id="Path_27" data-name="Path 27" d="M427.187,402.472a2.554,2.554,0,0,1-2.532,2.872,2.5,2.5,0,0,1-2.452-2.767,2.59,2.59,0,0,1,2.532-2.865,2.483,2.483,0,0,1,2.452,2.759m-4.232.089c0,1.165.631,2.209,1.74,2.209s1.749-1.027,1.749-2.266c0-1.084-.567-2.217-1.74-2.217s-1.748,1.076-1.748,2.274" transform="translate(-6.957 -13.835)" fill="#0d1319"/>
      <path id="Path_28" data-name="Path 28" d="M433.8,402.472a2.554,2.554,0,0,1-2.532,2.872,2.5,2.5,0,0,1-2.453-2.767,2.591,2.591,0,0,1,2.533-2.865,2.483,2.483,0,0,1,2.452,2.759m-4.232.089c0,1.165.631,2.209,1.74,2.209s1.748-1.027,1.748-2.266c0-1.084-.566-2.217-1.74-2.217s-1.748,1.076-1.748,2.274" transform="translate(-7.393 -13.835)" fill="#0d1319"/>
      <path id="Path_29" data-name="Path 29" d="M435.779,399.808h.705v2.63h.024c.146-.21.29-.405.428-.583l1.667-2.047h.874l-1.975,2.315,2.128,3.139H438.8l-1.8-2.679-.517.6v2.079h-.705Z" transform="translate(-7.853 -13.841)" fill="#0d1319"/>
      <rect id="Rectangle_2" data-name="Rectangle 2" width="0.704" height="5.454" transform="translate(432.916 385.966)" fill="#0d1319"/>
      <path id="Path_30" data-name="Path 30" d="M443.84,405.262v-5.454h.77l1.748,2.758a15.6,15.6,0,0,1,.978,1.773l.017-.007c-.065-.729-.081-1.393-.081-2.242v-2.282h.663v5.454h-.713l-1.731-2.768a17.222,17.222,0,0,1-1.02-1.82l-.023.008c.04.687.056,1.343.056,2.249v2.33Z" transform="translate(-8.385 -13.841)" fill="#0d1319"/>
      <path id="Path_31" data-name="Path 31" d="M454.316,405.015a5.076,5.076,0,0,1-1.675.3,2.56,2.56,0,0,1-2.8-2.751,2.736,2.736,0,0,1,2.953-2.815,3.361,3.361,0,0,1,1.36.251l-.17.574a2.836,2.836,0,0,0-1.2-.234,2.04,2.04,0,0,0-2.194,2.193,2,2,0,0,0,2.1,2.2,2.315,2.315,0,0,0,.939-.145v-1.627h-1.109v-.566h1.8Z" transform="translate(-8.781 -13.837)" fill="#0d1319"/>
      <path id="Path_32" data-name="Path 32" d="M458.915,399.808h2.938v.591H459.62v1.812h2.063v.583H459.62v2.469h-.7Z" transform="translate(-9.379 -13.841)" fill="#0d1319"/>
      <path id="Path_33" data-name="Path 33" d="M468.418,402.472a2.554,2.554,0,0,1-2.531,2.872,2.5,2.5,0,0,1-2.453-2.767,2.591,2.591,0,0,1,2.533-2.865,2.482,2.482,0,0,1,2.451,2.759m-4.231.089c0,1.165.632,2.209,1.739,2.209s1.749-1.027,1.749-2.266c0-1.084-.567-2.217-1.741-2.217s-1.748,1.076-1.748,2.274" transform="translate(-9.677 -13.835)" fill="#0d1319"/>
      <path id="Path_34" data-name="Path 34" d="M470.395,399.877a7.421,7.421,0,0,1,1.352-.113,2.237,2.237,0,0,1,1.578.445,1.363,1.363,0,0,1,.43,1.036,1.431,1.431,0,0,1-1.028,1.392v.025a1.36,1.36,0,0,1,.8,1.1,8.859,8.859,0,0,0,.42,1.5h-.729a7.26,7.26,0,0,1-.363-1.3c-.162-.753-.453-1.036-1.092-1.06H471.1v2.363h-.705Zm.705,2.484h.719c.753,0,1.23-.412,1.23-1.036,0-.7-.51-1.011-1.253-1.018a2.952,2.952,0,0,0-.7.064Z" transform="translate(-10.137 -13.838)" fill="#0d1319"/>
      <path id="Path_35" data-name="Path 35" d="M482.826,402.472a2.554,2.554,0,0,1-2.532,2.872,2.5,2.5,0,0,1-2.452-2.767,2.59,2.59,0,0,1,2.532-2.865,2.482,2.482,0,0,1,2.452,2.759m-4.232.089c0,1.165.632,2.209,1.74,2.209s1.748-1.027,1.748-2.266c0-1.084-.567-2.217-1.74-2.217s-1.749,1.076-1.749,2.274" transform="translate(-10.628 -13.835)" fill="#0d1319"/>
      <path id="Path_36" data-name="Path 36" d="M484.8,405.262v-5.454h.77l1.748,2.758a15.584,15.584,0,0,1,.978,1.773l.017-.007c-.064-.729-.081-1.393-.081-2.242v-2.282h.664v5.454h-.713l-1.732-2.768a17.368,17.368,0,0,1-1.019-1.82l-.024.008c.04.687.057,1.343.057,2.249v2.33Z" transform="translate(-11.087 -13.841)" fill="#0d1319"/>
      <path id="Path_37" data-name="Path 37" d="M491.15,399.808h.7v4.863h2.331v.591H491.15Z" transform="translate(-11.506 -13.841)" fill="#0d1319"/>
      <rect id="Rectangle_3" data-name="Rectangle 3" width="0.705" height="5.454" transform="translate(484.067 385.966)" fill="#0d1319"/>
      <path id="Path_38" data-name="Path 38" d="M498.6,405.262v-5.454h.77l1.748,2.758a15.3,15.3,0,0,1,.978,1.773l.018-.007c-.065-.729-.081-1.393-.081-2.242v-2.282h.663v5.454h-.712l-1.732-2.768a17.055,17.055,0,0,1-1.02-1.82l-.024.008c.041.687.057,1.343.057,2.249v2.33Z" transform="translate(-11.998 -13.841)" fill="#0d1319"/>
      <path id="Path_39" data-name="Path 39" d="M507.775,402.7h-2.119v1.966h2.362v.591h-3.067v-5.454H507.9v.591h-2.24v1.723h2.119Z" transform="translate(-12.417 -13.841)" fill="#0d1319"/>
    </g>
    <g id="Group_38144" data-name="Group 38144">
      <path id="Path_2" data-name="Path 2" d="M484.139,379.177h1.095v8.208h-1.095v-1.453a3.7,3.7,0,0,1-3.146,1.59,4.24,4.24,0,1,1,0-8.481,3.7,3.7,0,0,1,3.146,1.591Zm-5.368,6.327a3.139,3.139,0,1,0-.923-2.222,3.027,3.027,0,0,0,.923,2.222" transform="translate(-10.556 -12.471)" fill="#0d1319"/>
      <path id="Path_3" data-name="Path 3" d="M494.144,387.4h-6.3l4.613-7.113H488.15v-1.1h6.262L489.8,386.3h4.343Z" transform="translate(-11.288 -12.48)" fill="#0d1319"/>
      <path id="Path_4" data-name="Path 4" d="M503.983,379.177h1.095v8.208h-1.095v-1.453a3.7,3.7,0,0,1-3.147,1.59,4.24,4.24,0,1,1,0-8.481,3.7,3.7,0,0,1,3.147,1.591Zm-5.368,6.327a3.137,3.137,0,1,0-.924-2.222,3.026,3.026,0,0,0,.924,2.222" transform="translate(-11.866 -12.471)" fill="#0d1319"/>
      <path id="Path_5" data-name="Path 5" d="M515.077,379.177h1.095v8.208h-1.095v-1.453a3.7,3.7,0,0,1-3.147,1.59,4.24,4.24,0,1,1,0-8.481,3.7,3.7,0,0,1,3.147,1.591Zm-5.369,6.327a3.139,3.139,0,1,0-.923-2.222,3.03,3.03,0,0,0,.923,2.222" transform="translate(-12.598 -12.471)" fill="#0d1319"/>
      <g id="Group_38143" data-name="Group 38143">
        <g id="Group_38142" data-name="Group 38142">
          <path id="Path_7" data-name="Path 7" d="M350.49,359.582h2.837L342.347,386.56l-7.239-20.553-7.3,20.718-11.047-27.144H319.6l8.12,20.162,7.326-20.793,7.324,20.793Z" transform="translate(0 -11.146)" fill="#0d1319"/>
          <path id="Path_8" data-name="Path 8" d="M372.51,367.7h2.521v18.913H372.51v-3.349a8.522,8.522,0,0,1-7.251,3.665,9.772,9.772,0,1,1,0-19.544,8.522,8.522,0,0,1,7.251,3.664Zm-12.373,14.578a7.229,7.229,0,1,0-2.128-5.121,6.976,6.976,0,0,0,2.128,5.121" transform="translate(-2.555 -11.702)" fill="#0d1319"/>
          <path id="Path_9" data-name="Path 9" d="M381.389,367.08h2.522v-1.971a11.025,11.025,0,0,1,1.025-5.477,3.725,3.725,0,0,1,3.467-1.694,5.905,5.905,0,0,1,2.443.552v2.443a4.527,4.527,0,0,0-2.049-.474,2.055,2.055,0,0,0-1.812.788,4.943,4.943,0,0,0-.551,2.718v3.114h4.412V369.6h-4.412v16.391h-2.523V369.6h-2.522Z" transform="translate(-4.264 -11.079)" fill="#0d1319"/>
          <path id="Path_10" data-name="Path 10" d="M400.026,371.762a6.933,6.933,0,0,1,3.211-3.192,10.621,10.621,0,0,1,4.986-1.182v2.875a6.692,6.692,0,0,0-3.942.158,5.866,5.866,0,0,0-3.093,2.522,8.52,8.52,0,0,0-1.163,4.61v9.063H397.5V367.7h2.522Z" transform="translate(-5.327 -11.702)" fill="#0d1319"/>
          <g id="Group_38140" data-name="Group 38140">
            <path id="Path_11" data-name="Path 11" d="M428.615,367.7h2.522v18.913h-2.522v-3.349a8.516,8.516,0,0,1-7.248,3.665,9.772,9.772,0,1,1,0-19.544,8.516,8.516,0,0,1,7.248,3.664Zm-12.371,14.578a7.229,7.229,0,1,0-2.128-5.121,6.979,6.979,0,0,0,2.128,5.121" transform="translate(-6.257 -11.702)" fill="#0d1319"/>
          </g>
          <path id="Path_12" data-name="Path 12" d="M447.593,366.788q3.98,0,5.811,2.187t1.833,6.481v10.56h-2.522v-11.19q0-5.516-5.043-5.515a6.785,6.785,0,0,0-4.335,1.575,5.006,5.006,0,0,0-1.97,4.1v11.033h-2.522V358.276h2.522v11.742a6.834,6.834,0,0,1,2.561-2.245,7.449,7.449,0,0,1,3.664-.984" transform="translate(-8.055 -11.101)" fill="#0d1319"/>
        </g>
        <g id="Group_38141" data-name="Group 38141">
          <path id="Path_1" data-name="Path 1" d="M472.576,380.99a2.132,2.132,0,0,1,1.376.992,3.105,3.105,0,0,1,.539,1.728,3.306,3.306,0,0,1-1,2.486,3.712,3.712,0,0,1-2.694.967H466.83v-11.49h3.027a5.078,5.078,0,0,1,2.993.778,2.573,2.573,0,0,1,1.095,2.23,2.7,2.7,0,0,1-.4,1.42,2.01,2.01,0,0,1-.966.889m-4.651-4.224v3.83h2.327q2.6,0,2.6-1.916t-2.6-1.915Zm2.6,9.3a3.567,3.567,0,0,0,2.113-.547,1.876,1.876,0,0,0,.76-1.624,1.915,1.915,0,0,0-.76-1.649,3.533,3.533,0,0,0-2.113-.556h-2.6v4.377Z" transform="translate(-9.902 -12.249)" fill="#0d1319"/>
          <path id="Path_6" data-name="Path 6" d="M520.611,380.939a3.012,3.012,0,0,1,1.395-1.385,4.6,4.6,0,0,1,2.163-.513v1.248a2.909,2.909,0,0,0-1.711.069,2.55,2.55,0,0,0-1.341,1.094,3.7,3.7,0,0,0-.505,2v3.933h-1.094v-8.208h1.094Z" transform="translate(-13.378 -12.471)" fill="#0d1319"/>
          <g id="Group_38139" data-name="Group 38139" transform="translate(-80.27 144.581)">
            <path id="Path_40" data-name="Path 40" d="M399.917,241.215a16.826,16.826,0,0,0-2.459-4.587,15.821,15.821,0,0,0-4.87-4.227,16.588,16.588,0,0,0-6.1-2.025,16.014,16.014,0,0,0-6.432.487,17.664,17.664,0,0,0-5.766,2.844c-4.013,2.828-6.4,6.818-6.8,6.7h0c-.518.623-1.018,1.24-1.49,1.832v-30.4a3.149,3.149,0,0,0-3.177-3.179,2.986,2.986,0,0,0-2.23.923,3.116,3.116,0,0,0-.9,2.256v32.475l-4.14-4.151a8.277,8.277,0,0,0-6.084-2.512,8.789,8.789,0,0,0-3.324.64,7.825,7.825,0,0,0-2.76,1.871l-4.091,4.1V225.3a3.06,3.06,0,0,0-.929-2.255,3.261,3.261,0,0,0-4.547,0,3.06,3.06,0,0,0-.93,2.255v26.6a3.151,3.151,0,0,0,3.179,3.177,3.328,3.328,0,0,0,1.845-.564v.052l9.43-9.482a2.865,2.865,0,0,1,2.1-.871,3.014,3.014,0,0,1,2.05.82l9.123,9.174.41.359.052-.052a3,3,0,0,0,1.742.564,3.072,3.072,0,0,0,1.86-.6,7.154,7.154,0,0,0,.606-.582,3.133,3.133,0,0,0,.25-.339c.329-.409.8-.979,1.378-1.663a89.8,89.8,0,0,1,9.547-11.486,9.226,9.226,0,0,1,1.9-1.841.867.867,0,0,1,.106-.082c.064-.047.13-.091.2-.135.03-.021.056-.043.087-.063.047-.03.087-.051.133-.078a10.644,10.644,0,0,1,1.474-.818,10.319,10.319,0,0,1,4.044-.821,9.793,9.793,0,0,1,4.043.871q.818.412,1.559.871a9.365,9.365,0,0,1,1.408,1.076,11,11,0,0,1,2.149,3.051,9.5,9.5,0,0,1,.92,3.611,9.615,9.615,0,0,1-1.792,6.459,9.953,9.953,0,0,1-5.68,4,9.491,9.491,0,0,1-6.6-.44c-.118-.06-.242-.11-.358-.174a8.825,8.825,0,0,1-3.28-2.461,10.4,10.4,0,0,1-2.333-4.816,10.112,10.112,0,0,1-.187-2.3l-.01-.011a27.9,27.9,0,0,0-5.052,6.8,17.55,17.55,0,0,0,1.8,3.2,16.385,16.385,0,0,0,2.824,3.049,16.953,16.953,0,0,0,3.516,2.281,16.608,16.608,0,0,0,16.323-1.281,15.822,15.822,0,0,0,3.1-2.742,16.47,16.47,0,0,0,2.284-3.382,17.658,17.658,0,0,0,1.412-3.819,15.638,15.638,0,0,0,.436-4.1,17.459,17.459,0,0,0-.974-5.1m-19.3,14.958c.168.081.337.163.505.237l-.121-.05c-.132-.055-.256-.126-.385-.187" transform="translate(-1.064 -11.904)" fill="#17005d"/>
            <path id="Path_41" data-name="Path 41" d="M436.175,219.276v-26.07a3.062,3.062,0,0,0-.929-2.255,3.265,3.265,0,0,0-4.547,0,3.06,3.06,0,0,0-.929,2.255v31.941a32.922,32.922,0,0,1,6.406-5.871" transform="translate(-62.948)" fill="#fc0"/>
          </g>
        </g>
      </g>
    </g>
  </g>
</svg>
