<svg xmlns="http://www.w3.org/2000/svg" width="102.038" height="105.956" viewBox="0 0 102.038 105.956">
  <g id="Group_1" data-name="Group 1" transform="translate(-316.761 -190.029)">
    <path id="Path_1" data-name="Path 1" d="M469.852,378.469a1.121,1.121,0,0,1,.724.522,1.633,1.633,0,0,1,.283.909,1.739,1.739,0,0,1-.526,1.308,1.952,1.952,0,0,1-1.417.508H466.83v-6.043h1.592a2.671,2.671,0,0,1,1.574.409,1.353,1.353,0,0,1,.576,1.173,1.422,1.422,0,0,1-.212.747,1.057,1.057,0,0,1-.508.468m-2.446-2.221v2.014h1.224q1.367,0,1.366-1.007t-1.366-1.007Zm1.367,4.892a1.876,1.876,0,0,0,1.111-.288.987.987,0,0,0,.4-.854,1.007,1.007,0,0,0-.4-.867,1.858,1.858,0,0,0-1.111-.292h-1.367v2.3Z" transform="translate(-76.356 -94.457)" fill="#0d1319"/>
    <path id="Path_2" data-name="Path 2" d="M480.638,379.113h.576v4.317h-.576v-.764a1.943,1.943,0,0,1-1.654.836,2.23,2.23,0,1,1,0-4.46,1.943,1.943,0,0,1,1.654.836Zm-2.823,3.327a1.651,1.651,0,1,0-.485-1.169,1.592,1.592,0,0,0,.485,1.169" transform="translate(-81.406 -96.171)" fill="#0d1319"/>
    <path id="Path_3" data-name="Path 3" d="M491.159,383.5h-3.312l2.426-3.741h-2.266v-.576H491.3l-2.425,3.741h2.284Z" transform="translate(-87.05 -96.245)" fill="#0d1319"/>
    <path id="Path_4" data-name="Path 4" d="M500.482,379.113h.576v4.317h-.576v-.764a1.943,1.943,0,0,1-1.655.836,2.23,2.23,0,1,1,0-4.46,1.944,1.944,0,0,1,1.655.836Zm-2.823,3.327a1.65,1.65,0,1,0-.486-1.169,1.591,1.591,0,0,0,.486,1.169" transform="translate(-91.502 -96.171)" fill="#0d1319"/>
    <path id="Path_5" data-name="Path 5" d="M511.575,379.113h.576v4.317h-.576v-.764a1.944,1.944,0,0,1-1.655.836,2.23,2.23,0,1,1,0-4.46,1.944,1.944,0,0,1,1.655.836Zm-2.823,3.327a1.651,1.651,0,1,0-.485-1.169,1.593,1.593,0,0,0,.485,1.169" transform="translate(-97.147 -96.171)" fill="#0d1319"/>
    <path id="Path_6" data-name="Path 6" d="M520.092,380.039a1.584,1.584,0,0,1,.733-.728,2.422,2.422,0,0,1,1.138-.27v.656a1.53,1.53,0,0,0-.9.036,1.341,1.341,0,0,0-.705.575,1.946,1.946,0,0,0-.266,1.052v2.068h-.575v-4.317h.575Z" transform="translate(-103.164 -96.171)" fill="#0d1319"/>
    <path id="Path_7" data-name="Path 7" d="M334.5,359.283h1.492l-5.774,14.188-3.807-10.809-3.838,10.9-5.81-14.275h1.492l4.27,10.6,3.853-10.935,3.851,10.935Z" transform="translate(0 -85.949)" fill="#0d1319"/>
    <path id="Path_8" data-name="Path 8" d="M364.44,367.554h1.326V377.5H364.44v-1.761a4.482,4.482,0,0,1-3.813,1.927,5.139,5.139,0,1,1,0-10.278,4.481,4.481,0,0,1,3.813,1.927Zm-6.507,7.667a3.8,3.8,0,1,0-1.119-2.693,3.668,3.668,0,0,0,1.119,2.693" transform="translate(-19.704 -90.242)" fill="#0d1319"/>
    <path id="Path_9" data-name="Path 9" d="M381.389,362.746h1.326v-1.036a5.8,5.8,0,0,1,.539-2.88,1.959,1.959,0,0,1,1.823-.891,3.105,3.105,0,0,1,1.285.29v1.285a2.381,2.381,0,0,0-1.078-.249,1.081,1.081,0,0,0-.953.415,2.6,2.6,0,0,0-.29,1.429v1.638h2.32v1.326h-2.32v8.62h-1.327v-8.62h-1.326Z" transform="translate(-32.883 -85.433)" fill="#0d1319"/>
    <path id="Path_10" data-name="Path 10" d="M398.83,369.689a3.646,3.646,0,0,1,1.689-1.678,5.585,5.585,0,0,1,2.622-.621V368.9a3.52,3.52,0,0,0-2.073.083,3.085,3.085,0,0,0-1.626,1.326,4.48,4.48,0,0,0-.612,2.425V377.5H397.5v-9.946h1.326Z" transform="translate(-41.083 -90.242)" fill="#0d1319"/>
    <path id="Path_11" data-name="Path 11" d="M420.546,367.554h1.326V377.5h-1.326v-1.761a4.479,4.479,0,0,1-3.812,1.927,5.139,5.139,0,1,1,0-10.278,4.478,4.478,0,0,1,3.812,1.927Zm-6.506,7.667a3.8,3.8,0,1,0-1.119-2.693,3.67,3.67,0,0,0,1.119,2.693" transform="translate(-48.252 -90.242)" fill="#0d1319"/>
    <path id="Path_12" data-name="Path 12" d="M443.446,362.752a3.768,3.768,0,0,1,3.056,1.15,5.192,5.192,0,0,1,.964,3.408v5.553H446.14v-5.885q0-2.9-2.652-2.9a3.568,3.568,0,0,0-2.28.828,2.633,2.633,0,0,0-1.036,2.155v5.8h-1.326V358.276h1.326v6.175a3.593,3.593,0,0,1,1.347-1.181,3.917,3.917,0,0,1,1.927-.518" transform="translate(-62.118 -85.605)" fill="#0d1319"/>
    <path id="Path_13" data-name="Path 13" d="M330.017,399.808h1.544v.311h-1.174v.953h1.085v.306h-1.085v1.3h-.37Z" transform="translate(-6.745 -106.737)" fill="#0d1319"/>
    <rect id="Rectangle_1" data-name="Rectangle 1" width="0.37" height="2.868" transform="translate(325.662 293.07)" fill="#0d1319"/>
    <path id="Path_14" data-name="Path 14" d="M337.6,402.676v-2.868h.4l.919,1.45a7.994,7.994,0,0,1,.515.932l.009,0c-.034-.384-.043-.732-.043-1.179v-1.2h.349v2.868h-.374l-.911-1.455a8.973,8.973,0,0,1-.536-.957l-.013,0c.021.361.03.706.03,1.183v1.226Z" transform="translate(-10.604 -106.737)" fill="#0d1319"/>
    <path id="Path_15" data-name="Path 15" d="M343.948,399.824a5.323,5.323,0,0,1,.787-.06,1.641,1.641,0,0,1,1.162.358,1.319,1.319,0,0,1,.4,1.03,1.517,1.517,0,0,1-.413,1.115,1.768,1.768,0,0,1-1.268.412,5.9,5.9,0,0,1-.672-.034Zm.37,2.536a2.384,2.384,0,0,0,.374.021,1.1,1.1,0,0,0,1.222-1.217,1.023,1.023,0,0,0-1.162-1.107,2.115,2.115,0,0,0-.434.038Z" transform="translate(-13.833 -106.715)" fill="#0d1319"/>
    <path id="Path_16" data-name="Path 16" d="M352.737,402.676l-.728-2.868h.391l.34,1.45c.085.358.162.715.213.992h.009c.046-.286.136-.626.234-1l.383-1.446h.388l.349,1.455c.081.34.158.68.2.983h.008c.059-.315.14-.634.229-.992l.379-1.446h.379l-.813,2.868h-.387l-.362-1.494a8.614,8.614,0,0,1-.187-.937h-.008a8.853,8.853,0,0,1-.221.937l-.409,1.494Z" transform="translate(-17.934 -106.737)" fill="#0d1319"/>
    <path id="Path_17" data-name="Path 17" d="M360.882,399.808v1.2h1.387v-1.2h.374v2.868h-.374v-1.345h-1.387v1.345h-.37v-2.868Z" transform="translate(-22.26 -106.737)" fill="#0d1319"/>
    <path id="Path_18" data-name="Path 18" d="M367.046,401.774l-.3.9h-.383l.975-2.868h.446l.978,2.868h-.4l-.307-.9Zm.94-.29-.28-.825c-.064-.188-.107-.358-.149-.524h-.008c-.042.17-.089.344-.145.519l-.281.83Z" transform="translate(-25.239 -106.737)" fill="#0d1319"/>
    <path id="Path_19" data-name="Path 19" d="M372.294,400.123h-.872v-.315h2.123v.315h-.876v2.553h-.375Z" transform="translate(-27.811 -106.737)" fill="#0d1319"/>
    <path id="Path_20" data-name="Path 20" d="M379.488,402.676v-1.217l-.906-1.651H379l.4.792c.11.217.2.391.285.591h.008c.081-.187.179-.374.289-.591l.413-.792h.421l-.961,1.646v1.222Z" transform="translate(-31.455 -106.737)" fill="#0d1319"/>
    <path id="Path_21" data-name="Path 21" d="M386.424,401.164a1.343,1.343,0,0,1-1.332,1.51,1.314,1.314,0,0,1-1.289-1.455,1.362,1.362,0,0,1,1.332-1.506,1.306,1.306,0,0,1,1.29,1.451m-2.226.047c0,.613.332,1.162.915,1.162s.919-.54.919-1.192c0-.57-.3-1.166-.915-1.166s-.92.566-.92,1.2" transform="translate(-34.111 -106.689)" fill="#0d1319"/>
    <path id="Path_22" data-name="Path 22" d="M391.13,399.808v1.7c0,.643.285.915.668.915.426,0,.7-.281.7-.915v-1.7h.374v1.672c0,.881-.464,1.242-1.085,1.242-.587,0-1.03-.336-1.03-1.226v-1.689Z" transform="translate(-37.649 -106.737)" fill="#0d1319"/>
    <path id="Path_23" data-name="Path 23" d="M399.74,401.774l-.3.9h-.383l.975-2.868h.447l.978,2.868h-.4l-.306-.9Zm.941-.29-.281-.825c-.064-.188-.107-.358-.149-.524h-.008c-.043.17-.09.344-.145.519l-.281.83Z" transform="translate(-41.874 -106.737)" fill="#0d1319"/>
    <path id="Path_24" data-name="Path 24" d="M405.448,399.823a3.908,3.908,0,0,1,.711-.059,1.175,1.175,0,0,1,.83.234.715.715,0,0,1,.226.545.752.752,0,0,1-.54.732v.013a.714.714,0,0,1,.421.579,4.591,4.591,0,0,0,.222.787h-.383a3.737,3.737,0,0,1-.191-.685c-.085-.4-.238-.545-.575-.558h-.349v1.243h-.37Zm.37,1.307h.379c.4,0,.647-.217.647-.545,0-.37-.268-.531-.659-.535a1.556,1.556,0,0,0-.366.033Z" transform="translate(-45.125 -106.715)" fill="#0d1319"/>
    <path id="Path_25" data-name="Path 25" d="M412.242,401.331h-1.114v1.034h1.242v.311h-1.613v-2.868h1.549v.311h-1.178v.906h1.114Z" transform="translate(-47.825 -106.737)" fill="#0d1319"/>
    <path id="Path_26" data-name="Path 26" d="M418.151,399.808h.37v2.557h1.226v.311h-1.6Z" transform="translate(-51.588 -106.737)" fill="#0d1319"/>
    <path id="Path_27" data-name="Path 27" d="M424.824,401.164a1.343,1.343,0,0,1-1.332,1.51,1.315,1.315,0,0,1-1.289-1.455,1.362,1.362,0,0,1,1.332-1.506,1.306,1.306,0,0,1,1.289,1.451m-2.226.047c0,.613.332,1.162.915,1.162s.92-.54.92-1.192c0-.57-.3-1.166-.915-1.166s-.92.566-.92,1.2" transform="translate(-53.65 -106.689)" fill="#0d1319"/>
    <path id="Path_28" data-name="Path 28" d="M431.439,401.164a1.343,1.343,0,0,1-1.332,1.51,1.315,1.315,0,0,1-1.29-1.455,1.362,1.362,0,0,1,1.332-1.506,1.306,1.306,0,0,1,1.289,1.451m-2.226.047c0,.613.332,1.162.915,1.162s.919-.54.919-1.192c0-.57-.3-1.166-.915-1.166s-.919.566-.919,1.2" transform="translate(-57.015 -106.689)" fill="#0d1319"/>
    <path id="Path_29" data-name="Path 29" d="M435.779,399.808h.371v1.383h.013c.077-.111.153-.213.225-.307l.877-1.077h.46l-1.038,1.217,1.119,1.651h-.438l-.945-1.409-.272.315v1.093h-.371Z" transform="translate(-60.557 -106.737)" fill="#0d1319"/>
    <rect id="Rectangle_2" data-name="Rectangle 2" width="0.37" height="2.868" transform="translate(377.846 293.07)" fill="#0d1319"/>
    <path id="Path_30" data-name="Path 30" d="M443.84,402.676v-2.868h.4l.92,1.45a8.2,8.2,0,0,1,.514.932l.009,0c-.034-.384-.043-.732-.043-1.179v-1.2h.349v2.868h-.375l-.91-1.455a9.056,9.056,0,0,1-.536-.957l-.012,0c.021.361.029.706.029,1.183v1.226Z" transform="translate(-64.659 -106.737)" fill="#0d1319"/>
    <path id="Path_31" data-name="Path 31" d="M452.194,402.517a2.669,2.669,0,0,1-.881.157,1.346,1.346,0,0,1-1.473-1.447,1.439,1.439,0,0,1,1.553-1.48,1.767,1.767,0,0,1,.715.132l-.089.3a1.492,1.492,0,0,0-.634-.123,1.073,1.073,0,0,0-1.154,1.153,1.051,1.051,0,0,0,1.107,1.157,1.218,1.218,0,0,0,.494-.076v-.856h-.583v-.3h.945Z" transform="translate(-67.712 -106.706)" fill="#0d1319"/>
    <path id="Path_32" data-name="Path 32" d="M458.915,399.808h1.545v.311h-1.174v.953h1.085v.306h-1.085v1.3h-.371Z" transform="translate(-72.329 -106.737)" fill="#0d1319"/>
    <path id="Path_33" data-name="Path 33" d="M466.055,401.164a1.343,1.343,0,0,1-1.331,1.51,1.315,1.315,0,0,1-1.29-1.455,1.362,1.362,0,0,1,1.332-1.506,1.305,1.305,0,0,1,1.289,1.451m-2.225.047c0,.613.333,1.162.915,1.162s.92-.54.92-1.192c0-.57-.3-1.166-.916-1.166s-.919.566-.919,1.2" transform="translate(-74.628 -106.689)" fill="#0d1319"/>
    <path id="Path_34" data-name="Path 34" d="M470.395,399.823a3.9,3.9,0,0,1,.711-.059,1.177,1.177,0,0,1,.83.234.717.717,0,0,1,.226.545.753.753,0,0,1-.541.732v.013a.715.715,0,0,1,.421.579,4.654,4.654,0,0,0,.221.787h-.384a3.819,3.819,0,0,1-.191-.685c-.085-.4-.238-.545-.574-.558h-.349v1.243h-.371Zm.371,1.307h.378c.4,0,.647-.217.647-.545,0-.37-.268-.531-.659-.535a1.554,1.554,0,0,0-.366.033Z" transform="translate(-78.17 -106.715)" fill="#0d1319"/>
    <path id="Path_35" data-name="Path 35" d="M480.463,401.164a1.343,1.343,0,0,1-1.332,1.51,1.315,1.315,0,0,1-1.289-1.455,1.362,1.362,0,0,1,1.332-1.506,1.305,1.305,0,0,1,1.289,1.451m-2.226.047c0,.613.333,1.162.915,1.162s.919-.54.919-1.192c0-.57-.3-1.166-.915-1.166s-.919.566-.919,1.2" transform="translate(-81.959 -106.689)" fill="#0d1319"/>
    <path id="Path_36" data-name="Path 36" d="M484.8,402.676v-2.868h.4l.919,1.45a8.19,8.19,0,0,1,.514.932l.009,0c-.034-.384-.043-.732-.043-1.179v-1.2h.349v2.868h-.375l-.911-1.455a9.137,9.137,0,0,1-.536-.957l-.013,0c.021.361.03.706.03,1.183v1.226Z" transform="translate(-85.502 -106.737)" fill="#0d1319"/>
    <path id="Path_37" data-name="Path 37" d="M491.15,399.808h.37v2.557h1.226v.311h-1.6Z" transform="translate(-88.731 -106.737)" fill="#0d1319"/>
    <rect id="Rectangle_3" data-name="Rectangle 3" width="0.371" height="2.868" transform="translate(404.746 293.07)" fill="#0d1319"/>
    <path id="Path_38" data-name="Path 38" d="M498.6,402.676v-2.868h.4l.919,1.45a8.041,8.041,0,0,1,.514.932l.009,0c-.034-.384-.043-.732-.043-1.179v-1.2h.349v2.868h-.374l-.911-1.455a8.964,8.964,0,0,1-.536-.957l-.013,0c.022.361.03.706.03,1.183v1.226Z" transform="translate(-92.524 -106.737)" fill="#0d1319"/>
    <path id="Path_39" data-name="Path 39" d="M506.436,401.331h-1.115v1.034h1.242v.311h-1.613v-2.868H506.5v.311h-1.178v.906h1.115Z" transform="translate(-95.753 -106.737)" fill="#0d1319"/>
    <path id="Path_40" data-name="Path 40" d="M424.036,252.929a22.88,22.88,0,0,0-3.344-6.237,21.514,21.514,0,0,0-6.623-5.748,22.557,22.557,0,0,0-8.292-2.753,21.776,21.776,0,0,0-8.746.662,24.019,24.019,0,0,0-7.841,3.868c-5.457,3.845-8.7,9.271-9.248,9.109h0c-.7.847-1.385,1.686-2.026,2.491V212.986a4.282,4.282,0,0,0-4.32-4.322,4.061,4.061,0,0,0-3.033,1.255,4.237,4.237,0,0,0-1.219,3.067v44.162l-5.63-5.644a11.256,11.256,0,0,0-8.273-3.416,11.952,11.952,0,0,0-4.52.871,10.642,10.642,0,0,0-3.753,2.545l-5.563,5.575V231.293a4.161,4.161,0,0,0-1.264-3.067,4.435,4.435,0,0,0-6.184,0,4.161,4.161,0,0,0-1.264,3.067v36.17a4.285,4.285,0,0,0,4.322,4.32,4.526,4.526,0,0,0,2.509-.767v.071l12.823-12.895a3.9,3.9,0,0,1,2.857-1.184,4.1,4.1,0,0,1,2.788,1.115L370.6,270.6l.557.488.071-.071a4.086,4.086,0,0,0,2.369.767,4.177,4.177,0,0,0,2.529-.809,9.721,9.721,0,0,0,.824-.791,4.273,4.273,0,0,0,.34-.461c.448-.556,1.092-1.332,1.873-2.261a122.113,122.113,0,0,1,12.983-15.62,12.547,12.547,0,0,1,2.584-2.5,1.179,1.179,0,0,1,.144-.111c.086-.063.176-.123.265-.184.041-.028.076-.059.118-.086.063-.041.119-.069.181-.106a14.471,14.471,0,0,1,2.005-1.112,14.032,14.032,0,0,1,5.5-1.116,13.316,13.316,0,0,1,5.5,1.185q1.113.561,2.12,1.185a12.736,12.736,0,0,1,1.915,1.463A14.962,14.962,0,0,1,415.4,254.6a12.92,12.92,0,0,1,1.252,4.911,13.074,13.074,0,0,1-2.436,8.783,13.535,13.535,0,0,1-7.724,5.435,12.907,12.907,0,0,1-8.976-.6c-.161-.082-.329-.15-.487-.237a12,12,0,0,1-4.46-3.346,14.146,14.146,0,0,1-3.172-6.55,13.758,13.758,0,0,1-.254-3.128l-.014-.015c-2.368,2.471-5.381,5.992-6.87,9.247a23.866,23.866,0,0,0,2.446,4.349,22.282,22.282,0,0,0,3.84,4.147,23.057,23.057,0,0,0,4.781,3.1,22.585,22.585,0,0,0,22.2-1.742,21.516,21.516,0,0,0,4.222-3.729,22.4,22.4,0,0,0,3.106-4.6,24.013,24.013,0,0,0,1.921-5.193,21.264,21.264,0,0,0,.593-5.574,23.738,23.738,0,0,0-1.324-6.936M397.791,273.27c.229.111.458.222.687.322l-.164-.068c-.18-.075-.348-.171-.523-.254" transform="translate(-8.208 -9.482)" fill="#17005d"/>
    <path id="Path_41" data-name="Path 41" d="M438.48,229.8V194.35a4.163,4.163,0,0,0-1.264-3.067,4.44,4.44,0,0,0-6.184,0,4.162,4.162,0,0,0-1.264,3.067v43.435c2.2-3.032,6.576-6.42,8.711-7.983" transform="translate(-57.499)" fill="#fc0"/>
  </g>
</svg>
