<svg id="mastercard_1_" data-name="mastercard (1)" xmlns="http://www.w3.org/2000/svg" width="43.523" height="26.114" viewBox="0 0 43.523 26.114">
  <path id="Path_11578" data-name="Path 11578" d="M21.761,123.529a13.057,13.057,0,0,0-8.7-22.729,13.022,13.022,0,1,0,0,26.045,12.644,12.644,0,0,0,8.7-3.316Z" transform="translate(0 -100.8)" fill="#07a9e2"/>
  <path id="Path_11579" data-name="Path 11579" d="M0,113.857a13.032,13.032,0,0,0,13.057,12.988,12.577,12.577,0,0,0,8.7-3.385h0a13.022,13.022,0,0,0-8.7-22.659" transform="translate(0 -100.8)" fill="#009ddd"/>
  <path id="Path_11580" data-name="Path 11580" d="M82.427,104.185a13.032,13.032,0,0,0-8.7-3.385H73.1a16.052,16.052,0,0,0-.069,26.045h.622a12.577,12.577,0,0,0,8.7-3.385,13.055,13.055,0,0,0,.069-19.274Z" transform="translate(-60.666 -100.8)" fill="#0284cc"/>
  <path id="Path_11581" data-name="Path 11581" d="M218.38,100.8a12.874,12.874,0,0,0-8.774,3.385,12.413,12.413,0,0,0-1.313,1.382h2.625a9.872,9.872,0,0,1,.967,1.382h-4.629a13.705,13.705,0,0,0-.76,1.382h6.148a11.518,11.518,0,0,1,.553,1.382h-7.185c-.138.484-.276.9-.415,1.382h8.014a12.1,12.1,0,0,1,.276,2.763A11.871,11.871,0,0,1,213.2,118h-7.185a11.518,11.518,0,0,0,.553,1.382h6.148a8.849,8.849,0,0,1-.76,1.382h-4.629a9.873,9.873,0,0,0,.967,1.382h2.625a12.412,12.412,0,0,1-1.313,1.382,13.209,13.209,0,0,0,8.774,3.385,13.057,13.057,0,0,0,0-26.114Z" transform="translate(-187.846 -100.8)" fill="#ff2957"/>
  <path id="Path_11582" data-name="Path 11582" d="M218.38,100.8h0a12.874,12.874,0,0,0-8.774,3.385,12.413,12.413,0,0,0-1.313,1.382h2.625a9.872,9.872,0,0,1,.967,1.382h-4.629a13.705,13.705,0,0,0-.76,1.382h6.148a11.518,11.518,0,0,1,.553,1.382h-7.185c-.138.484-.276.9-.415,1.382h8.014a12.1,12.1,0,0,1,.276,2.763A11.871,11.871,0,0,1,213.2,118h-7.185a11.518,11.518,0,0,0,.553,1.382h6.148a8.849,8.849,0,0,1-.76,1.382h-4.629a9.873,9.873,0,0,0,.967,1.382h2.625a12.412,12.412,0,0,1-1.313,1.382,13.209,13.209,0,0,0,8.774,3.385,12.973,12.973,0,0,0,12.988-12.988" transform="translate(-187.846 -100.8)" fill="#ed1c2e"/>
  <path id="Path_11583" data-name="Path 11583" d="M252,159.343A13.061,13.061,0,0,0,252,140v19.343Z" transform="translate(-230.239 -136.615)" fill="#0466b5"/>
  <path id="Path_11584" data-name="Path 11584" d="M452,280.415a.415.415,0,1,1,.415.414.446.446,0,0,1-.415-.414Zm.415.345c.207,0,.276-.138.276-.345a.253.253,0,0,0-.276-.276.316.316,0,0,0-.345.276.444.444,0,0,0,.345.345Zm0-.207h-.069v-.345h.207l.069.069c0,.069,0,.069-.069.069l.069.138h-.069l-.069-.138h-.069v.207Zm0-.207h.069v-.069h-.069v.069Z" transform="translate(-412.968 -264.525)" fill="#fff"/>
  <path id="Path_11585" data-name="Path 11585" d="M209.607,105.542a12.412,12.412,0,0,0-1.313,1.382h2.625a9.871,9.871,0,0,1,.967,1.382h-4.629a13.7,13.7,0,0,0-.76,1.382h6.148a11.517,11.517,0,0,1,.553,1.382h-7.185c-.138.484-.276.9-.415,1.382h8.014a12.1,12.1,0,0,1,.276,2.763,11.872,11.872,0,0,1-.691,4.145h-7.185a11.519,11.519,0,0,0,.553,1.382h6.148a8.85,8.85,0,0,1-.76,1.382h-4.629a9.873,9.873,0,0,0,.967,1.382h2.625a12.41,12.41,0,0,1-1.313,1.382,13.209,13.209,0,0,0,8.774,3.385H219a16.033,16.033,0,0,0,0-25.975h-.622A12.444,12.444,0,0,0,209.607,105.542Z" transform="translate(-187.846 -102.157)" fill="#d1094b"/>
  <path id="Path_11586" data-name="Path 11586" d="M57.447,219.432H55.789l.967-5.043-2.211,5.043H53.094l-.276-5.043-.967,5.043H50.4l1.244-6.632H54.2l.138,4.145,1.8-4.145h2.625Z" transform="translate(-46.048 -203.128)" fill="#fff"/>
  <g id="Group_5234" data-name="Group 5234" transform="translate(9.741 9.741)">
    <path id="Path_11587" data-name="Path 11587" d="M112.869,217.261l.967-2.142-.76,4.007a6.467,6.467,0,0,0,.276,1.105h1.105L115.7,213.6h-2.418a13.346,13.346,0,0,0-.484,3.385C112.869,217.054,112.869,217.123,112.869,217.261Z" transform="translate(-112.8 -213.6)" fill="#dce5e5"/>
    <path id="Path_11588" data-name="Path 11588" d="M316.018,220.094a3.832,3.832,0,0,1-1.174.207c-.829,0-1.244-.414-1.244-1.174a1.349,1.349,0,0,1,.069-.484l.069-.553.069-.414.76-4.076h1.589l-.207,1.244h.829l-.207,1.244h-.829l-.414,2.211a.7.7,0,0,1-.069.207c0,.276.207.414.553.414.207,0,.345,0,.414-.069l-.207,1.243Z" transform="translate(-296.26 -213.6)" fill="#dce5e5"/>
    <path id="Path_11589" data-name="Path 11589" d="M352.214,226.538c-.138-.069-.138-.069-.207-.069s-.138,0-.138-.069h-.207c-.553,0-.9.207-1.382.9l.138-.829h-1.451L348,231.858h1.658c.553-3.316.829-3.869,1.589-3.869h.207l.207.069.553-1.52Z" transform="translate(-327.689 -225.295)" fill="#dce5e5"/>
    <path id="Path_11590" data-name="Path 11590" d="M260.622,228.2q0,1.036,1.243,1.451c.691.276.76.345.76.622,0,.345-.276.484-.967.484a5.258,5.258,0,0,1-1.451-.207L260,231.789h.069l.276.069h.414a4.956,4.956,0,0,0,.9.069c1.727,0,2.556-.553,2.556-1.8,0-.76-.345-1.174-1.174-1.52-.691-.276-.76-.345-.76-.553q0-.414.829-.414a7.532,7.532,0,0,1,1.174.069l.207-1.243a10.2,10.2,0,0,0-1.451-.069c-1.8,0-2.418.829-2.418,1.8Z" transform="translate(-247.289 -225.295)" fill="#dce5e5"/>
    <path id="Path_11591" data-name="Path 11591" d="M145.29,231.127h-1.313v-.553a2.3,2.3,0,0,1-1.727.622,1.378,1.378,0,0,1-1.451-1.451c0-1.313,1.036-2.073,2.832-2.073h.691a.924.924,0,0,0,.069-.345c0-.345-.276-.484-1.036-.484a6.959,6.959,0,0,0-1.313.138l-.207.069H141.7l.207-1.174a7.212,7.212,0,0,1,1.934-.276c1.382,0,2.142.553,2.142,1.589a4.15,4.15,0,0,1-.138,1.105l-.345,1.934-.069.345-.069.276v.207l-.069.069Zm-1.174-2.418h-.345c-.9,0-1.382.276-1.382.829a.508.508,0,0,0,.553.553,1.226,1.226,0,0,0,1.174-1.382Z" transform="translate(-138.382 -224.564)" fill="#dce5e5"/>
    <path id="Path_11592" data-name="Path 11592" d="M207.621,230.989a6.813,6.813,0,0,1-1.658.207c-1.8,0-2.763-.829-2.763-2.418a2.9,2.9,0,0,1,2.832-3.178,1.911,1.911,0,0,1,2.142,1.934,5.1,5.1,0,0,1-.207,1.313H204.72v.207c0,.622.484.967,1.382.967a3.413,3.413,0,0,0,1.658-.345l-.138,1.313Zm-.829-3.178v-.276a.674.674,0,0,0-.76-.691,1.094,1.094,0,0,0-1.036.967Z" transform="translate(-195.394 -224.564)" fill="#dce5e5"/>
  </g>
  <g id="Group_5235" data-name="Group 5235" transform="translate(33.575 10.777)">
    <path id="Path_11593" data-name="Path 11593" d="M394.534,228.709a2.872,2.872,0,0,1-3.178,2.556,2.305,2.305,0,0,1-2.556-2.487,3.009,3.009,0,0,1,3.178-3.178,2.359,2.359,0,0,1,2.556,2.418v.691Zm-1.727-.691c0-.553-.207-1.036-.9-1.036-.829,0-1.313.967-1.313,1.865,0,.691.345,1.174.9,1.174a1.6,1.6,0,0,0,1.243-1.313,2.591,2.591,0,0,0,.069-.691Z" transform="translate(-388.8 -225.6)" fill="#fff"/>
    <path id="Path_11594" data-name="Path 11594" d="M389.052,252.058a11.29,11.29,0,0,0,.138-1.52V250.4a5.37,5.37,0,0,0-.138,1.105A.757.757,0,0,0,389.052,252.058Z" transform="translate(-388.983 -248.258)" fill="#fff"/>
  </g>
</svg>
