<svg xmlns="http://www.w3.org/2000/svg" width="42.003" height="25.202" viewBox="0 0 42.003 25.202">
  <g id="mastercard" transform="translate(0 -100.8)">
    <path id="Path_11552" data-name="Path 11552" d="M226.8,113.4a12.6,12.6,0,0,1-25.2,0h0a12.6,12.6,0,1,1,25.2,0Z" transform="translate(-184.799 0)" fill="#ffb600"/>
    <path id="Path_11553" data-name="Path 11553" d="M214.2,100.8a12.634,12.634,0,0,1,12.6,12.6h0a12.6,12.6,0,0,1-25.2,0" transform="translate(-184.799)" fill="#f7981d"/>
    <path id="Path_11554" data-name="Path 11554" d="M352.8,100.8a12.634,12.634,0,0,1,12.6,12.6h0A12.591,12.591,0,0,1,352.8,126" transform="translate(-323.398)" fill="#ff8500"/>
    <path id="Path_11555" data-name="Path 11555" d="M12.468,100.8A12.6,12.6,0,0,0,12.6,126a12.748,12.748,0,0,0,8.467-3.267h0a11.981,11.981,0,0,0,1.267-1.333h-2.6a15.378,15.378,0,0,1-.933-1.267h4.467A8.54,8.54,0,0,0,24,118.8H18.068a7.946,7.946,0,0,1-.533-1.333h6.934a13.239,13.239,0,0,0,.667-4,17.209,17.209,0,0,0-.267-2.667H17.135a9.748,9.748,0,0,1,.333-1.333H24.4a7.946,7.946,0,0,0-.533-1.333H18a13.222,13.222,0,0,1,.733-1.333H23.2a6.34,6.34,0,0,0-1-1.333H19.735A11.364,11.364,0,0,1,21,104.2a12.3,12.3,0,0,0-8.467-3.267C12.534,100.8,12.534,100.8,12.468,100.8Z" fill="#ff5050"/>
    <path id="Path_11556" data-name="Path 11556" d="M0,114.868a12.591,12.591,0,0,0,12.6,12.6,12.748,12.748,0,0,0,8.467-3.267h0a11.982,11.982,0,0,0,1.267-1.333h-2.6A15.381,15.381,0,0,1,18.8,121.6h4.467A8.54,8.54,0,0,0,24,120.268H18.068a7.946,7.946,0,0,1-.533-1.333h6.934a13.239,13.239,0,0,0,.667-4,17.209,17.209,0,0,0-.267-2.667H17.135a9.748,9.748,0,0,1,.333-1.333H24.4a7.947,7.947,0,0,0-.533-1.333H18a13.223,13.223,0,0,1,.733-1.333H23.2a6.341,6.341,0,0,0-1-1.333H19.735A11.365,11.365,0,0,1,21,105.667a12.3,12.3,0,0,0-8.467-3.267h-.067" transform="translate(0 -1.467)" fill="#e52836"/>
    <path id="Path_11557" data-name="Path 11557" d="M149.733,127.469A12.748,12.748,0,0,0,158.2,124.2h0a11.981,11.981,0,0,0,1.267-1.333h-2.6a15.382,15.382,0,0,1-.933-1.267H160.4a8.54,8.54,0,0,0,.733-1.333H155.2a7.946,7.946,0,0,1-.533-1.333H161.6a13.238,13.238,0,0,0,.667-4,17.209,17.209,0,0,0-.267-2.667h-7.734a9.744,9.744,0,0,1,.333-1.333h6.934A7.948,7.948,0,0,0,161,109.6h-5.867a13.227,13.227,0,0,1,.733-1.333h4.467a6.341,6.341,0,0,0-1-1.333h-2.467a11.364,11.364,0,0,1,1.267-1.267,12.3,12.3,0,0,0-8.467-3.267H149.6" transform="translate(-137.132 -1.467)" fill="#cb2026"/>
    <g id="Group_5232" data-name="Group 5232" transform="translate(1.2 110.134)">
      <path id="Path_11558" data-name="Path 11558" d="M183.533,225.867l.2-1.133a2.888,2.888,0,0,1-.333.067c-.467,0-.533-.267-.467-.4l.4-2.334h.733l.2-1.267H183.6l.133-.8H182.4s-.8,4.4-.8,4.934a1,1,0,0,0,1.067,1.133A2.047,2.047,0,0,0,183.533,225.867Z" transform="translate(-167.666 -219.4)" fill="#fff"/>
      <path id="Path_11559" data-name="Path 11559" d="M210.4,231.707a2.121,2.121,0,0,0,2.334,2.334,3.461,3.461,0,0,0,1.4-.2l.267-1.267a4,4,0,0,1-1.4.333c-1.467,0-1.2-1.067-1.2-1.067h2.734a8.644,8.644,0,0,0,.2-1.2,1.806,1.806,0,0,0-1.933-1.933C211.4,228.574,210.4,230.041,210.4,231.707Zm2.334-1.933c.733,0,.6.867.6.933h-1.467C211.867,230.641,212,229.774,212.734,229.774Z" transform="translate(-194.065 -227.374)" fill="#fff"/>
      <path id="Path_11560" data-name="Path 11560" d="M299.667,219.267l.267-1.467a3.277,3.277,0,0,1-1.133.333c-.933,0-1.333-.733-1.333-1.533,0-1.6.8-2.467,1.733-2.467a2.226,2.226,0,0,1,1.2.4l.2-1.4a4.688,4.688,0,0,0-1.533-.333c-1.533,0-3.067,1.333-3.067,3.867,0,1.667.8,2.8,2.4,2.8A5.984,5.984,0,0,0,299.667,219.267Z" transform="translate(-272.532 -212.8)" fill="#fff"/>
      <path id="Path_11561" data-name="Path 11561" d="M88.934,227.2a4.722,4.722,0,0,0-1.6.267l-.2,1.133a3.941,3.941,0,0,1,1.467-.267c.467,0,.867.067.867.467,0,.267-.067.333-.067.333h-.6c-1.133,0-2.4.467-2.4,2,0,1.2.8,1.467,1.267,1.467a2,2,0,0,0,1.4-.6l-.067.533h1.2l.533-3.667A1.58,1.58,0,0,0,88.934,227.2Zm.267,3c0,.2-.133,1.267-.933,1.267a.52.52,0,0,1-.533-.533c0-.333.2-.8,1.2-.8A1.051,1.051,0,0,0,89.2,230.2Z" transform="translate(-80.4 -226)" fill="#fff"/>
      <path id="Path_11562" data-name="Path 11562" d="M136.733,231.867a1.709,1.709,0,0,0,2-1.733c0-1.667-1.6-1.333-1.6-2,0-.333.267-.467.733-.467.2,0,.933.067.933.067l.2-1.2a5.065,5.065,0,0,0-1.267-.133c-1,0-2,.4-2,1.733,0,1.533,1.667,1.4,1.667,2,0,.4-.467.467-.8.467a4.36,4.36,0,0,1-1.2-.2l-.2,1.2C135.267,231.734,135.6,231.867,136.733,231.867Z" transform="translate(-125.133 -225.267)" fill="#fff"/>
      <path id="Path_11563" data-name="Path 11563" d="M431,214.4l-.267,1.8a1.849,1.849,0,0,0-1.267-.667c-1.2,0-2.267,1.467-2.267,3.2,0,1.067.533,2.2,1.667,2.2a1.78,1.78,0,0,0,1.267-.533l-.067.467H431.4l1-6.4Zm-.6,3.534c0,.733-.333,1.667-1.067,1.667-.467,0-.733-.4-.733-1.067,0-1.067.467-1.733,1.067-1.733C430.134,216.8,430.4,217.134,430.4,217.934Z" transform="translate(-392.797 -214.267)" fill="#fff"/>
      <path id="Path_11564" data-name="Path 11564" d="M15.667,220.8l.8-4.8.133,4.8h.933l1.733-4.8-.733,4.8h1.4L21,214.4H18.8l-1.333,3.934L17.4,214.4H15.467L14.4,220.8Z" transform="translate(-14.4 -214.267)" fill="#fff"/>
      <path id="Path_11565" data-name="Path 11565" d="M261.467,234c.4-2.2.467-4,1.4-3.667a5.233,5.233,0,0,1,.467-1.533h-.267c-.6,0-1.067.8-1.067.8l.133-.733h-1.267l-.867,5.2h1.467Z" transform="translate(-239.532 -227.467)" fill="#fff"/>
      <path id="Path_11566" data-name="Path 11566" d="M348.934,227.2a4.722,4.722,0,0,0-1.6.267l-.2,1.133a3.941,3.941,0,0,1,1.467-.267c.467,0,.867.067.867.467,0,.267-.067.333-.067.333h-.6c-1.133,0-2.4.467-2.4,2,0,1.2.8,1.467,1.267,1.467a2,2,0,0,0,1.4-.6l-.067.533h1.2l.533-3.667A1.557,1.557,0,0,0,348.934,227.2Zm.333,3c0,.2-.133,1.267-.933,1.267a.52.52,0,0,1-.533-.533c0-.333.2-.8,1.2-.8C349.2,230.2,349.2,230.2,349.267,230.2Z" transform="translate(-318.731 -226)" fill="#fff"/>
      <path id="Path_11567" data-name="Path 11567" d="M395.867,234c.4-2.2.467-4,1.4-3.667a5.232,5.232,0,0,1,.467-1.533h-.267c-.6,0-1.067.8-1.067.8l.133-.733h-1.267l-.867,5.2h1.467Z" transform="translate(-362.731 -227.467)" fill="#fff"/>
    </g>
    <g id="Group_5233" data-name="Group 5233" transform="translate(1.2 110.134)">
      <path id="Path_11568" data-name="Path 11568" d="M180,224.934a1,1,0,0,0,1.067,1.133,2.538,2.538,0,0,0,1-.2l.2-1.133a2.888,2.888,0,0,1-.333.067c-.467,0-.533-.267-.467-.4l.4-2.334h.733l.2-1.267h-.667l.133-.8" transform="translate(-166.199 -219.4)" fill="#dce5e5"/>
      <path id="Path_11569" data-name="Path 11569" d="M218.4,231.707c0,1.867.6,2.334,1.667,2.334a3.461,3.461,0,0,0,1.4-.2l.267-1.267a4,4,0,0,1-1.4.333c-1.467,0-1.2-1.067-1.2-1.067h2.734a8.643,8.643,0,0,0,.2-1.2,1.806,1.806,0,0,0-1.934-1.933C218.733,228.574,218.4,230.041,218.4,231.707Zm1.667-1.933c.733,0,.867.867.867.933H219.2C219.2,230.641,219.333,229.774,220.067,229.774Z" transform="translate(-201.399 -227.374)" fill="#dce5e5"/>
      <path id="Path_11570" data-name="Path 11570" d="M307,219.267l.267-1.467a3.277,3.277,0,0,1-1.133.333c-.933,0-1.333-.733-1.333-1.533,0-1.6.8-2.467,1.733-2.467a2.226,2.226,0,0,1,1.2.4l.2-1.4a4.688,4.688,0,0,0-1.533-.333c-1.533,0-2.4,1.333-2.4,3.867,0,1.667.133,2.8,1.733,2.8A5.984,5.984,0,0,0,307,219.267Z" transform="translate(-279.865 -212.8)" fill="#dce5e5"/>
      <path id="Path_11571" data-name="Path 11571" d="M87.133,230.133a3.941,3.941,0,0,1,1.467-.267c.467,0,.867.067.867.467,0,.267-.067.333-.067.333h-.6c-1.133,0-2.4.467-2.4,2,0,1.2.8,1.467,1.267,1.467a2,2,0,0,0,1.4-.6l-.067.533h1.2l.533-3.667c0-1.533-1.333-1.6-1.867-1.6m1,2.867a2.183,2.183,0,0,1-1.6,1.267.52.52,0,0,1-.533-.533c0-.333.2-.8,1.2-.8A5.448,5.448,0,0,0,89.867,231.667Z" transform="translate(-80.4 -227.467)" fill="#dce5e5"/>
      <path id="Path_11572" data-name="Path 11572" d="M136,231.734a5.643,5.643,0,0,0,1.533.133,1.709,1.709,0,0,0,2-1.733c0-1.667-1.6-1.333-1.6-2,0-.333.267-.467.733-.467.2,0,.933.067.933.067l.2-1.2a5.065,5.065,0,0,0-1.267-.133c-1,0-1.333.4-1.333,1.733,0,1.533,1,1.4,1,2,0,.4-.467.467-.8.467" transform="translate(-125.866 -225.267)" fill="#dce5e5"/>
      <path id="Path_11573" data-name="Path 11573" d="M438.014,216.933a1.849,1.849,0,0,0-1.267-.667c-1.2,0-1.6,1.467-1.6,3.2,0,1.067-.133,2.2,1,2.2a1.78,1.78,0,0,0,1.267-.533l-.067.467h1.333l1-6.4m-1.733,3.467c0,.733-.6,1.667-1.333,1.667-.467,0-.733-.4-.733-1.067,0-1.067.467-1.733,1.067-1.733A1.019,1.019,0,0,1,437.947,218.667Z" transform="translate(-400.077 -215)" fill="#dce5e5"/>
      <path id="Path_11574" data-name="Path 11574" d="M15.667,220.8l.8-4.8.133,4.8h.933l1.733-4.8-.733,4.8h1.4L21,214.4H19.334l-1.867,3.934L17.4,214.4h-.733L14.4,220.8Z" transform="translate(-14.4 -214.267)" fill="#dce5e5"/>
      <path id="Path_11575" data-name="Path 11575" d="M260.8,234h1.4c.4-2.2.467-4,1.4-3.667a5.233,5.233,0,0,1,.467-1.533H263.8c-.6,0-1.067.8-1.067.8l.133-.733" transform="translate(-240.265 -227.467)" fill="#dce5e5"/>
      <path id="Path_11576" data-name="Path 11576" d="M347.133,230.133a3.941,3.941,0,0,1,1.467-.267c.467,0,.867.067.867.467,0,.267-.067.333-.067.333h-.6c-1.133,0-2.4.467-2.4,2,0,1.2.8,1.467,1.267,1.467a2,2,0,0,0,1.4-.6l-.067.533h1.2l.533-3.667c0-1.533-1.333-1.6-1.867-1.6m1,2.867a2.183,2.183,0,0,1-1.6,1.267.52.52,0,0,1-.533-.533c0-.333.2-.8,1.2-.8A5.866,5.866,0,0,0,349.867,231.667Z" transform="translate(-318.731 -227.467)" fill="#dce5e5"/>
      <path id="Path_11577" data-name="Path 11577" d="M395.2,234h1.4c.4-2.2.467-4,1.4-3.667a5.233,5.233,0,0,1,.467-1.533H398.2c-.6,0-1.067.8-1.067.8l.133-.733" transform="translate(-363.464 -227.467)" fill="#dce5e5"/>
    </g>
  </g>
</svg>
