<svg xmlns="http://www.w3.org/2000/svg" width="34.133" height="10" viewBox="0 0 34.133 10">
  <g id="Group_38107" data-name="Group 38107" transform="translate(638.809 -271.5)">
    <path id="Path_44004" data-name="Path 44004" d="M-605.676,271.5h-3.067l-1,2-1-2h-2l-1,2-1-2h-2l-1,2-1-2h-2l-1,2-1-2h-2l-1,2-1-2h-2l-1,2-1-2h-2l-1,2-1-2h-3.067a1,1,0,0,0-1,1v8a1,1,0,0,0,1,1h32.133a1,1,0,0,0,1-1v-8A1,1,0,0,0-605.676,271.5Z" fill="#17005d"/>
    <path id="Path_44005" data-name="Path 44005" d="M-577.809,274.5a1,1,0,0,0,1,1,1,1,0,0,0,1-1v-3h-2Z" transform="translate(-56.933)" fill="#fc0"/>
    <path id="Path_44006" data-name="Path 44006" d="M-517.809,276.5a1,1,0,0,0,1,1,1,1,0,0,0,1-1v-5h-2Z" transform="translate(-112.933)" fill="#fc0"/>
    <path id="Path_44007" data-name="Path 44007" d="M-457.809,274.5a1,1,0,0,0,1,1,1,1,0,0,0,1-1v-3h-2Z" transform="translate(-168.933)" fill="#fc0"/>
    <path id="Path_44008" data-name="Path 44008" d="M-397.809,276.5a1,1,0,0,0,1,1,1,1,0,0,0,1-1v-5h-2Z" transform="translate(-224.933)" fill="#fc0"/>
    <path id="Path_44009" data-name="Path 44009" d="M-337.809,274.5a1,1,0,0,0,1,1,1,1,0,0,0,1-1v-3h-2Z" transform="translate(-280.933)" fill="#fc0"/>
    <path id="Path_44010" data-name="Path 44010" d="M-277.809,276.5a1,1,0,0,0,1,1,1,1,0,0,0,1-1v-5h-2Z" transform="translate(-336.933)" fill="#fc0"/>
    <path id="Path_44011" data-name="Path 44011" d="M-217.809,271.5v3a1,1,0,0,0,1,1,1,1,0,0,0,1-1v-3Z" transform="translate(-392.933)" fill="#fc0"/>
  </g>
</svg>
