<svg xmlns="http://www.w3.org/2000/svg" xmlns:xlink="http://www.w3.org/1999/xlink" width="149.205" height="122.608" viewBox="0 0 149.205 122.608">
  <defs>
    <linearGradient id="linear-gradient" x1="0.085" y1="1.113" x2="1.067" y2="0.07" gradientUnits="objectBoundingBox">
      <stop offset="0" stop-color="#fff"/>
      <stop offset="1" stop-color="#e8efee"/>
    </linearGradient>
    <linearGradient id="linear-gradient-2" x1="0.936" y1="-8.083" x2="-0.054" y2="-9.223" gradientUnits="objectBoundingBox">
      <stop offset="0" stop-color="#c2cece" stop-opacity="0"/>
      <stop offset="0.179" stop-color="#afbcbc" stop-opacity="0.18"/>
      <stop offset="1" stop-color="#5b6a6a"/>
    </linearGradient>
    <linearGradient id="linear-gradient-3" x1="0.771" y1="0.781" x2="-0.083" y2="1.568" xlink:href="#linear-gradient-2"/>
    <linearGradient id="linear-gradient-4" x1="0.463" y1="0.122" x2="0.463" y2="-0.454" gradientUnits="objectBoundingBox">
      <stop offset="0" stop-color="#ffc200"/>
      <stop offset="0.268" stop-color="#fb0"/>
      <stop offset="0.659" stop-color="#ffa801"/>
      <stop offset="1" stop-color="#ff9102"/>
    </linearGradient>
    <linearGradient id="linear-gradient-5" x1="0.462" y1="-0.977" x2="0.462" y2="-1.276" xlink:href="#linear-gradient-4"/>
    <linearGradient id="linear-gradient-6" x1="0.223" y1="0.976" x2="-0.501" y2="1.746" xlink:href="#linear-gradient-2"/>
  </defs>
  <g id="Group_28413" data-name="Group 28413" transform="translate(-102.882 -128.498)">
    <g id="Group_22868" data-name="Group 22868" transform="translate(-5.118 22.582)">
      <g id="Group_6802" data-name="Group 6802" transform="translate(108 105.916)">
        <g id="Group_5030" data-name="Group 5030" transform="translate(0 0)">
          <path id="Path_11377" data-name="Path 11377" d="M264.648,404.242Z" transform="translate(-202.151 -288.921)" fill="#473a51"/>
          <ellipse id="Ellipse_665" data-name="Ellipse 665" cx="4.105" cy="1.179" rx="4.105" ry="1.179" transform="translate(9.932 116.94)" fill="#e8e8f7"/>
          <ellipse id="Ellipse_666" data-name="Ellipse 666" cx="5.363" cy="1.205" rx="5.363" ry="1.205" transform="translate(102.629 114.53)" fill="#e8e8f7"/>
          <path id="Path_11386" data-name="Path 11386" d="M343.776,424.945c0,.219-.771.4-1.721.4s-1.722-.178-1.722-.4.771-.4,1.722-.4S343.776,424.726,343.776,424.945Z" transform="translate(-247.768 -302.735)" fill="#e8e8f7"/>
          <ellipse id="Ellipse_667" data-name="Ellipse 667" cx="1.986" cy="0.404" rx="1.986" ry="0.404" transform="translate(4.767 109.365)" fill="#e8e8f7"/>
          <path id="Path_11387" data-name="Path 11387" d="M110.644,415.837c0,.325-.741.589-1.655.589s-1.655-.264-1.655-.589.741-.589,1.655-.589S110.644,415.512,110.644,415.837Z" transform="translate(-107.333 -297.129)" fill="#e8e8f7"/>
          <g id="Group_6823" data-name="Group 6823" transform="translate(25.776)">
            <g id="Group_6811" data-name="Group 6811" transform="translate(0 0)">
              <g id="Group_6805" data-name="Group 6805" transform="translate(0 79.355)">
                <path id="Path_12592" data-name="Path 12592" d="M665.384,340.588v9.188l-21.791-.919-13.8,26.593h31.767l4.613-11.235s23.1-5.12,23.1-28.617l-24.559-.006A19.223,19.223,0,0,1,665.384,340.588Z" transform="translate(-629.791 -335.593)" fill="#feb2a0"/>
                <path id="Path_12593" data-name="Path 12593" d="M751.775,335.611c0,28.795-31.862,29.827-31.862,29.827" transform="translate(-692.291 -335.605)" fill="none" stroke="#d39184" stroke-miterlimit="10" stroke-width="1"/>
                <line id="Line_480" data-name="Line 480" x1="1.981" y2="4.825" transform="translate(34.052 29.832)" fill="none" stroke="#d39184" stroke-miterlimit="10" stroke-width="1"/>
                <line id="Line_481" data-name="Line 481" y1="26.593" x2="13.802" transform="translate(0 13.264)" fill="none" stroke="#d39184" stroke-miterlimit="10" stroke-width="1"/>
              </g>
              <g id="Group_6806" data-name="Group 6806" transform="translate(50.172 27.805)">
                <path id="Path_12594" data-name="Path 12594" d="M815.366,168.947a4.95,4.95,0,0,0-6.976-.211l-13.354,12.57a4.935,4.935,0,0,0,6.764,7.187l13.354-12.569A4.949,4.949,0,0,0,815.366,168.947Z" transform="translate(-793.49 -167.401)" fill="#feb2a0"/>
                <line id="Line_482" data-name="Line 482" y1="12.569" x2="13.354" transform="translate(1.547 1.301)" fill="none" stroke="#d39184" stroke-miterlimit="10" stroke-width="1"/>
              </g>
              <path id="Path_16025" data-name="Path 16025" d="M3.837,0H37.4a3.837,3.837,0,0,1,3.837,3.837V83.685A3.837,3.837,0,0,1,37.4,87.522H3.837A3.837,3.837,0,0,1,0,83.685V3.837A3.837,3.837,0,0,1,3.837,0Z" transform="translate(21.483 0)" fill="#17005d"/>
              <path id="Path_16024" data-name="Path 16024" d="M2.3,0H35.931a2.3,2.3,0,0,1,2.3,2.3V75.289a2.3,2.3,0,0,1-2.3,2.3H2.3a2.3,2.3,0,0,1-2.3-2.3V2.3A2.3,2.3,0,0,1,2.3,0Z" transform="translate(22.984 8.37)" fill="#cb6d94"/>
              <path id="Path_12595" data-name="Path 12595" d="M817.844,236.56" transform="translate(-760.207 -187.558)" fill="none" stroke="#0a5b4c" stroke-miterlimit="10" stroke-width="2.194"/>
              <path id="Path_12596" data-name="Path 12596" d="M857.6,179.286" transform="translate(-787.776 -147.838)" fill="none" stroke="#0a5b4c" stroke-miterlimit="10" stroke-width="2.194"/>
              <g id="Group_6808" data-name="Group 6808" transform="translate(36.664 3.72)" opacity="0.53">
                <path id="Path_12597" data-name="Path 12597" d="M717.757,96.773a.445.445,0,1,1-.445-.445A.445.445,0,0,1,717.757,96.773Z" transform="translate(-716.867 -96.328)" fill="#0a5b4c" stroke="#fff" stroke-linecap="round" stroke-miterlimit="10" stroke-width="2.194"/>
                <g id="Group_6807" data-name="Group 6807" transform="translate(2.918 0.563)">
                  <line id="Line_483" data-name="Line 483" x2="7.363" fill="none" stroke="#fff" stroke-linecap="round" stroke-miterlimit="10" stroke-width="2.194"/>
                </g>
              </g>
              <g id="Group_6809" data-name="Group 6809" transform="translate(13.51 42.736)">
                <path id="Union_1" data-name="Union 1" d="M.292,49.881s-.072-.888-.142-2.549l15.213-8.5h0L.149,47.333C0,43.926-.149,37.226.292,27.959.948,14.176,19.457,0,19.457,0A9.288,9.288,0,0,1,21.143,11.01a12.27,12.27,0,0,1-1.414,2.137L14.6,19.557v6.827c.265.2.511.425.764.643a19.222,19.222,0,0,1,6.051,9.591h0a19.215,19.215,0,0,1,.668,5V50.8L1.088,51Z" transform="translate(0 0.001)" fill="#feb2a0" stroke="rgba(0,0,0,0)" stroke-width="1"/>
                <path id="Path_12601" data-name="Path 12601" d="M719.73,223.858l2.414-2.674-1.283-1.68c-1.229,1.025-3.219,2.761-5.438,5A3.435,3.435,0,0,0,719.73,223.858Z" transform="translate(-702.688 -218.465)" fill="#ffcdbf"/>
                <line id="Line_484" data-name="Line 484" y2="9.188" transform="translate(22.083 41.614)" fill="none" stroke="#d39184" stroke-miterlimit="10" stroke-width="1"/>
                <path id="Path_12602" data-name="Path 12602" d="M673.943,252.734c.036-2.561.117-5.457.269-8.658.656-13.783,19.166-27.961,19.166-27.961" transform="translate(-673.921 -216.115)" fill="none" stroke="#d39184" stroke-miterlimit="10" stroke-width="1"/>
              </g>
              <g id="Group_6810" data-name="Group 6810" transform="translate(54.461 50.232)">
                <path id="Path_12603" data-name="Path 12603" d="M815.123,240.573h-3.142a4.5,4.5,0,0,0,0,9h3.142a4.5,4.5,0,1,0,0-9Z" transform="translate(-807.482 -240.573)" fill="#feb2a0"/>
                <path id="Path_12604" data-name="Path 12604" d="M815.123,277.008h-3.142a4.5,4.5,0,1,0,0,9h3.142a4.5,4.5,0,1,0,0-9Z" transform="translate(-807.482 -265.841)" fill="#feb2a0"/>
                <path id="Path_12605" data-name="Path 12605" d="M822.233,313.442a4.513,4.513,0,0,0-4.5,4.5h0a4.5,4.5,0,1,0,9,0h0A4.513,4.513,0,0,0,822.233,313.442Z" transform="translate(-814.592 -291.108)" fill="#feb2a0"/>
                <path id="Path_12606" data-name="Path 12606" d="M820.565,245.177c-.088,0-.17.018-.256.026a7.1,7.1,0,0,1,0,5.567c.086.008.168.026.256.026a2.809,2.809,0,0,0,0-5.619Z" transform="translate(-816.378 -243.766)" fill="#ffcdbf"/>
                <path id="Path_12607" data-name="Path 12607" d="M820.565,280.994c-.088,0-.17.018-.256.026a7.1,7.1,0,0,1,0,5.567c.086.008.168.026.256.026a2.809,2.809,0,1,0,0-5.619Z" transform="translate(-816.378 -268.605)" fill="#ffcdbf"/>
                <path id="Path_12608" data-name="Path 12608" d="M831.17,318.047c-.088,0-.17.018-.256.026a7.1,7.1,0,0,1,0,5.567c.086.008.168.026.256.026a2.809,2.809,0,1,0,0-5.619Z" transform="translate(-823.732 -294.302)" fill="#ffcdbf"/>
              </g>
            </g>
            <g id="Group_6824" data-name="Group 6824" transform="translate(39.595 2.58)">
              <g id="Group_6817" data-name="Group 6817">
                <path id="Path_12618" data-name="Path 12618" d="M818.661,147.608l-56.139,1.045a5.188,5.188,0,0,1-5.283-5.09l-.294-15.8a5.188,5.188,0,0,1,5.09-5.283l56.139-1.045a5.188,5.188,0,0,1,5.283,5.09l.294,15.8A5.188,5.188,0,0,1,818.661,147.608Z" transform="translate(-747.591 -110.298)" fill="#606060"/>
                <path id="Path_12619" data-name="Path 12619" d="M787.656,198.834c-.045.464-3.57,12.35-3.57,12.35l12.372-13.665Z" transform="translate(-766.414 -163.062)" fill="#606060"/>
                <path id="Path_12620" data-name="Path 12620" d="M928.972,149.75a5.882,5.882,0,1,1-6.035-5.724A5.882,5.882,0,0,1,928.972,149.75Z" transform="translate(-858.738 -125.963)" fill="#606060"/>
                <path id="Path_12621" data-name="Path 12621" d="M925.56,149.836a3.018,3.018,0,0,0,1.424,1.063l1.531.722a.419.419,0,0,1,.24.2.392.392,0,0,1-.043.288c-.167.373-.406.81-.188,1.156.135.215.4.3.587.478.564.549.047,1.592.471,2.255l2.751-2.841a.5.5,0,0,0,.175-.3c.008-.154-.123-.276-.245-.37a7.969,7.969,0,0,0-3.026-1.439,3.414,3.414,0,0,1-1.155-.39.911.911,0,0,1-.409-1.052c.216-.01.4.14.61.2a1.2,1.2,0,0,0,1.232-.557c.283-.39.434-.86.7-1.262a2.661,2.661,0,0,1,1.613-1.121,1.2,1.2,0,0,0-1.1-.5,2.179,2.179,0,0,0-1.147.5c-.183.143-.444.3-.618.151a.408.408,0,0,1-.11-.221,1.448,1.448,0,0,1,.622-1.506,4.827,4.827,0,0,1-.93-.084c-.858.021-2.132.123-2.7.828A4.09,4.09,0,0,0,925.56,149.836Z" transform="translate(-864.292 -126.79)" fill="#606060"/>
                <path id="Path_12622" data-name="Path 12622" d="M950.867,156.423l-.344.817a1.893,1.893,0,0,0-.19.673.636.636,0,0,0,.3.592.6.6,0,0,0,.75-.371,2.306,2.306,0,0,0-.379-1.887" transform="translate(-881.708 -134.438)" fill="#606060"/>
                <path id="Path_12623" data-name="Path 12623" d="M848.97,157l7.558-.2a1.179,1.179,0,0,1,1.21,1.148l.111,4.181a1.18,1.18,0,0,1-1.148,1.211l-5.652.149c-.58.673-1.278,1.482-1.278,1.482l-.038-1.447-.59.015a1.18,1.18,0,0,1-1.21-1.148l-.11-4.181A1.18,1.18,0,0,1,848.97,157Z" transform="translate(-810.615 -134.824)" fill="#606060"/>
                <path id="Path_12624" data-name="Path 12624" d="M872.41,145.182l-7.558.2a1.18,1.18,0,0,0-1.148,1.211l.11,4.181a1.18,1.18,0,0,0,1.21,1.148l5.652-.15c.615.642,1.355,1.413,1.355,1.413l-.038-1.447.589-.016a1.179,1.179,0,0,0,1.148-1.21l-.11-4.181A1.179,1.179,0,0,0,872.41,145.182Z" transform="translate(-821.63 -126.766)" fill="#606060"/>
                <path id="Path_12625" data-name="Path 12625" d="M801.3,153.84a2.981,2.981,0,0,0,.974-2.366,2.3,2.3,0,1,0-4.488.119,2.975,2.975,0,0,0,1.109,2.318,4.137,4.137,0,0,0-3.679,4.126l9.917-.262A4.072,4.072,0,0,0,801.3,153.84Z" transform="translate(-774.132 -129.241)" fill="#606060"/>
                <path id="Path_12626" data-name="Path 12626" d="M780.9,158.334a2.98,2.98,0,0,0,.974-2.366,2.3,2.3,0,1,0-4.487.118A2.975,2.975,0,0,0,778.5,158.4a4.138,4.138,0,0,0-3.679,4.126l9.917-.262A4.073,4.073,0,0,0,780.9,158.334Z" transform="translate(-759.989 -132.357)" fill="#606060"/>
                <path id="Rectangle_2112" data-name="Rectangle 2112" d="M2.367,0h0A2.366,2.366,0,0,1,4.732,2.366v0A2.366,2.366,0,0,1,2.367,4.732h0A2.366,2.366,0,0,1,0,2.367v0A2.367,2.367,0,0,1,2.367,0Z" transform="translate(48.53 16.928) rotate(-1.067)" fill="#606060"/>
                <path id="Rectangle_2113" data-name="Rectangle 2113" d="M2.366,0h0A2.366,2.366,0,0,1,4.733,2.366v0A2.366,2.366,0,0,1,2.366,4.732h0A2.366,2.366,0,0,1,0,2.366v0A2.366,2.366,0,0,1,2.366,0Z" transform="matrix(1, -0.019, 0.019, 1, 25.398, 17.264)" fill="#606060"/>
                <rect id="Rectangle_2114" data-name="Rectangle 2114" width="4.733" height="4.732" rx="2.366" transform="translate(66.917 16.978) rotate(-1.067)" fill="#606060"/>
                <text id="_8" data-name="8" transform="matrix(1, 0.011, -0.011, 1, 49.7, 18.803)" fill="#606060" font-size="2" font-family="SegoeUI, Segoe UI"><tspan x="0" y="0">8</tspan></text>
                <text id="_3" data-name="3" transform="matrix(1, 0.011, -0.011, 1, 68.102, 18.834)" fill="#606060" font-size="2" font-family="SegoeUI, Segoe UI"><tspan x="0" y="0">3</tspan></text>
                <text id="_1" data-name="1" transform="matrix(1, 0.011, -0.011, 1, 26.925, 19.178)" fill="#606060" font-size="2" font-family="SegoeUI, Segoe UI"><tspan x="0" y="0">1</tspan></text>
                <path id="Path_12627" data-name="Path 12627" d="M819.661,141.608l-56.139,1.045a5.188,5.188,0,0,1-5.283-5.09l-.294-15.8a5.188,5.188,0,0,1,5.09-5.283l56.139-1.045a5.188,5.188,0,0,1,5.283,5.09l.294,15.8A5.188,5.188,0,0,1,819.661,141.608Z" transform="translate(-748.284 -106.137)" fill="#fc0"/>
                <path id="Path_12628" data-name="Path 12628" d="M788.656,192.834c-.045.464-3.57,12.35-3.57,12.35l12.372-13.665Z" transform="translate(-767.108 -158.901)" fill="#f8b72d"/>
                <path id="Path_12629" data-name="Path 12629" d="M961.981,85.819a1.158,1.158,0,0,1,.2-.524.477.477,0,0,1,.5-.179.571.571,0,0,1,.245.192c.637.78.3,1.719.2,2.608a17.231,17.231,0,0,0-.043,3.193A8.509,8.509,0,0,1,961.981,85.819Z" transform="translate(-889.723 -85.096)" fill="#fffbcd"/>
                <path id="Path_12630" data-name="Path 12630" d="M983.231,101.123a1.158,1.158,0,0,1,.56-.051.477.477,0,0,1,.384.371.573.573,0,0,1-.063.3c-.416.918-1.407,1.033-2.245,1.343a17.193,17.193,0,0,0-2.879,1.381A8.511,8.511,0,0,1,983.231,101.123Z" transform="translate(-901.58 -96.164)" fill="#fffbcd"/>
                <path id="Path_12631" data-name="Path 12631" d="M975.24,86.847a1.322,1.322,0,0,1,.557-.319.545.545,0,0,1,.574.2.651.651,0,0,1,.079.346c.005,1.149-.969,1.739-1.69,2.459a19.65,19.65,0,0,0-2.329,2.8A9.708,9.708,0,0,1,975.24,86.847Z" transform="translate(-897.033 -86.08)" fill="#fffbcd"/>
                <path id="Path_12632" data-name="Path 12632" d="M984.482,205.483a1.538,1.538,0,0,1,.355.657.634.634,0,0,1-.252.663.762.762,0,0,1-.4.083c-1.338-.027-2-1.178-2.815-2.038a22.883,22.883,0,0,0-3.193-2.792A11.3,11.3,0,0,1,984.482,205.483Z" transform="translate(-901.015 -166.209)" fill="#fffbcd"/>
                <path id="Path_12633" data-name="Path 12633" d="M954.78,216.113a1.539,1.539,0,0,1-.431.611.633.633,0,0,1-.705.069.759.759,0,0,1-.254-.325c-.571-1.21.166-2.312.574-3.428a22.877,22.877,0,0,0,1.08-4.1A11.3,11.3,0,0,1,954.78,216.113Z" transform="translate(-883.683 -170.981)" fill="#fffbcd"/>
                <path id="Path_12634" data-name="Path 12634" d="M974.808,215.629a1.76,1.76,0,0,1-.157.838.722.722,0,0,1-.7.407.869.869,0,0,1-.418-.217c-1.167-.984-.927-2.477-1.034-3.827a26.081,26.081,0,0,0-.829-4.767C973.33,210.147,974.806,212.9,974.808,215.629Z" transform="translate(-896.506 -170.375)" fill="#fffbcd"/>
                <path id="Path_12635" data-name="Path 12635" d="M728.351,136.691a1.3,1.3,0,0,1-.612-.158.535.535,0,0,1-.266-.537.644.644,0,0,1,.181-.3c.786-.814,1.878-.561,2.882-.573a19.332,19.332,0,0,0,3.566-.374A9.555,9.555,0,0,1,728.351,136.691Z" transform="translate(-727.147 -119.533)" fill="#b1d6e9"/>
                <path id="Path_12636" data-name="Path 12636" d="M741.415,102.57a1.3,1.3,0,0,1-.131-.618.535.535,0,0,1,.363-.477.643.643,0,0,1,.348.029c1.079.342,1.338,1.433,1.795,2.327a19.354,19.354,0,0,0,1.921,3.028A9.558,9.558,0,0,1,741.415,102.57Z" transform="translate(-736.728 -96.446)" fill="#b1d6e9"/>
                <path id="Path_12637" data-name="Path 12637" d="M726.9,116.257a1.485,1.485,0,0,1-.429-.579.611.611,0,0,1,.149-.667.735.735,0,0,1,.375-.134c1.281-.158,2.068.85,2.967,1.559a22,22,0,0,0,3.431,2.227A10.9,10.9,0,0,1,726.9,116.257Z" transform="translate(-726.428 -105.738)" fill="#b1d6e9"/>
              </g>
              <g id="Group_6829" data-name="Group 6829" transform="translate(23.04 19.716)">
                <g id="Group_6500" data-name="Group 6500">
                  <path id="Path_12246" data-name="Path 12246" d="M-335.556,120.664h0a.655.655,0,0,1-.342.935l-1.557.58,1.555.568a.655.655,0,0,1,.348.932l-.017.03a.655.655,0,0,1-.981.194l-1.287-1.028.252,1.672a.655.655,0,0,1-.647.752h-.033a.655.655,0,0,1-.649-.744l.23-1.681-1.308,1.058a.655.655,0,0,1-.982-.187l-.04-.071a.655.655,0,0,1,.34-.935l1.542-.578-1.526-.565a.655.655,0,0,1-.345-.932l.008-.014a.655.655,0,0,1,.972-.2l1.34,1.031-.241-1.676a.655.655,0,0,1,.648-.748h.044a.655.655,0,0,1,.647.752l-.252,1.672,1.31-1.014A.655.655,0,0,1-335.556,120.664Z" transform="translate(341.099 -119.057)" fill="#fff" stroke="rgba(0,0,0,0)" stroke-width="1"/>
                </g>
                <g id="Group_6826" data-name="Group 6826" transform="translate(12.278)">
                  <path id="Path_12246-2" data-name="Path 12246" d="M-335.556,120.664h0a.655.655,0,0,1-.342.935l-1.557.58,1.555.568a.655.655,0,0,1,.348.932l-.017.03a.655.655,0,0,1-.981.194l-1.287-1.028.252,1.672a.655.655,0,0,1-.647.752h-.033a.655.655,0,0,1-.649-.744l.23-1.681-1.308,1.058a.655.655,0,0,1-.982-.187l-.04-.071a.655.655,0,0,1,.34-.935l1.542-.578-1.526-.565a.655.655,0,0,1-.345-.932l.008-.014a.655.655,0,0,1,.972-.2l1.34,1.031-.241-1.676a.655.655,0,0,1,.648-.748h.044a.655.655,0,0,1,.647.752l-.252,1.672,1.31-1.014A.655.655,0,0,1-335.556,120.664Z" transform="translate(341.099 -119.057)" fill="#fff" stroke="rgba(0,0,0,0)" stroke-width="1"/>
                </g>
                <g id="Group_6827" data-name="Group 6827" transform="translate(24.557)">
                  <path id="Path_12246-3" data-name="Path 12246" d="M-335.556,120.664h0a.655.655,0,0,1-.342.935l-1.557.58,1.555.568a.655.655,0,0,1,.348.932l-.017.03a.655.655,0,0,1-.981.194l-1.287-1.028.252,1.672a.655.655,0,0,1-.647.752h-.033a.655.655,0,0,1-.649-.744l.23-1.681-1.308,1.058a.655.655,0,0,1-.982-.187l-.04-.071a.655.655,0,0,1,.34-.935l1.542-.578-1.526-.565a.655.655,0,0,1-.345-.932l.008-.014a.655.655,0,0,1,.972-.2l1.34,1.031-.241-1.676a.655.655,0,0,1,.648-.748h.044a.655.655,0,0,1,.647.752l-.252,1.672,1.31-1.014A.655.655,0,0,1-335.556,120.664Z" transform="translate(341.099 -119.057)" fill="#fff" stroke="rgba(0,0,0,0)" stroke-width="1"/>
                </g>
                <g id="Group_6828" data-name="Group 6828" transform="translate(36.835)">
                  <path id="Path_12246-4" data-name="Path 12246" d="M-335.556,120.664h0a.655.655,0,0,1-.342.935l-1.557.58,1.555.568a.655.655,0,0,1,.348.932l-.017.03a.655.655,0,0,1-.981.194l-1.287-1.028.252,1.672a.655.655,0,0,1-.647.752h-.033a.655.655,0,0,1-.649-.744l.23-1.681-1.308,1.058a.655.655,0,0,1-.982-.187l-.04-.071a.655.655,0,0,1,.34-.935l1.542-.578-1.526-.565a.655.655,0,0,1-.345-.932l.008-.014a.655.655,0,0,1,.972-.2l1.34,1.031-.241-1.676a.655.655,0,0,1,.648-.748h.044a.655.655,0,0,1,.647.752l-.252,1.672,1.31-1.014A.655.655,0,0,1-335.556,120.664Z" transform="translate(341.099 -119.057)" fill="#fff" stroke="rgba(0,0,0,0)" stroke-width="1"/>
                </g>
              </g>
            </g>
          </g>
        </g>
        <g id="Group_5031" data-name="Group 5031" transform="translate(7.929 5.46)">
          <circle id="Ellipse_668" data-name="Ellipse 668" cx="1.336" cy="1.336" r="1.336" transform="translate(0 12.313)" fill="#fff"/>
          <circle id="Ellipse_669" data-name="Ellipse 669" cx="2.044" cy="2.044" r="2.044" transform="translate(33.117 1.002)" fill="#fff"/>
          <circle id="Ellipse_670" data-name="Ellipse 670" cx="1.626" cy="1.626" r="1.626" transform="translate(39.764 61.744)" fill="#fff"/>
          <circle id="Ellipse_671" data-name="Ellipse 671" cx="0.764" cy="0.764" r="0.764" transform="translate(91.007 74.34)" fill="#fff"/>
          <path id="Path_11388" data-name="Path 11388" d="M105.4,318.736a1,1,0,1,1-1-1A1,1,0,0,1,105.4,318.736Z" transform="translate(-91.969 -242.467)" fill="#fff"/>
          <path id="Path_11389" data-name="Path 11389" d="M394.67,23.067a1,1,0,1,1-1-1A1,1,0,0,1,394.67,23.067Z" transform="translate(-307.6 -22.065)" fill="#fff"/>
        </g>
      </g>
      <g id="email" transform="translate(171.484 145.168)" opacity="0.94">
        <path id="Path_12584" data-name="Path 12584" d="M6.116,1.882.351,6.54v.868h12.16V6.54L6.746,1.882A.5.5,0,0,0,6.116,1.882Z" transform="translate(-0.351 -1.728)" fill="#ff9102"/>
        <path id="Path_12585" data-name="Path 12585" d="M32.078,10.495H21.922a.5.5,0,0,1-.5-.5V.5a.5.5,0,0,1,.5-.5H32.078a.5.5,0,0,1,.5.5V9.994A.5.5,0,0,1,32.078,10.495Z" transform="translate(-20.92)" fill="url(#linear-gradient)"/>
        <path id="Path_12586" data-name="Path 12586" d="M32.58,408.463v.2a.585.585,0,0,1-.585.585H22.007a.585.585,0,0,1-.585-.585v-.2Z" transform="translate(-20.921 -398.748)" fill="url(#linear-gradient-2)"/>
        <g id="Group_6803" data-name="Group 6803" transform="translate(2.856 1.587)">
          <rect id="Rectangle_2100" data-name="Rectangle 2100" width="6.448" height="0.368" fill="#c2cece"/>
          <rect id="Rectangle_2101" data-name="Rectangle 2101" width="6.448" height="0.368" transform="translate(0 1.47)" fill="#c2cece"/>
          <rect id="Rectangle_2102" data-name="Rectangle 2102" width="6.448" height="0.368" transform="translate(0 2.973)" fill="#c2cece"/>
          <rect id="Rectangle_2103" data-name="Rectangle 2103" width="6.448" height="0.368" transform="translate(0 4.477)" fill="#c2cece"/>
        </g>
        <path id="Path_12587" data-name="Path 12587" d="M365.612,179.418a2.046,2.046,0,0,1-1.314-.475l-.139.024,3.007,3.007v-3.266A2.049,2.049,0,0,1,365.612,179.418Z" transform="translate(-355.506 -174.457)" fill="url(#linear-gradient-3)"/>
        <path id="Path_12588" data-name="Path 12588" d="M12.511,202.791v6.853a.5.5,0,0,1-.5.5H.852a.5.5,0,0,1-.5-.5v-6.853L6.5,207.639Z" transform="translate(-0.351 -197.968)" fill="url(#linear-gradient-4)"/>
        <path id="Path_12589" data-name="Path 12589" d="M17.178,310.543,11.547,306a.5.5,0,0,0-.629,0L5.2,310.612a.5.5,0,0,0,.386.181H16.745A.5.5,0,0,0,17.178,310.543Z" transform="translate(-5.086 -298.617)" fill="url(#linear-gradient-5)"/>
        <path id="Path_12591" data-name="Path 12591" d="M21.577,10.15V.657a.5.5,0,0,1,.5-.5H32.234A.5.5,0,0,1,32.5.234.5.5,0,0,0,32.078,0H21.922a.5.5,0,0,0-.5.5V9.994a.5.5,0,0,0,.234.423A.5.5,0,0,1,21.577,10.15Z" transform="translate(-20.92)" fill="url(#linear-gradient-6)"/>
      </g>
    </g>
  </g>
</svg>
