<svg xmlns="http://www.w3.org/2000/svg" width="148.707" height="161.654" viewBox="0 0 148.707 161.654">
  <g id="Group_22669" data-name="Group 22669" transform="translate(-10791 -1732.443)">
    <g id="Group_6557" data-name="Group 6557" transform="translate(10791 1732.443)">
      <path id="Path_11375" data-name="Path 11375" d="M181.67,389.875s-13.827,0-24.735,0-12.4,5.655-6.446,6.423,18.345,4.487,12.4,6.223-7.189,7.437,2.479,7.685,58.506.5,66.439,0,3.862-7.189-5.754-6.941-5.176-2.94,9.957-3.082,26.042-8.713,8.192-9.262S181.67,389.875,181.67,389.875Z" transform="translate(-120.117 -248.838)" fill="#e8e8f7" opacity="0.82"/>
      <ellipse id="Ellipse_665" data-name="Ellipse 665" cx="5.123" cy="1.471" rx="5.123" ry="1.471" transform="translate(19.63 152.146)" fill="#e8e8f7" opacity="0.82"/>
      <ellipse id="Ellipse_666" data-name="Ellipse 666" cx="6.694" cy="1.504" rx="6.694" ry="1.504" transform="translate(135.32 149.138)" fill="#e8e8f7" opacity="0.82"/>
      <path id="Path_11386" data-name="Path 11386" d="M344.63,425.044c0,.274-.962.5-2.148.5s-2.149-.222-2.149-.5.962-.5,2.149-.5S344.63,424.77,344.63,425.044Z" transform="translate(-217.574 -266.32)" fill="#e8e8f7"/>
      <ellipse id="Ellipse_667" data-name="Ellipse 667" cx="2.479" cy="0.505" rx="2.479" ry="0.505" transform="translate(13.184 142.692)" fill="#e8e8f7"/>
      <path id="Path_11387" data-name="Path 11387" d="M111.465,415.983c0,.406-.925.735-2.066.735s-2.066-.329-2.066-.735.925-.735,2.066-.735S111.465,415.577,111.465,415.983Z" transform="translate(-100.099 -261.631)" fill="#e8e8f7"/>
      <g id="Group_5031" data-name="Group 5031" transform="translate(1.806 13.014)" opacity="0.82">
        <circle id="Ellipse_668" data-name="Ellipse 668" cx="1.668" cy="1.668" r="1.668" transform="translate(0 28.775)" fill="#e8e8f7"/>
        <circle id="Ellipse_669" data-name="Ellipse 669" cx="2.55" cy="2.55" r="2.55" transform="translate(56.655 1.25)" fill="#e8e8f7"/>
        <circle id="Ellipse_670" data-name="Ellipse 670" cx="2.029" cy="2.029" r="2.029" transform="translate(64.951 77.059)" fill="#e8e8f7"/>
        <circle id="Ellipse_671" data-name="Ellipse 671" cx="0.953" cy="0.953" r="0.953" transform="translate(128.905 92.78)" fill="#e8e8f7"/>
        <path id="Path_11388" data-name="Path 11388" d="M105.9,318.984a1.25,1.25,0,1,1-1.25-1.25A1.25,1.25,0,0,1,105.9,318.984Z" transform="translate(-73.81 -223.797)" fill="#e8e8f7"/>
        <path id="Path_11389" data-name="Path 11389" d="M395.167,23.315a1.25,1.25,0,1,1-1.25-1.25A1.25,1.25,0,0,1,395.167,23.315Z" transform="translate(-271.175 -22.065)" fill="#e8e8f7"/>
      </g>
      <g id="Group_6556" data-name="Group 6556" transform="translate(0 0)">
        <g id="Group_6527" data-name="Group 6527" transform="translate(75.749)">
          <g id="Group_6523" data-name="Group 6523" transform="translate(0)">
            <g id="Group_6501" data-name="Group 6501">
              <rect id="Rectangle_1997" data-name="Rectangle 1997" width="63.294" height="16.461" rx="8.23" fill="#17005d"/>
              <g id="Group_6496" data-name="Group 6496" transform="translate(5.606 4.335)">
                <path id="Path_12242" data-name="Path 12242" d="M-521.1,121.063h0a.817.817,0,0,1-.427,1.166l-1.943.723,1.941.708a.817.817,0,0,1,.434,1.164l-.021.038a.817.817,0,0,1-1.224.243l-1.607-1.283.314,2.087a.817.817,0,0,1-.808.939h-.041a.817.817,0,0,1-.81-.928l.287-2.1-1.632,1.32a.817.817,0,0,1-1.225-.233l-.05-.089a.817.817,0,0,1,.425-1.167l1.924-.721-1.9-.705a.817.817,0,0,1-.43-1.163l.009-.017a.817.817,0,0,1,1.213-.251l1.672,1.286-.3-2.092a.817.817,0,0,1,.809-.933h.055a.817.817,0,0,1,.808.939l-.314,2.086,1.635-1.265A.817.817,0,0,1-521.1,121.063Z" transform="translate(528.015 -119.057)" fill="#fff" stroke="rgba(0,0,0,0)" stroke-width="1"/>
              </g>
              <g id="Group_6497" data-name="Group 6497" transform="translate(16.883 4.335)">
                <path id="Path_12243" data-name="Path 12243" d="M-474.534,121.063h0a.817.817,0,0,1-.427,1.166l-1.943.723,1.941.708a.817.817,0,0,1,.434,1.164l-.021.038a.817.817,0,0,1-1.224.243l-1.607-1.283.315,2.087a.817.817,0,0,1-.808.939h-.041a.817.817,0,0,1-.81-.928l.288-2.1-1.633,1.32a.817.817,0,0,1-1.225-.233l-.05-.089a.817.817,0,0,1,.425-1.167l1.924-.721-1.9-.705a.817.817,0,0,1-.431-1.163l.009-.017a.817.817,0,0,1,1.212-.251l1.673,1.286-.3-2.092a.817.817,0,0,1,.809-.933h.055a.817.817,0,0,1,.808.939l-.315,2.086,1.635-1.265A.817.817,0,0,1-474.534,121.063Z" transform="translate(481.451 -119.057)" fill="#fff" stroke="rgba(0,0,0,0)" stroke-width="1"/>
              </g>
              <g id="Group_6498" data-name="Group 6498" transform="translate(28.213 4.335)">
                <path id="Path_12244" data-name="Path 12244" d="M-427.75,121.063h0a.817.817,0,0,1-.427,1.166l-1.943.723,1.941.708a.817.817,0,0,1,.435,1.164l-.021.038a.817.817,0,0,1-1.224.243l-1.606-1.283.314,2.087a.817.817,0,0,1-.808.939h-.041a.817.817,0,0,1-.809-.928l.287-2.1-1.632,1.32a.817.817,0,0,1-1.225-.233l-.05-.089a.817.817,0,0,1,.425-1.167l1.924-.721-1.9-.705a.817.817,0,0,1-.431-1.163l.009-.017a.817.817,0,0,1,1.213-.251l1.672,1.286-.3-2.092a.817.817,0,0,1,.809-.933h.055a.817.817,0,0,1,.808.939l-.314,2.086,1.634-1.265A.817.817,0,0,1-427.75,121.063Z" transform="translate(434.667 -119.057)" fill="#fff" stroke="rgba(0,0,0,0)" stroke-width="1"/>
              </g>
              <g id="Group_6499" data-name="Group 6499" transform="translate(39.543 4.335)">
                <path id="Path_12245" data-name="Path 12245" d="M-380.965,121.063h0a.817.817,0,0,1-.427,1.166l-1.943.723,1.941.708a.817.817,0,0,1,.435,1.164l-.021.038a.817.817,0,0,1-1.224.243l-1.606-1.283.314,2.087a.817.817,0,0,1-.808.939h-.041a.817.817,0,0,1-.809-.928l.287-2.1-1.632,1.32a.817.817,0,0,1-1.225-.233l-.05-.089a.817.817,0,0,1,.425-1.167l1.924-.721-1.9-.705a.817.817,0,0,1-.431-1.163l.009-.017a.817.817,0,0,1,1.213-.251l1.672,1.286-.3-2.092a.817.817,0,0,1,.809-.933h.055a.817.817,0,0,1,.808.939l-.314,2.086,1.634-1.265A.817.817,0,0,1-380.965,121.063Z" transform="translate(387.883 -119.057)" fill="#fff" stroke="rgba(0,0,0,0)" stroke-width="1"/>
              </g>
              <g id="Group_6500" data-name="Group 6500" transform="translate(50.873 4.335)">
                <path id="Path_12246" data-name="Path 12246" d="M-334.181,121.063h0a.817.817,0,0,1-.427,1.166l-1.943.723,1.941.708a.817.817,0,0,1,.435,1.164l-.021.038a.817.817,0,0,1-1.224.243l-1.607-1.283.314,2.087a.817.817,0,0,1-.808.939h-.041a.817.817,0,0,1-.81-.928l.287-2.1-1.632,1.32a.817.817,0,0,1-1.225-.233l-.05-.089a.817.817,0,0,1,.425-1.167l1.924-.721-1.9-.705a.817.817,0,0,1-.431-1.163l.009-.017a.817.817,0,0,1,1.213-.251l1.672,1.286-.3-2.092a.817.817,0,0,1,.809-.933h.055a.817.817,0,0,1,.808.939l-.314,2.086,1.634-1.265A.817.817,0,0,1-334.181,121.063Z" transform="translate(341.099 -119.057)" fill="#fff" stroke="rgba(0,0,0,0)" stroke-width="1"/>
              </g>
            </g>
            <g id="Group_6522" data-name="Group 6522" transform="translate(24.364 14.086)">
              <g id="Group_6504" data-name="Group 6504">
                <g id="Group_6502" data-name="Group 6502" transform="translate(0.825)">
                  <path id="Path_12247" data-name="Path 12247" d="M-441.132,159.841l.031.046c.444.706-.166,1.245-.151,1.912.014.624.966,1.079.587,1.654-.16.242-.588.634-.887,1.1a5.158,5.158,0,0,0-.624,2.656,94.126,94.126,0,0,1-.4,10.929,1.177,1.177,0,0,0,.033.609c.151.351.494.466.822.617a26.078,26.078,0,0,1,4.369,2.416,9.589,9.589,0,0,1,3.068,3.178,4.4,4.4,0,0,1,.132,4.239,3,3,0,0,1-2.6,1.677c-2.817-.031-4.316-2.941-5.9-4.829-1.5-1.786-2.763-3.311-4.1-5.132a1.909,1.909,0,0,1-.379-.718,1.993,1.993,0,0,1,.056-.853,49.174,49.174,0,0,0,1.682-10.659,22.889,22.889,0,0,0,.275-2.805c-.074-.618-.583-1.04-.745-1.629a4.861,4.861,0,0,1-.223-1.876c.232-1.639,2.54-3.414,4.188-2.984A1.337,1.337,0,0,1-441.132,159.841Z" transform="translate(447.153 -159.32)" fill="#efbfa5"/>
                </g>
                <g id="Group_6503" data-name="Group 6503" transform="translate(0 10.384)">
                  <path id="Path_12248" data-name="Path 12248" d="M-445,219.39c-1.674-1.86-3.3-3.763-4.835-5.736a3.145,3.145,0,0,1-.682-1.22,3.115,3.115,0,0,1,0-1,62.48,62.48,0,0,1,1.5-8.24.491.491,0,0,1,.141-.28.488.488,0,0,1,.247-.078c.858-.109,4.318-1.032,4.862-.442.607.659-.3,2.487-.423,3.219q-.318,1.942-.488,3.905a2.171,2.171,0,0,0,.182,1.356,2.317,2.317,0,0,0,1.058.748c2.345,1.086,4.5,2.607,6.747,3.88,1.558.88,3.24,1.666,4.709,2.693,2.888,2.019,4.2,2.569,5.483,4.783,1.23,2.122,1.483,5-.527,6.742-2.082,1.807-5.19,1.359-7.444.19a9.926,9.926,0,0,1-2.412-1.992C-439.63,225.113-442.378,222.305-445,219.39Z" transform="translate(450.559 -202.197)" fill="#f2506e"/>
                </g>
              </g>
              <g id="Group_6515" data-name="Group 6515" transform="translate(5.249 58.865)">
                <g id="Group_6509" data-name="Group 6509">
                  <g id="Group_6508" data-name="Group 6508" transform="translate(0 45.651)">
                    <g id="Group_6507" data-name="Group 6507">
                      <g id="Group_6505" data-name="Group 6505" transform="translate(5.416)">
                        <path id="Path_12249" data-name="Path 12249" d="M-404.3,612.464a16.666,16.666,0,0,1-2.116-.2c-.364-7,.3-14.338.584-21.372l5.4.288a62.857,62.857,0,0,0-2.67,11.566C-403.186,603.365-404.195,612.46-404.3,612.464Z" transform="translate(406.52 -590.889)" fill="#efbfa5"/>
                      </g>
                      <g id="Group_6506" data-name="Group 6506" transform="translate(0 19.997)">
                        <path id="Path_12250" data-name="Path 12250" d="M-423.578,673.477a1.087,1.087,0,0,0-1,.389c-.172.157-.289.379-.5.492a1.63,1.63,0,0,1-.657.159c-1.3.13-4.287.076-2.694,2.246,1.446,1.971,5.287,1.186,7.505.651a.763.763,0,0,0,.407-.17,1.045,1.045,0,0,0,.224-.44c.253-.927.6-2.085-.541-2.474-.486-.166-.934.156-1.449-.022C-422.7,674.161-423.134,673.556-423.578,673.477Z" transform="translate(428.883 -673.46)" fill="#3b455a"/>
                      </g>
                    </g>
                  </g>
                  <path id="Path_12251" data-name="Path 12251" d="M-420.6,452.259l11-.213q4.45-21.186,7.835-42.577a7.577,7.577,0,0,0,.027-3.327c-.6-2.029-2.775-3.187-4.856-3.575-3.233-.6-9.173.237-10.831,3.6-1.752,3.552-1.458,9.9-1.883,13.822A238.64,238.64,0,0,0-420.6,452.259Z" transform="translate(422.678 -402.385)" fill="#474463"/>
                </g>
                <g id="Group_6514" data-name="Group 6514" transform="translate(15.135)">
                  <g id="Group_6513" data-name="Group 6513" transform="translate(9.616 45.651)">
                    <g id="Group_6512" data-name="Group 6512">
                      <g id="Group_6510" data-name="Group 6510">
                        <path id="Path_12252" data-name="Path 12252" d="M-322.822,612.464a16.658,16.658,0,0,0,2.116-.2c.365-7-.3-14.338-.584-21.372l-5.4.288a62.876,62.876,0,0,1,2.669,11.566C-323.933,603.365-322.924,612.46-322.822,612.464Z" transform="translate(326.685 -590.889)" fill="#efbfa5"/>
                      </g>
                      <g id="Group_6511" data-name="Group 6511" transform="translate(2.655 19.997)">
                        <path id="Path_12253" data-name="Path 12253" d="M-312.181,673.477a1.086,1.086,0,0,1,1,.389c.172.157.289.379.5.492a1.631,1.631,0,0,0,.657.159c1.3.13,4.287.076,2.694,2.246-1.446,1.971-5.287,1.186-7.505.651a.762.762,0,0,1-.407-.17,1.039,1.039,0,0,1-.224-.44c-.253-.927-.6-2.085.541-2.474.487-.166.934.156,1.449-.022C-313.057,674.161-312.625,673.556-312.181,673.477Z" transform="translate(315.723 -673.46)" fill="#3b455a"/>
                      </g>
                    </g>
                  </g>
                  <path id="Path_12254" data-name="Path 12254" d="M-347.346,452.259l-11-.213q-4.45-21.186-7.835-42.577a7.577,7.577,0,0,1-.027-3.327c.6-2.029,2.775-3.187,4.856-3.575,3.233-.6,9.173.237,10.831,3.6,1.752,3.552,1.458,9.9,1.883,13.822A238.63,238.63,0,0,1-347.346,452.259Z" transform="translate(366.39 -402.385)" fill="#474463"/>
                </g>
              </g>
              <g id="Group_6516" data-name="Group 6516" transform="translate(8.008 27.152)">
                <path id="Path_12255" data-name="Path 12255" d="M-395.477,275.574a26.22,26.22,0,0,1,6.47,10.117c2.349,6.594,2.394,13.635,2.416,20.534q.011,3.444.022,6.889c.007,2.259-.193,2.746-2.648,2.448a42.1,42.1,0,0,1-13.4-3.512,63.433,63.433,0,0,0-5.852-2.935c-2.992-1.1-6.059-.6-9.019-1.32a70.18,70.18,0,0,0,2.864-11.2c.679-4.121,1.3-8.616,2.292-12.682a33.337,33.337,0,0,1,2.837-6.962,12.636,12.636,0,0,1,2.853-4.141C-402.762,269.532-398.406,272.786-395.477,275.574Z" transform="translate(417.492 -271.436)" fill="#ff748e" stroke="rgba(0,0,0,0)" stroke-width="1"/>
              </g>
              <g id="Group_6521" data-name="Group 6521" transform="translate(18.909 6.244)">
                <g id="Group_6518" data-name="Group 6518" transform="translate(0 2.814)">
                  <g id="Group_6517" data-name="Group 6517">
                    <path id="Path_12256" data-name="Path 12256" d="M-371.926,208.418a27.746,27.746,0,0,0,2.429,3.676,8.25,8.25,0,0,1,1.291,3.648c.152,1,.509,1.776,1.71,1.947,2.265.322,1.617-1.549,2.132-2.911.588-1.556,1.842-2.786,2.719-4.175,2.532-4.013,1.81-11.947-3.454-13.639C-370.855,195.113-373.783,204.358-371.926,208.418Z" transform="translate(372.482 -196.722)" fill="#c78f71"/>
                  </g>
                </g>
                <g id="Group_6519" data-name="Group 6519" transform="translate(6.053 4.415)">
                  <path id="Path_12257" data-name="Path 12257" d="M-343.809,209.543a2.878,2.878,0,0,1,1.857.517c.485.439.432,1.4-.208,1.5-.58.094-1.331-.511-1.685-.07-.207.258-.025.636.132.938a5.508,5.508,0,0,1,.5,3.736c.239.221.611-.008.82-.239a12.026,12.026,0,0,0,2.386-3.918,2.4,2.4,0,0,0,.877.849,2.776,2.776,0,0,1,.054-1.687c.492-2.03.827-4.409-.591-6.068a5.275,5.275,0,0,0-3.072-1.613,15.431,15.431,0,0,0-3.512-.11c-.5.023-1.117.131-1.237.593a5.573,5.573,0,0,1,2.781,2.336C-344.536,206.626-343.876,209.54-343.809,209.543Z" transform="translate(347.486 -203.331)" fill="#3b455a"/>
                </g>
                <g id="Group_6520" data-name="Group 6520" transform="translate(0.913)">
                  <path id="Path_12258" data-name="Path 12258" d="M-362.212,190.85l.118.088a4.982,4.982,0,0,0,1.565,1.007c.867.242,1.8-.176,2.653.119.955.33,1.582,1.472,2.279,2.147a10.1,10.1,0,0,0,4.08,2.385,10.2,10.2,0,0,0,2.392.427,4.227,4.227,0,0,0,1.218-.006c.481-.13.464-.348-.048-.512-1.607-.515-2.111-2.772-1.989-4.268.1-1.181.5-2.415.053-3.511a4.165,4.165,0,0,0-1.8-1.748c-.788-.528-1.641-.386-2.536-.64-.933-.265-1.693-1-2.645-1.187a8.034,8.034,0,0,0-3.015.443,6.235,6.235,0,0,1-2.521-.031,10.112,10.112,0,0,0-2.222-.456,3.637,3.637,0,0,0-2.8,1.617,7.431,7.431,0,0,0-1.195,5.175c-.051-.262.833-1.214,1.014-1.418a2.393,2.393,0,0,1,1.432-.906A6.157,6.157,0,0,1-362.212,190.85Z" transform="translate(368.711 -185.102)" fill="#3b455a"/>
                </g>
              </g>
            </g>
          </g>
          <g id="Group_6526" data-name="Group 6526" transform="translate(35.767 48.023)">
            <g id="Group_6524" data-name="Group 6524" transform="translate(0 12.566)">
              <path id="Path_12259" data-name="Path 12259" d="M-403.451,375.842c0-.018.009-.035.015-.053.246-.8,1.052-.686,1.549-1.132.465-.417.189-1.436.872-1.523.288-.037.864.033,1.41-.043a5.158,5.158,0,0,0,2.422-1.258,94.117,94.117,0,0,1,8.548-6.821,1.173,1.173,0,0,0,.44-.422,1.369,1.369,0,0,0-.068-1.025,26.083,26.083,0,0,1-1.015-4.889,9.591,9.591,0,0,1,.411-4.4,4.4,4.4,0,0,1,3.128-2.863,3,3,0,0,1,2.968.881c1.812,2.156.583,5.19.181,7.62-.38,2.3-.711,4.254-1.223,6.452a1.909,1.909,0,0,1-.3.756,1.992,1.992,0,0,1-.683.513,49.164,49.164,0,0,0-9.18,5.671,22.9,22.9,0,0,0-2.307,1.62c-.421.459-.409,1.12-.75,1.626a4.859,4.859,0,0,1-1.278,1.392c-1.394.892-4.245.3-4.992-1.232A1.333,1.333,0,0,1-403.451,375.842Z" transform="translate(403.475 -351.341)" fill="#efbfa5" stroke="rgba(0,0,0,0)" stroke-miterlimit="10" stroke-width="1"/>
            </g>
            <g id="Group_6525" data-name="Group 6525" transform="translate(7.688)">
              <path id="Path_12260" data-name="Path 12260" d="M-358.034,319.865c-.32,2.481-.706,4.952-1.2,7.406a3.146,3.146,0,0,1-.481,1.312,3.12,3.12,0,0,1-.762.652,62.5,62.5,0,0,1-7.225,4.235.488.488,0,0,1-.3.076.492.492,0,0,1-.22-.136c-.642-.58-3.6-2.6-3.5-3.4.1-.89,2.083-1.391,2.717-1.777q1.68-1.025,3.28-2.175a2.17,2.17,0,0,0,.909-1.022,2.314,2.314,0,0,0-.122-1.29c-.7-2.487-.952-5.108-1.454-7.646-.348-1.755-.848-3.543-1.026-5.326-.351-3.507-.789-4.86.054-7.276.808-2.315,2.824-4.381,5.457-3.994,2.727.4,4.413,3.051,5,5.522a9.927,9.927,0,0,1,.061,3.128C-357.194,312.06-357.533,315.975-358.034,319.865Z" transform="translate(371.731 -299.454)" fill="#f2506e" stroke="rgba(0,0,0,0)" stroke-width="1"/>
            </g>
          </g>
        </g>
        <g id="Group_6555" data-name="Group 6555" transform="translate(0 9.291)">
          <g id="Group_6535" data-name="Group 6535" transform="translate(12.065 14.667)">
            <g id="Group_6530" data-name="Group 6530" transform="translate(2.631 59.899)">
              <g id="Group_6528" data-name="Group 6528" transform="translate(22.418 59.662)">
                <path id="Path_12261" data-name="Path 12261" d="M-710.241,695.779l.453,2,4.26,1.222,1.45-2.39L-706.434,695l-4.26-1.222Z" transform="translate(710.694 -693.778)" fill="#333"/>
              </g>
              <g id="Group_6529" data-name="Group 6529" transform="translate(5.04 59.536)">
                <path id="Path_12262" data-name="Path 12262" d="M-776.444,693.482l-.114,2.094-4.042,1.869-1.85-2.206,2.078-1.981Z" transform="translate(782.45 -693.256)" fill="#333"/>
              </g>
              <path id="Path_12263" data-name="Path 12263" d="M-776.151,447.42l1.986,6.436L-775,456.85l.088-.013-.583,17.144-1.287,34.519-3.956-.022-8.336-40.043-.459,1.879-2.688,37.328-3.633-.208-7.107-48.388-.3-9.847Z" transform="translate(803.263 -447.42)" fill="#3b455a"/>
            </g>
            <g id="Group_6531" data-name="Group 6531" transform="translate(0 20.936)">
              <path id="Path_12264" data-name="Path 12264" d="M-801.738,287.133l4.617-.528c10.317-1.181,11.5,13.218,13.06,20.352a114.05,114.05,0,0,1,2.777,31.53c-3.308-1.677-7.805-1.168-11.508-1.182-6.819-.026-13.874,0-20.409,1.254-1.22.233-.956-8.618-.758-10.268l1.209-10.079L-810.562,300l.064-.534a5.353,5.353,0,0,1,.585-1.869l4.056-7.651A5.351,5.351,0,0,1-801.738,287.133Z" transform="translate(814.128 -286.536)" fill="#7fc5a3"/>
            </g>
            <g id="Group_6534" data-name="Group 6534" transform="translate(10.814)">
              <g id="Group_6533" data-name="Group 6533">
                <g id="Group_6532" data-name="Group 6532">
                  <path id="Path_12265" data-name="Path 12265" d="M-768.862,206.389a11.333,11.333,0,0,1,1.157-2.926,6.452,6.452,0,0,1,4.754-3.345c3.688-.333,7.836,1.967,8.189,5.906.222,2.483.571,5.149-.135,7.585a6.77,6.77,0,0,1-2.1,3.338c-.741.6-2.307.757-2.855,1.435-1.793,2.22.8,3.27-2.467,4.783a1.3,1.3,0,0,1-.514.156,1.308,1.308,0,0,1-.7-.282l-1.244-.814a.384.384,0,0,1-.129-.116.378.378,0,0,1-.009-.274c.777-3.438-3.17-4.457-4.051-7.575a12.559,12.559,0,0,1-.41-5.036A23.907,23.907,0,0,1-768.862,206.389Z" transform="translate(769.474 -200.086)" fill="#c78f71"/>
                </g>
              </g>
            </g>
          </g>
          <path id="Path_12266" data-name="Path 12266" d="M-754.91,230.364a.461.461,0,0,0-.287-.783,17.074,17.074,0,0,0-5.034.254c-.843.225-.792.854-.787,1.667,0,.139,0,.274.008.4-.179-.012-.366.007-.542.008a14.608,14.608,0,0,0-1.5.052l-.009,0a5.005,5.005,0,0,0-.307-1.454.2.2,0,0,0-.071-.087.38.38,0,0,0-.255-.212,16.9,16.9,0,0,0-3.525-.562c-.61-.03-1.834-.258-2.365.173a1.432,1.432,0,0,0-.371.867l-.221-.206-.062-.058c-.022.175-.042.35-.048.527a.841.841,0,0,1-.039.225c.1.094.209.189.317.278a3.6,3.6,0,0,0,.379,1.807c.406.526,1.105.452,1.68.462,1.24.022,2.487.058,3.727.026.558-.014.925.04,1.08-.577a3.3,3.3,0,0,0,.083-.566.333.333,0,0,0,.062.014,14.751,14.751,0,0,0,1.5-.066,5.271,5.271,0,0,0,.57-.044,1,1,0,0,0,.9.766c1.582.263,3.224.21,4.82.472a.389.389,0,0,0,.447-.42A7.258,7.258,0,0,0-754.91,230.364Zm-8.834,1.509c-.116,1.115-.543,1.174-1.468,1.151-.823-.021-3.189.317-3.711-.308a2.084,2.084,0,0,1-.242-1.443q-.272-.9.574-.854.446-.015.892,0a16.98,16.98,0,0,1,3.867.588.389.389,0,0,0,.073.011A5.639,5.639,0,0,1-763.744,231.873Zm8.225,1.029c-.841-.132-1.683-.241-2.53-.312-.463-.038-.927-.064-1.39-.088-.6-.03-.691-.069-.791-.712-.221-1.416,1.218-1.3,2.159-1.364.538-.034,2.01-.315,2.409.089C-755.232,230.954-755.539,232.347-755.519,232.9Z" transform="translate(792.997 -207.722)" fill="#3b455a"/>
          <g id="Group_6539" data-name="Group 6539" transform="translate(32.778 9.762)">
            <g id="Group_6536" data-name="Group 6536" transform="translate(19.887)">
              <path id="Path_12267" data-name="Path 12267" d="M-645.118,185.649l2.675.408,1.189-4.341-2.1-1.886-2.332.688.712,2.022-.5-.077-.422-.586-.581.433Z" transform="translate(646.481 -179.83)" fill="#ebceb1"/>
            </g>
            <g id="Group_6538" data-name="Group 6538" transform="translate(0 4.968)">
              <g id="Group_6537" data-name="Group 6537">
                <path id="Path_12268" data-name="Path 12268" d="M-726.542,229.808a71.262,71.262,0,0,1-2.054-7.5c2.786.006,5.574.016,8.359-.067,1.764-.053,4.29.7,5.367-.668,1.371-1.745,1.806-5.7,2.482-7.84l2.259-7.155c.445-1.41,1.152-5.8,2.422-6.226.269-.09,3.607.467,3.612.406q-.332,5.445-.665,10.89l-.5,8.14c-.291,4.769-1.591,6.594-5.076,9.821-3.454,3.2-7.16,6.109-10.858,9.016C-722.814,239.9-724.974,234.678-726.542,229.808Z" transform="translate(728.6 -200.344)" fill="#7fc5a3"/>
              </g>
            </g>
          </g>
          <g id="Group_6545" data-name="Group 6545" transform="translate(0 48.4)">
            <g id="Group_6544" data-name="Group 6544">
              <g id="Group_6543" data-name="Group 6543">
                <g id="Group_6542" data-name="Group 6542">
                  <g id="Group_6540" data-name="Group 6540" transform="translate(11.278)">
                    <path id="Path_12269" data-name="Path 12269" d="M-764.167,390.36l-7.355,0,.014-24.342a19.281,19.281,0,0,0-19.24-19.279,19.281,19.281,0,0,0-19.261,19.257l-.013,24.341-7.355,0,.014-24.342a26.647,26.647,0,0,1,26.62-26.615,26.647,26.647,0,0,1,26.59,26.644Z" transform="translate(817.377 -339.374)" fill="#fc0"/>
                  </g>
                  <g id="Group_6541" data-name="Group 6541" transform="translate(0 39.401)">
                    <path id="Path_12270" data-name="Path 12270" d="M-788.221,550.5a2.853,2.853,0,0,1-2.854,2.853l-70.023-.038a2.853,2.853,0,0,1-2.85-2.856l.025-45.538a2.853,2.853,0,0,1,2.853-2.853l70.023.039a2.853,2.853,0,0,1,2.85,2.856Z" transform="translate(863.948 -502.067)" fill="#fc0"/>
                  </g>
                </g>
              </g>
              <path id="Path_12272" data-name="Path 12272" d="M-720.857,556.488a6.261,6.261,0,0,0-6.254-6.267,6.261,6.261,0,0,0-6.261,6.26,6.249,6.249,0,0,0,2.534,5.029l-2,14.162,11.426.006-1.984-14.165A6.25,6.25,0,0,0-720.857,556.488Z" transform="translate(764.995 -499.159)" fill="#f8b72d"/>
            </g>
          </g>
          <g id="Group_6550" data-name="Group 6550" transform="translate(47.286)">
            <g id="Group_6549" data-name="Group 6549">
              <g id="Group_6548" data-name="Group 6548">
                <g id="Group_6547" data-name="Group 6547">
                  <path id="Path_12275" data-name="Path 12275" d="M-648.81,141.517c-6.256,1.343-9.431-1.54-9.859-1.965,0,0-.009-.043-.025-.025-.016-.017-.025.025-.025.025-.428.425-3.6,3.308-9.859,1.965,0,0-.961,11.163,2.686,15.717,3.895,4.864,7.182,6.335,7.2,6.322.016.013,3.332-1.43,7.2-6.322C-647.878,152.657-648.81,141.517-648.81,141.517Z" transform="translate(668.693 -139.522)" fill="#3b455a"/>
                  <path id="Path_12276" data-name="Path 12276" d="M-646.829,146.943c-5.677,1.2-8.558-1.371-8.947-1.749,0,0-.008-.038-.023-.023-.015-.015-.023.023-.023.023-.388.379-3.27,2.945-8.946,1.749,0,0-.872,9.938,2.437,13.993a23.482,23.482,0,0,0,6.529,5.894c.015.011,3.027-1.539,6.535-5.894C-645.984,156.861-646.829,146.943-646.829,146.943Z" transform="translate(665.798 -143.8)" fill="#474ebb"/>
                  <g id="Group_6546" data-name="Group 6546" transform="translate(0.942 0.851)">
                    <path id="Path_12277" data-name="Path 12277" d="M-655.771,144.558s.008-.04.024-.024c.016-.016.024.024.024.024.4.389,3.309,2.98,9.027,1.9-.028-1.013-.082-1.647-.082-1.647-5.677,1.2-8.558-1.371-8.947-1.75,0,0-.008-.038-.023-.023-.015-.015-.023.023-.023.023-.388.379-3.27,2.945-8.947,1.75,0,0-.056.634-.085,1.646C-659.081,147.539-656.17,144.947-655.771,144.558Z" transform="translate(664.802 -143.035)" fill="#424cad"/>
                  </g>
                </g>
                <path id="Path_12278" data-name="Path 12278" d="M-642.849,159.305a8.49,8.49,0,0,1-7.27-1.449s-.006-.029-.017-.017c-.011-.012-.017.017-.017.017A8.422,8.422,0,0,1-657.4,159.3s-.175,7.557,2.325,10.679a14.839,14.839,0,0,0,4.935,4.334,14.344,14.344,0,0,0,4.935-4.334C-642.722,166.841-642.849,159.305-642.849,159.305Z" transform="translate(660.135 -153.401)" fill="#656ec9"/>
              </g>
            </g>
          </g>
          <g id="Group_6554" data-name="Group 6554" transform="translate(7.115 36.014)">
            <g id="Group_6551" data-name="Group 6551" transform="translate(4.06 35.305)">
              <path id="Path_12279" data-name="Path 12279" d="M-815.135,434.014l-2.667.455.238,4.494,2.589,1.128,2-1.387-1.313-1.695.5-.085.585.424.415-.594Z" transform="translate(817.803 -434.014)" fill="#efbfa5"/>
            </g>
            <g id="Group_6553" data-name="Group 6553">
              <g id="Group_6552" data-name="Group 6552">
                <path id="Path_12280" data-name="Path 12280" d="M-819.621,288.3a5.474,5.474,0,0,1,1.383.41,2.643,2.643,0,0,1,1.285,1.058,2.685,2.685,0,0,1,.269,1.318c-.018,2.56-1.654,4.777-3.043,6.929a44.788,44.788,0,0,0-5.862,13.689,44.626,44.626,0,0,0-1.153,7.382c-.076,1.078.542,4.411-.5,5.132-.247.172-3.568.692-3.553.75-1.632-6.149-4.913-12.846-3.378-19.257a38.8,38.8,0,0,1,3.815-9.056A20.627,20.627,0,0,1-825.7,290.2,7.935,7.935,0,0,1-819.621,288.3Z" transform="translate(834.568 -288.23)" fill="#7fc5a3"/>
              </g>
            </g>
          </g>
        </g>
      </g>
      <path id="Path_12281" data-name="Path 12281" d="M234.173,297.438s-2.482-.412-3.65.5,0,2.1,0,2.1-1.825.206-2.117,1.485,1.387,1.691,1.387,1.691a1.184,1.184,0,0,0,.146,1.9c.73.577,3.139,0,3.139,0s.073.536,1.095.742a2.88,2.88,0,0,0,1.971-.454,4.9,4.9,0,0,0,3.723.494c2.482-.452,2.117-1.607,2.117-1.607a4.005,4.005,0,0,0,2.7-.619c.876-.825-.657-1.815-.657-1.815a1.775,1.775,0,0,0,0-2.351,2.647,2.647,0,0,0-2.628-.784,1.44,1.44,0,0,0-1.095-1.609,4.035,4.035,0,0,0-2.847.536s.073-1.209-1.533-1.2C234.227,296.462,234.173,297.438,234.173,297.438Z" transform="translate(-205.586 -276.731)" fill="#4f3b4d"/>
    </g>
  </g>
</svg>
