<svg id="Group_28914" data-name="Group 28914" xmlns="http://www.w3.org/2000/svg" width="33.333" height="33.333" viewBox="0 0 33.333 33.333">
  <g id="Rectangle_9296" data-name="Rectangle 9296" transform="translate(0)" fill="#fff" stroke="#707070" stroke-width="1" opacity="0">
    <rect width="33.333" height="33.333" stroke="none"/>
    <rect x="0.5" y="0.5" width="32.333" height="32.333" fill="none"/>
  </g>
  <path id="Path_43991" data-name="Path 43991" d="M24.148,10.613l-3.527,9.98a.756.756,0,0,1-.559.484V13.709a2.268,2.268,0,0,0-2.268-2.268H4.26L6.8,4.493a.756.756,0,0,1,.96-.454L23.687,9.668A.756.756,0,0,1,24.148,10.613Zm-5.6,3.1v10.7a.756.756,0,0,1-.756.756H.756A.756.756,0,0,1,0,24.411v-10.7a.756.756,0,0,1,.756-.756H17.793A.756.756,0,0,1,18.549,13.709Zm-12.1,2.434a.756.756,0,0,0-.756-.756H3.175a.756.756,0,0,0-.756.756V17.86a.756.756,0,0,0,.756.756H5.7a.756.756,0,0,0,.756-.756Z" transform="translate(5 2.003)" fill="#50646e"/>
</svg>
