<svg xmlns="http://www.w3.org/2000/svg" width="126.843" height="129.096" viewBox="0 0 126.843 129.096">
  <g id="Group_9783" data-name="Group 9783" transform="translate(-68.369 -83.536)">
    <g id="Group_9552" data-name="Group 9552" transform="translate(94.029 83.536)">
      <g id="Group_9536" data-name="Group 9536" transform="translate(0)">
        <rect id="Rectangle_9894" data-name="Rectangle 9894" width="80.13" height="112.272" rx="6.52" transform="translate(0)" fill="#17005d"/>
        <rect id="Rectangle_9895" data-name="Rectangle 9895" width="80.13" height="112.272" rx="6.52" transform="translate(0)" fill="#17005d"/>
        <path id="Path_16002" data-name="Path 16002" d="M157.919,251.17h75.074a2.528,2.528,0,0,0,2.528-2.529V210.934c-20.509-9.475-57.309-26.472-80.13-36.972v74.68A2.529,2.529,0,0,0,157.919,251.17Z" transform="translate(-155.39 -138.898)" fill="#17005d"/>
        <path id="Path_16003" data-name="Path 16003" d="M236.931,194.934H164.266a.476.476,0,0,1-.476-.475V92.911a.476.476,0,0,1,.476-.475h72.665a.475.475,0,0,1,.475.475V194.459A.475.475,0,0,1,236.931,194.934Z" transform="translate(-160.533 -88.985)" fill="#17005d"/>
      </g>
      <g id="Group_9541" data-name="Group 9541" transform="translate(10.124 21.15)">
        <g id="Group_9539" data-name="Group 9539">
          <g id="Group_9537" data-name="Group 9537" transform="translate(0 0.209)">
            <path id="Path_16004" data-name="Path 16004" d="M193.714,150.833H181.5V138.619h12.214Zm-11.438-.776h10.663V139.395H182.275Z" transform="translate(-181.5 -138.619)" fill="#dfc1f7"/>
          </g>
        </g>
        <g id="Group_9540" data-name="Group 9540" transform="translate(18.646 0.209)">
          <rect id="Rectangle_9896" data-name="Rectangle 9896" width="40.833" height="0.812" fill="#d6d6d6"/>
          <rect id="Rectangle_9897" data-name="Rectangle 9897" width="40.833" height="0.812" transform="translate(0 2.851)" fill="#d6d6d6"/>
          <rect id="Rectangle_9898" data-name="Rectangle 9898" width="40.833" height="0.812" transform="translate(0 5.701)" fill="#d6d6d6"/>
          <rect id="Rectangle_9899" data-name="Rectangle 9899" width="40.833" height="0.812" transform="translate(0 8.552)" fill="#d6d6d6"/>
          <rect id="Rectangle_9900" data-name="Rectangle 9900" width="29.957" height="0.812" transform="translate(0 11.402)" fill="#d6d6d6"/>
        </g>
      </g>
      <g id="Group_9546" data-name="Group 9546" transform="translate(11.78 49.924)">
        <g id="Group_9544" data-name="Group 9544">
          <g id="Group_9542" data-name="Group 9542" transform="translate(0 0.209)">
            <path id="Path_16006" data-name="Path 16006" d="M197.983,225.04H185.769V212.826h12.214Zm-11.438-.776h10.663V213.6H186.544Z" transform="translate(-185.769 -212.826)" fill="#fff"/>
          </g>
          <g id="Group_9543" data-name="Group 9543" transform="translate(1.885)">
            <path id="Path_16007" data-name="Path 16007" d="M194.848,222.249l-4.217-4.217,1.4-1.4,2.816,2.816,7.159-7.16,1.4,1.4Z" transform="translate(-190.63 -212.286)" fill="#fff"/>
          </g>
        </g>
        <g id="Group_9545" data-name="Group 9545" transform="translate(18.646 0.209)">
          <rect id="Rectangle_9901" data-name="Rectangle 9901" width="40.833" height="0.812" fill="#d6d6d6"/>
          <rect id="Rectangle_9902" data-name="Rectangle 9902" width="40.833" height="0.812" transform="translate(0 2.851)" fill="#d6d6d6"/>
          <rect id="Rectangle_9903" data-name="Rectangle 9903" width="40.833" height="0.812" transform="translate(0 5.701)" fill="#d6d6d6"/>
          <rect id="Rectangle_9904" data-name="Rectangle 9904" width="40.833" height="0.812" transform="translate(0 8.552)" fill="#d6d6d6"/>
          <rect id="Rectangle_9905" data-name="Rectangle 9905" width="29.957" height="0.812" transform="translate(0 11.402)" fill="#d6d6d6"/>
        </g>
      </g>
      <g id="Group_9551" data-name="Group 9551" transform="translate(11.78 78.699)">
        <g id="Group_9549" data-name="Group 9549">
          <g id="Group_9547" data-name="Group 9547" transform="translate(0 0.209)">
            <path id="Path_16008" data-name="Path 16008" d="M197.983,299.247H185.769V287.033h12.214Zm-11.438-.776h10.663V287.808H186.544Z" transform="translate(-185.769 -287.033)" fill="#fff"/>
          </g>
          <g id="Group_9548" data-name="Group 9548" transform="translate(1.885)">
            <path id="Path_16009" data-name="Path 16009" d="M194.848,296.456l-4.217-4.217,1.4-1.4,2.816,2.816,7.159-7.16,1.4,1.4Z" transform="translate(-190.63 -286.493)" fill="#fff"/>
          </g>
        </g>
        <g id="Group_9550" data-name="Group 9550" transform="translate(18.646 0.209)">
          <rect id="Rectangle_9906" data-name="Rectangle 9906" width="40.833" height="0.812" fill="#d6d6d6"/>
          <rect id="Rectangle_9907" data-name="Rectangle 9907" width="40.833" height="0.812" transform="translate(0 2.851)" fill="#d6d6d6"/>
          <rect id="Rectangle_9908" data-name="Rectangle 9908" width="40.833" height="0.812" transform="translate(0 5.701)" fill="#d6d6d6"/>
          <rect id="Rectangle_9909" data-name="Rectangle 9909" width="40.833" height="0.812" transform="translate(0 8.552)" fill="#d6d6d6"/>
          <rect id="Rectangle_9910" data-name="Rectangle 9910" width="29.957" height="0.812" transform="translate(0 11.402)" fill="#d6d6d6"/>
        </g>
      </g>
    </g>
    <g id="Group_9554" data-name="Group 9554" transform="translate(68.369 108.318)">
      <path id="Path_16010" data-name="Path 16010" d="M120.053,291.014s-7.521,25.55-18.013,34.183l-2.576-2.618s12.134-15.432,11.521-36.4Z" transform="translate(-95.49 -232.383)" fill="#67869b"/>
      <path id="Path_16011" data-name="Path 16011" d="M144.832,278.91s3.023,24-5.964,46.285l-3.395-.573s4.124-25.783,2.126-36.016c0,0-8.276-2.686-7.987-9.471S144.832,278.91,144.832,278.91Z" transform="translate(-113.943 -226.189)" fill="#67869b"/>
      <path id="Path_16012" data-name="Path 16012" d="M185.374,158.1l-.485-2.547s1.7-7.24,2.921-8.023-.392,4.151-.392,4.151,1.95,1.1,1.782,2.918a4.111,4.111,0,0,1-1.39,2.755Z" transform="translate(-147.79 -147.447)" fill="#ff58d5"/>
      <path id="Path_16013" data-name="Path 16013" d="M109.089,184.891c.136-.073,12.538-1.112,19.7-16.534l2.921,1.8S130.548,179,118.6,187.946a97.993,97.993,0,0,1,5.5,27.339,36.484,36.484,0,0,1-18.942,0s.911-9.511-.552-16.44a35.388,35.388,0,0,0-7.975,17.275l-3.366-1.671s-.046-13.7,13.658-28.109Z" transform="translate(-91.691 -160.249)" fill="#ffb227"/>
      <path id="Path_16014" data-name="Path 16014" d="M119.493,180.345l.987-.208a4.136,4.136,0,0,1,3.169,1.922c1.373,1.945,1.415,2.482,2.162,2.5s1.059.2.955.613a2.691,2.691,0,0,0,.019,1s2.111,3.052.552,4.613a10.384,10.384,0,0,1-4.2,2.215l-5.4-1.694-1.572-6.13Z" transform="translate(-105.717 -167.461)" fill="#ffba97"/>
      <path id="Path_16015" data-name="Path 16015" d="M115.911,183.439a2.144,2.144,0,0,1-2.949-.829c-1.242-1.864,1.052-2.271,1.052-2.271a6.325,6.325,0,0,1-1.638-4.352c.105-2.589.874-4.062-1.185-5.734s-3.865-.439-4.182,2a4.075,4.075,0,0,1-.211.849,20.353,20.353,0,0,1-1.669,2.342c-1.5,1.808-2.643,3.592-2.537,6.044a6.11,6.11,0,0,0,2.761,5.01,10.668,10.668,0,0,0,4.209,1.416c1.539.635,2.935,1.012,4.074.432C115.551,187.373,116.944,185.667,115.911,183.439Z" transform="translate(-97.4 -160.939)" fill="#3e3883"/>
      <path id="Path_16016" data-name="Path 16016" d="M94.149,288.9s1,3.893.25,4.33c-.82.479-1.154-2.157-1.583-2.165-.8-.015-.437,5.737-1.686,4.954s-3.417-4.285-.347-8.79Z" transform="translate(-89.215 -233.025)" fill="#ffba97"/>
      <path id="Path_16017" data-name="Path 16017" d="M146.11,401.871a3.962,3.962,0,0,0,3.653,2.037c2.439-.24,3.273.563,2.8,1.617s-1.736,1.957-4,1.558-6.69-.245-7.069-.851,1.224-4.934,1.224-4.934Z" transform="translate(-121.185 -302.865)" fill="#7762d8"/>
      <path id="Path_16018" data-name="Path 16018" d="M95.915,382.676a2.574,2.574,0,0,0-.221,2.518c.542,1.685.6,4.283,2.05,5.092s.655,2.929-1.395,1.9-7.256-6.6-6.87-7.741,3.86-4.385,3.86-4.385Z" transform="translate(-89.364 -289.861)" fill="#5447b2"/>
      <g id="Group_9553" data-name="Group 9553" transform="translate(9.844 27.697)">
        <path id="Path_16019" data-name="Path 16019" d="M154.056,218.876l-2.879,1.54a39.581,39.581,0,0,1,5.16,5.773C155.131,221.662,154.056,218.876,154.056,218.876Z" transform="translate(-136.995 -218.876)" opacity="0.2"/>
        <path id="Path_16020" data-name="Path 16020" d="M114.6,244.7a27.753,27.753,0,0,1,3.066-4.19l-.887-4.1Z" transform="translate(-114.602 -229.61)" opacity="0.2"/>
      </g>
    </g>
    <g id="Group_9557" data-name="Group 9557" transform="translate(172.242 155.838)">
      <g id="Group_9556" data-name="Group 9556" transform="translate(0)">
        <ellipse id="Ellipse_683" data-name="Ellipse 683" cx="3.856" cy="9.329" rx="3.856" ry="9.329" transform="translate(6.553)" fill="#0ab681"/>
        <ellipse id="Ellipse_684" data-name="Ellipse 684" cx="7.361" cy="3.043" rx="7.361" ry="3.043" transform="matrix(0.707, -0.707, 0.707, 0.707, 8.258, 24.084)" fill="#0ab681"/>
        <path id="Path_16023" data-name="Path 16023" d="M364.451,313.864a10.392,10.392,0,0,0-7.356-3.053A10.424,10.424,0,0,0,367.5,321.22,10.392,10.392,0,0,0,364.451,313.864Z" transform="translate(-357.095 -294.985)" fill="#0ab681"/>
        <rect id="Rectangle_9911" data-name="Rectangle 9911" width="0.753" height="16.882" transform="translate(10.033 15.03)" fill="#0ab681"/>
      </g>
      <g id="Group_9555" data-name="Group 9555" transform="translate(3.1 29.67)">
        <path id="Path_16021" data-name="Path 16021" d="M375.272,346.514H365.089l2.7,18.675H377l2.7-18.675Z" transform="translate(-365.089 -346.514)" fill="#0ab681"/>
        <path id="Path_16022" data-name="Path 16022" d="M365.926,352.3l2.38,16.432h9.21l.928-6.408C373.214,360.656,368.812,356.063,365.926,352.3Z" transform="translate(-365.601 -350.054)" fill="#0ab681"/>
      </g>
    </g>
  </g>
</svg>
