<svg id="Group_28918" data-name="Group 28918" xmlns="http://www.w3.org/2000/svg" width="33.333" height="33.333" viewBox="0 0 33.333 33.333">
  <g id="Rectangle_9296" data-name="Rectangle 9296" transform="translate(0)" fill="#fff" stroke="#707070" stroke-width="1" opacity="0">
    <rect width="33.333" height="33.333" stroke="none"/>
    <rect x="0.5" y="0.5" width="32.333" height="32.333" fill="none"/>
  </g>
  <g id="noun_Settings_1788569_1_" data-name="noun_Settings_1788569 (1)" transform="translate(-54.515 -69.4)">
    <g id="Group_10392" data-name="Group 10392" transform="translate(61.515 77.4)">
      <path id="Path_16565" data-name="Path 16565" d="M96.688,105.281l-.273-1.53,1.449-1.912-2.133-2.654-2.323.93-1.147-.6L91.6,97.3h-3.39l-.655,2.214-1.147.6-2.323-.93-2.131,2.652,1.449,1.912-.273,1.53L81,106.346l.655,3.142,2.46.219.792,1.094-.273,2.268,2.925,1.393,1.559-1.639H90.7l1.559,1.639,2.925-1.393-.273-2.268.794-1.094,2.46-.219.655-3.142Zm-6.778,3.675a3.074,3.074,0,1,1,3.074-3.074A3.075,3.075,0,0,1,89.909,108.957Z" transform="translate(-80.597 -96.889)" fill="#50646e"/>
      <g id="Group_10391" data-name="Group 10391" transform="translate(0 0)">
        <path id="Path_16566" data-name="Path 16566" d="M78,85.681q-.136-.766-.273-1.53c-.014.105-.027.213-.041.318q.636-.837,1.269-1.676c.06-.079.12-.157.18-.238a.42.42,0,0,0-.064-.5L77.2,79.73l-.26-.325a.4.4,0,0,0-.4-.105l-2.036.814-.287.116.318.041-1.147-.6.19.248q-.288-.971-.575-1.939l-.081-.275a.422.422,0,0,0-.4-.3H69.136a.422.422,0,0,0-.4.3q-.288.971-.575,1.939l-.081.275.19-.248-1.147.6.318-.041-2.036-.814L65.12,79.3a.4.4,0,0,0-.4.105l-1.871,2.326-.26.325a.42.42,0,0,0-.064.5q.636.837,1.269,1.676c.06.079.12.157.18.238-.014-.105-.027-.213-.041-.318q-.136.766-.273,1.53l.19-.248q-.933.468-1.869.934c-.087.043-.176.087-.263.132a.423.423,0,0,0-.19.467q.288,1.38.575,2.758c.027.128.054.256.081.387a.424.424,0,0,0,.4.3c.717.064,1.433.128,2.15.19l.31.027-.358-.2c.265.364.529.73.792,1.094l-.056-.209c-.081.661-.159,1.325-.24,1.987-.01.093-.023.188-.033.281a.4.4,0,0,0,.2.358l2.561,1.222.364.174a.425.425,0,0,0,.5-.064q.682-.716,1.362-1.435l.194-.2-.291.122h1.586l-.291-.122q.682.716,1.362,1.435l.194.2a.425.425,0,0,0,.5.064l2.561-1.222.364-.174a.4.4,0,0,0,.2-.358c-.081-.661-.159-1.325-.24-1.987-.01-.093-.023-.188-.033-.281l-.056.209.794-1.094-.358.2c.717-.064,1.433-.128,2.15-.19l.31-.027a.423.423,0,0,0,.4-.3q.288-1.38.575-2.758c.027-.128.054-.256.081-.387a.423.423,0,0,0-.19-.467q-.933-.468-1.869-.934c-.087-.043-.176-.087-.263-.132a.414.414,0,1,0-.418.715q.933.468,1.869.934c.087.043.176.087.263.132-.064-.155-.126-.312-.19-.467q-.288,1.38-.575,2.758c-.027.128-.054.256-.081.387l.4-.3c-.819.072-1.639.134-2.456.219a.459.459,0,0,0-.362.207c-.014.019-.029.039-.043.06l-.2.273c-.159.219-.318.438-.475.657a.465.465,0,0,0-.13.312c0,.039.01.079.014.118.027.232.056.461.083.692.058.486.118.972.176,1.457l.2-.358-2.561,1.222-.364.174.5.064c-.287-.3-.577-.606-.864-.91l-.537-.564c-.141-.147-.244-.283-.478-.287-.482-.01-.963,0-1.445,0a.517.517,0,0,0-.405.122c-.027.025-.05.054-.076.081l-.473.5c-.337.353-.674.709-1.009,1.063l.5-.064L66.127,93.4l-.364-.174.2.358.149-1.236c.031-.263.064-.523.1-.786a.632.632,0,0,0-.041-.475c-.244-.366-.515-.717-.775-1.071a.459.459,0,0,0-.362-.207l-.048,0-.217-.019-.777-.068-1.414-.126.4.3q-.288-1.38-.575-2.758c-.027-.128-.054-.256-.081-.387-.064.155-.126.312-.19.467.382-.192.767-.382,1.149-.575l.744-.372c.18-.089.38-.157.432-.38.107-.473.172-.959.256-1.437a.529.529,0,0,0-.029-.4c-.027-.041-.06-.081-.091-.12-.149-.2-.3-.393-.447-.591l-.91-1.2c-.021.167-.043.335-.064.5l1.871-2.326.26-.325-.4.105q.552.22,1.1.442l.79.316c.141.056.279.122.422.17.217.072.49-.124.678-.223l.709-.372a.5.5,0,0,0,.277-.3c.014-.043.025-.087.039-.13.068-.227.134-.455.2-.68q.208-.7.415-1.4l-.4.3h3.388l-.4-.3c.118.395.234.79.351,1.187.076.256.151.511.227.767.056.188.091.405.277.513s.395.207.591.31.362.194.546.285c.229.114.387.014.6-.068l.734-.294q.657-.264,1.315-.525l-.4-.105,1.871,2.326.26.325c-.021-.167-.043-.335-.064-.5l-1.038,1.371c-.134.176-.291.349-.407.537a.612.612,0,0,0-.021.457l.087.482c.054.306.11.612.163.916a.416.416,0,0,0,.509.289A.441.441,0,0,0,78,85.681Z" transform="translate(-61.515 -77.4)" fill="#50646e"/>
        <path id="Path_16567" data-name="Path 16567" d="M347.015,349.862c-.077,0-.153,0-.232-.008-.037,0-.077-.006-.114-.01-.079-.006.019.006.025,0a.277.277,0,0,1-.07-.01,2.988,2.988,0,0,1-.447-.108c-.07-.023-.139-.048-.207-.074s.021.01.023.01a.253.253,0,0,1-.05-.023c-.037-.017-.074-.035-.11-.054a3.138,3.138,0,0,1-.382-.232c-.021-.014-.077-.041-.087-.064.017.033.058.048.021.014-.014-.012-.029-.023-.041-.035-.058-.05-.116-.1-.172-.153s-.1-.1-.151-.155c-.025-.027-.048-.054-.07-.081l-.035-.041c-.046-.056-.019,0,.006.01-.043-.019-.1-.136-.124-.176-.041-.064-.083-.13-.12-.2s-.068-.128-.1-.194c-.008-.017-.014-.033-.023-.05-.025-.05.029.074.01.023s-.031-.076-.045-.116a3.234,3.234,0,0,1-.124-.44c-.008-.037-.014-.074-.021-.112,0-.019-.006-.037-.008-.056-.008-.058.008.083,0,.025-.008-.081-.017-.161-.019-.242a3.665,3.665,0,0,1,.019-.475c.006-.058-.012.083,0,.025,0-.019.006-.037.008-.056.006-.037.012-.074.021-.112.017-.076.033-.155.056-.229s.043-.141.068-.211c.012-.035.027-.068.039-.1.021-.054-.014,0-.01.023,0-.012.023-.052.029-.062a3.156,3.156,0,0,1,.217-.393c.027-.039.081-.159.124-.176,0,0-.062.079-.014.021.012-.014.023-.029.035-.041.027-.031.052-.062.079-.091a3.216,3.216,0,0,1,.32-.308c.014-.012.029-.023.041-.035.037-.031,0-.019-.021.014.01-.023.066-.05.087-.064.062-.043.126-.087.192-.126s.126-.072.19-.105l.085-.041.05-.023c.087-.041-.087.033,0,0a3.2,3.2,0,0,1,.434-.139c.072-.017.147-.033.219-.043l.041-.006c.074-.012-.017,0-.025,0a1.152,1.152,0,0,0,.143-.014,3.04,3.04,0,0,1,.475,0c.037,0,.076.008.114.01.058.006-.083-.012-.025,0l.041.006q.124.019.248.05a3.768,3.768,0,0,1,.432.141c.052.021-.072-.033-.023-.01l.05.023c.029.012.058.027.087.041.072.037.145.077.215.118s.122.076.182.118c.019.012.079.043.087.064,0,0-.079-.062-.021-.014l.052.043a2.824,2.824,0,0,1,.318.31c.025.027.048.054.07.083s.023.029.035.041c.031.037.019,0-.014-.021.023.01.05.066.064.087s.045.066.068.1a3.144,3.144,0,0,1,.215.393.251.251,0,0,1,.023.05s-.039-.1-.01-.023c.012.035.027.068.039.1q.037.1.068.211c.021.072.037.145.054.217.008.037.014.074.021.11a.51.51,0,0,1,.008.056c.017.1-.008-.1,0,0a3.416,3.416,0,0,1,.017.461c0,.076-.01.153-.017.229s0-.014,0-.025a.516.516,0,0,0-.008.056l-.025.138a3.03,3.03,0,0,1-.12.426c-.012.035-.027.068-.039.1-.029.072.01-.021.01-.023a.252.252,0,0,1-.023.05,2.427,2.427,0,0,1-.112.219q-.05.09-.105.174c-.021.031-.039.06-.06.089s-.048.087-.072.1c.033-.017.046-.058.014-.021-.012.014-.023.029-.035.041s-.045.056-.07.083c-.054.06-.11.118-.17.174s-.1.091-.151.134c-.01.008-.1.087-.054.043s0,0-.012.008-.037.027-.054.039a3.328,3.328,0,0,1-.395.238c-.029.014-.058.029-.087.041l-.05.023c-.05.025.074-.029.023-.01-.072.027-.145.056-.219.081a3.181,3.181,0,0,1-.461.11l-.041.006c-.058.008.083-.008.025,0-.037,0-.076.008-.114.01a2.16,2.16,0,0,1-.238.014.413.413,0,0,0,0,.827,3.476,3.476,0,0,0,2-.635,3.573,3.573,0,0,0,1.282-1.681,3.5,3.5,0,0,0-1.048-3.847,3.563,3.563,0,0,0-1.991-.8,3.481,3.481,0,0,0-3.4,2,3.575,3.575,0,0,0-.256,2.179,3.5,3.5,0,0,0,2.834,2.731,3.911,3.911,0,0,0,.581.05.411.411,0,1,0,0-.823Z" transform="translate(-337.703 -338.207)" fill="#50646e"/>
      </g>
    </g>
  </g>
</svg>
