<svg id="visa" xmlns="http://www.w3.org/2000/svg" width="49.294" height="14.945" viewBox="0 0 49.294 14.945">
  <path id="Path_11595" data-name="Path 11595" d="M184.8,194.484l2.5-14.084h3.912l-2.426,14.084Z" transform="translate(-166.725 -179.931)" fill="#3c58bf"/>
  <path id="Path_11596" data-name="Path 11596" d="M184.8,194.484l3.208-14.084h3.208l-2.426,14.084Z" transform="translate(-166.725 -179.931)" fill="#293688"/>
  <path id="Path_11597" data-name="Path 11597" d="M259.971,176.226a9.925,9.925,0,0,0-3.6-.626c-3.912,0-6.729,1.956-6.729,4.773,0,2.113,1.956,3.208,3.521,3.912s2.034,1.174,2.034,1.8c0,.939-1.252,1.408-2.347,1.408a8.5,8.5,0,0,1-3.756-.782l-.548-.235L248,189.684a12.687,12.687,0,0,0,4.46.782c4.147,0,6.886-1.956,6.886-4.929,0-1.643-1.017-2.9-3.365-3.912-1.408-.7-2.269-1.1-2.269-1.8,0-.626.7-1.252,2.269-1.252a7.177,7.177,0,0,1,2.973.548l.391.156.626-3.052Z" transform="translate(-223.744 -175.6)" fill="#3c58bf"/>
  <path id="Path_11598" data-name="Path 11598" d="M259.971,176.226a9.925,9.925,0,0,0-3.6-.626c-3.912,0-6.025,1.956-6.025,4.773a4.09,4.09,0,0,0,2.817,3.912c1.565.7,2.034,1.174,2.034,1.8,0,.939-1.252,1.408-2.347,1.408a8.5,8.5,0,0,1-3.756-.782l-.548-.235L248,189.684a12.687,12.687,0,0,0,4.46.782c4.147,0,6.886-1.956,6.886-4.929,0-1.643-1.017-2.9-3.365-3.912-1.408-.7-2.269-1.1-2.269-1.8,0-.626.7-1.252,2.269-1.252a7.177,7.177,0,0,1,2.973.548l.391.156.626-3.052Z" transform="translate(-223.744 -175.6)" fill="#293688"/>
  <path id="Path_11599" data-name="Path 11599" d="M366.3,180.4c-.939,0-1.643.078-2.034,1.017L358.4,194.484h4.225l.782-2.347h5.008l.469,2.347h3.756L369.354,180.4Zm-1.8,9.389c.235-.7,1.565-4.147,1.565-4.147s.313-.861.548-1.408l.235,1.33s.782,3.521.939,4.3H364.5Z" transform="translate(-323.346 -179.931)" fill="#3c58bf"/>
  <path id="Path_11600" data-name="Path 11600" d="M367.242,180.4c-.939,0-1.643.078-2.034,1.017L358.4,194.484h4.225l.782-2.347h5.008l.469,2.347h3.756L369.354,180.4Zm-2.739,9.389c.313-.782,1.565-4.147,1.565-4.147s.313-.861.548-1.408l.235,1.33s.782,3.521.939,4.3H364.5Z" transform="translate(-323.346 -179.931)" fill="#293688"/>
  <path id="Path_11601" data-name="Path 11601" d="M57.068,190.981l-.391-2.034a11.342,11.342,0,0,0-5.477-6.181l3.521,12.519h4.225L65.284,181.2H61.059Z" transform="translate(-46.192 -180.652)" fill="#3c58bf"/>
  <path id="Path_11602" data-name="Path 11602" d="M57.068,190.981l-.391-2.034a11.342,11.342,0,0,0-5.477-6.181l3.521,12.519h4.225L65.284,181.2H61.841Z" transform="translate(-46.192 -180.652)" fill="#293688"/>
  <path id="Path_11603" data-name="Path 11603" d="M0,180.4l.7.156c5.008,1.174,8.45,4.147,9.781,7.668l-1.408-6.651c-.235-.939-.939-1.174-1.8-1.174Z" transform="translate(0 -179.931)" fill="#ffbc00"/>
  <path id="Path_11604" data-name="Path 11604" d="M0,180.4H0c5.008,1.174,9.155,4.225,10.485,7.746l-1.33-5.555A1.91,1.91,0,0,0,7.277,181.1Z" transform="translate(0 -179.931)" fill="#f7981d"/>
  <path id="Path_11605" data-name="Path 11605" d="M0,180.4H0c5.008,1.174,9.155,4.225,10.485,7.746l-.939-3.052A2.759,2.759,0,0,0,7.9,182.826Z" transform="translate(0 -179.931)" fill="#ed7c00"/>
  <g id="Group_5236" data-name="Group 5236" transform="translate(5.086 2.034)">
    <path id="Path_11606" data-name="Path 11606" d="M61.7,204.225l-2.66-2.66-1.252,2.973-.313-1.956A11.343,11.343,0,0,0,52,196.4l3.521,12.519h4.225Z" transform="translate(-52 -196.4)" fill="#051244"/>
    <path id="Path_11607" data-name="Path 11607" d="M188.791,292.643l-3.365-3.443-.626,3.443Z" transform="translate(-171.811 -280.124)" fill="#051244"/>
    <path id="Path_11608" data-name="Path 11608" d="M254.807,274.8h0c.313.313.469.548.391.861,0,.939-1.252,1.408-2.347,1.408a8.5,8.5,0,0,1-3.756-.782l-.548-.235L248,279.26a12.687,12.687,0,0,0,4.46.782,7.747,7.747,0,0,0,5.712-1.956Z" transform="translate(-228.83 -267.132)" fill="#051244"/>
    <path id="Path_11609" data-name="Path 11609" d="M364,229.85h3.678l.782-2.347h5.008l.469,2.347h3.756l-1.33-5.712-4.695-4.538.235,1.252s.782,3.521.939,4.3h-3.286c.313-.782,1.565-4.147,1.565-4.147s.313-.861.548-1.408" transform="translate(-333.484 -217.331)" fill="#051244"/>
  </g>
</svg>
