<svg xmlns="http://www.w3.org/2000/svg" width="155.25" height="161.212" viewBox="0 0 155.25 161.212">
  <g id="Group_28383" data-name="Group 28383" transform="translate(-316.761 -190.029)">
    <path id="Path_1" data-name="Path 1" d="M471.428,379.928a1.706,1.706,0,0,1,1.1.794,2.485,2.485,0,0,1,.431,1.383,2.646,2.646,0,0,1-.8,1.989,2.97,2.97,0,0,1-2.155.773H466.83v-9.194h2.422a4.063,4.063,0,0,1,2.394.623,2.058,2.058,0,0,1,.876,1.785,2.163,2.163,0,0,1-.322,1.136,1.608,1.608,0,0,1-.773.711m-3.722-3.379v3.065h1.862q2.08,0,2.079-1.533t-2.079-1.532Zm2.08,7.443a2.854,2.854,0,0,0,1.691-.438,1.5,1.5,0,0,0,.608-1.3,1.532,1.532,0,0,0-.608-1.32,2.828,2.828,0,0,0-1.691-.445h-2.08v3.5Z" transform="translate(-37.916 -46.904)" fill="#fff"/>
    <path id="Path_2" data-name="Path 2" d="M482.663,379.15h.876v6.568h-.876v-1.163a2.956,2.956,0,0,1-2.517,1.272,3.393,3.393,0,1,1,0-6.786,2.957,2.957,0,0,1,2.517,1.273Zm-4.3,5.063a2.512,2.512,0,1,0-.738-1.778,2.422,2.422,0,0,0,.738,1.778" transform="translate(-40.423 -47.755)" fill="#fff"/>
    <path id="Path_3" data-name="Path 3" d="M492.886,385.755h-5.039l3.691-5.691H488.09v-.876H493.1l-3.69,5.692h3.475Z" transform="translate(-43.226 -47.792)" fill="#fff"/>
    <path id="Path_4" data-name="Path 4" d="M502.507,379.15h.876v6.568h-.876v-1.163a2.957,2.957,0,0,1-2.518,1.272,3.393,3.393,0,1,1,0-6.786,2.957,2.957,0,0,1,2.518,1.273Zm-4.295,5.063a2.51,2.51,0,1,0-.739-1.778,2.421,2.421,0,0,0,.739,1.778" transform="translate(-45.437 -47.755)" fill="#fff"/>
    <path id="Path_5" data-name="Path 5" d="M513.6,379.15h.876v6.568H513.6v-1.163a2.958,2.958,0,0,1-2.518,1.272,3.393,3.393,0,1,1,0-6.786,2.958,2.958,0,0,1,2.518,1.273Zm-4.3,5.063a2.511,2.511,0,1,0-.738-1.778,2.424,2.424,0,0,0,.738,1.778" transform="translate(-48.239 -47.755)" fill="#fff"/>
    <path id="Path_6" data-name="Path 6" d="M520.392,380.56a2.41,2.41,0,0,1,1.116-1.108,3.685,3.685,0,0,1,1.731-.41v1a2.328,2.328,0,0,0-1.369.055,2.04,2.04,0,0,0-1.073.875,2.961,2.961,0,0,0-.4,1.6v3.147h-.875V379.15h.875Z" transform="translate(-51.227 -47.755)" fill="#fff"/>
    <path id="Path_7" data-name="Path 7" d="M343.749,359.456h2.27l-8.785,21.586L331.441,364.6l-5.84,16.577-8.839-21.719h2.27l6.5,16.132,5.862-16.637,5.86,16.638Z" transform="translate(0 -42.679)" fill="#fff"/>
    <path id="Path_8" data-name="Path 8" d="M369.108,367.641h2.017v15.133h-2.017v-2.68a6.819,6.819,0,0,1-5.8,2.933,7.819,7.819,0,1,1,0-15.638,6.818,6.818,0,0,1,5.8,2.932Zm-9.9,11.665a5.784,5.784,0,1,0-1.7-4.1,5.581,5.581,0,0,0,1.7,4.1" transform="translate(-9.785 -44.811)" fill="#fff"/>
    <path id="Path_9" data-name="Path 9" d="M381.389,365.253h2.018v-1.577a8.822,8.822,0,0,1,.82-4.382A2.981,2.981,0,0,1,387,357.938a4.725,4.725,0,0,1,1.955.442v1.955a3.622,3.622,0,0,0-1.64-.379,1.644,1.644,0,0,0-1.45.631,3.955,3.955,0,0,0-.441,2.175v2.492h3.531v2.018h-3.531v13.115h-2.019V367.271h-2.018Z" transform="translate(-16.329 -42.423)" fill="#fff"/>
    <path id="Path_10" data-name="Path 10" d="M399.522,370.888a5.548,5.548,0,0,1,2.569-2.554,8.5,8.5,0,0,1,3.989-.945v2.3a5.354,5.354,0,0,0-3.154.126,4.694,4.694,0,0,0-2.474,2.018,6.817,6.817,0,0,0-.93,3.689v7.251H397.5V367.641h2.018Z" transform="translate(-20.4 -44.811)" fill="#fff"/>
    <path id="Path_11" data-name="Path 11" d="M425.213,367.641h2.018v15.133h-2.018v-2.68a6.814,6.814,0,0,1-5.8,2.933,7.819,7.819,0,1,1,0-15.638,6.814,6.814,0,0,1,5.8,2.932Zm-9.9,11.665a5.785,5.785,0,1,0-1.7-4.1,5.584,5.584,0,0,0,1.7,4.1" transform="translate(-23.96 -44.811)" fill="#fff"/>
    <path id="Path_12" data-name="Path 12" d="M445.845,365.087a5.732,5.732,0,0,1,4.65,1.75,7.9,7.9,0,0,1,1.466,5.186v8.449h-2.018v-8.954q0-4.413-4.035-4.413a5.429,5.429,0,0,0-3.468,1.26,4.005,4.005,0,0,0-1.576,3.279v8.828h-2.018v-22.2h2.018v9.395a5.468,5.468,0,0,1,2.049-1.8,5.96,5.96,0,0,1,2.932-.788" transform="translate(-30.845 -42.508)" fill="#fff"/>
    <path id="Path_13" data-name="Path 13" d="M330.017,399.808h2.35v.473H330.58v1.45h1.651v.466H330.58v1.975h-.563Z" transform="translate(-3.349 -53.002)" fill="#fff"/>
    <rect id="Rectangle_1" data-name="Rectangle 1" width="0.563" height="4.364" transform="translate(330.304 346.806)" fill="#fff"/>
    <path id="Path_14" data-name="Path 14" d="M337.6,404.172v-4.364h.615l1.4,2.207a12.157,12.157,0,0,1,.784,1.418l.013-.006c-.052-.584-.065-1.114-.065-1.794v-1.826h.531v4.364h-.569l-1.386-2.214a13.639,13.639,0,0,1-.815-1.457l-.02.007c.032.549.046,1.075.046,1.8v1.865Z" transform="translate(-5.266 -53.002)" fill="#fff"/>
    <path id="Path_15" data-name="Path 15" d="M343.948,399.855a8.1,8.1,0,0,1,1.2-.091,2.5,2.5,0,0,1,1.767.545,2.007,2.007,0,0,1,.615,1.566,2.307,2.307,0,0,1-.628,1.7,2.69,2.69,0,0,1-1.93.627,8.983,8.983,0,0,1-1.023-.052Zm.563,3.859a3.619,3.619,0,0,0,.569.032,1.677,1.677,0,0,0,1.859-1.851,1.557,1.557,0,0,0-1.767-1.684,3.218,3.218,0,0,0-.661.058Z" transform="translate(-6.869 -52.991)" fill="#fff"/>
    <path id="Path_16" data-name="Path 16" d="M353.117,404.172l-1.108-4.364h.6l.518,2.207c.13.545.246,1.088.324,1.51h.013c.07-.435.207-.952.356-1.516l.582-2.2h.59l.531,2.214c.123.518.24,1.035.3,1.5h.013c.09-.48.214-.965.349-1.51l.577-2.2h.576l-1.237,4.364h-.589l-.551-2.273a13.113,13.113,0,0,1-.285-1.425h-.013a13.473,13.473,0,0,1-.336,1.425l-.622,2.273Z" transform="translate(-8.906 -53.002)" fill="#fff"/>
    <path id="Path_17" data-name="Path 17" d="M361.075,399.808v1.826h2.111v-1.826h.569v4.364h-.569v-2.046h-2.111v2.046h-.563v-4.364Z" transform="translate(-11.054 -53.002)" fill="#fff"/>
    <path id="Path_18" data-name="Path 18" d="M367.4,402.8l-.454,1.372h-.582l1.483-4.364h.679l1.489,4.364h-.6l-.466-1.372Zm1.43-.441L368.4,401.1c-.1-.285-.162-.544-.227-.8h-.013c-.064.259-.136.524-.22.79l-.427,1.262Z" transform="translate(-12.533 -53.002)" fill="#fff"/>
    <path id="Path_19" data-name="Path 19" d="M372.749,400.287h-1.327v-.479h3.231v.479h-1.333v3.885h-.57Z" transform="translate(-13.81 -53.002)" fill="#fff"/>
    <path id="Path_20" data-name="Path 20" d="M379.961,404.172V402.32l-1.379-2.512h.641l.615,1.2c.167.33.3.595.433.9h.013c.123-.285.272-.569.44-.9l.628-1.2h.641l-1.463,2.505v1.859Z" transform="translate(-15.619 -53.002)" fill="#fff"/>
    <path id="Path_21" data-name="Path 21" d="M387.792,401.921a2.044,2.044,0,0,1-2.027,2.3,2,2,0,0,1-1.962-2.214,2.072,2.072,0,0,1,2.026-2.292,1.987,1.987,0,0,1,1.963,2.208m-3.387.071c0,.932.505,1.768,1.392,1.768s1.4-.822,1.4-1.813c0-.868-.453-1.774-1.392-1.774s-1.4.861-1.4,1.82" transform="translate(-16.938 -52.978)" fill="#fff"/>
    <path id="Path_22" data-name="Path 22" d="M391.325,399.808v2.583c0,.978.434,1.392,1.016,1.392.648,0,1.063-.428,1.063-1.392v-2.583h.569v2.545c0,1.34-.705,1.89-1.65,1.89-.894,0-1.567-.511-1.567-1.865v-2.57Z" transform="translate(-18.695 -53.002)" fill="#fff"/>
    <path id="Path_23" data-name="Path 23" d="M400.095,402.8l-.453,1.372h-.583l1.483-4.364h.68l1.489,4.364h-.6l-.466-1.372Zm1.431-.441L401.1,401.1c-.1-.285-.162-.544-.226-.8h-.013c-.065.259-.137.524-.22.79l-.427,1.262Z" transform="translate(-20.793 -53.002)" fill="#fff"/>
    <path id="Path_24" data-name="Path 24" d="M405.448,399.854a5.946,5.946,0,0,1,1.081-.09,1.787,1.787,0,0,1,1.262.356,1.088,1.088,0,0,1,.344.829,1.144,1.144,0,0,1-.822,1.114v.02a1.086,1.086,0,0,1,.64.88,6.986,6.986,0,0,0,.337,1.2h-.583a5.683,5.683,0,0,1-.291-1.043c-.13-.6-.362-.829-.874-.848h-.531v1.891h-.564Zm.564,1.988h.576c.6,0,.984-.33.984-.829,0-.563-.407-.809-1-.815a2.365,2.365,0,0,0-.557.051Z" transform="translate(-22.407 -52.991)" fill="#fff"/>
    <path id="Path_25" data-name="Path 25" d="M413.016,402.126h-1.7V403.7h1.889v.473h-2.454v-4.364h2.357v.473H411.32v1.379h1.7Z" transform="translate(-23.748 -53.002)" fill="#fff"/>
    <path id="Path_26" data-name="Path 26" d="M418.151,399.808h.563V403.7h1.865v.473h-2.428Z" transform="translate(-25.617 -53.002)" fill="#fff"/>
    <path id="Path_27" data-name="Path 27" d="M426.191,401.921a2.043,2.043,0,0,1-2.026,2.3,2,2,0,0,1-1.962-2.214,2.072,2.072,0,0,1,2.026-2.292,1.987,1.987,0,0,1,1.962,2.208m-3.386.071c0,.932.505,1.768,1.392,1.768s1.4-.822,1.4-1.813c0-.868-.454-1.774-1.392-1.774s-1.4.861-1.4,1.82" transform="translate(-26.64 -52.978)" fill="#fff"/>
    <path id="Path_28" data-name="Path 28" d="M432.807,401.921a2.044,2.044,0,0,1-2.026,2.3,2,2,0,0,1-1.963-2.214,2.073,2.073,0,0,1,2.027-2.292,1.987,1.987,0,0,1,1.962,2.208m-3.386.071c0,.932.505,1.768,1.392,1.768s1.4-.822,1.4-1.813c0-.868-.453-1.774-1.392-1.774s-1.4.861-1.4,1.82" transform="translate(-28.312 -52.978)" fill="#fff"/>
    <path id="Path_29" data-name="Path 29" d="M435.779,399.808h.564v2.1h.019c.117-.168.232-.324.342-.466l1.334-1.638h.7l-1.58,1.852,1.7,2.512h-.667l-1.437-2.143-.414.48v1.664h-.564Z" transform="translate(-30.07 -53.002)" fill="#fff"/>
    <rect id="Rectangle_2" data-name="Rectangle 2" width="0.563" height="4.364" transform="translate(409.701 346.806)" fill="#fff"/>
    <path id="Path_30" data-name="Path 30" d="M443.84,404.172v-4.364h.616l1.4,2.207a12.479,12.479,0,0,1,.783,1.418l.013-.006c-.052-.584-.065-1.114-.065-1.794v-1.826h.531v4.364h-.57l-1.385-2.214a13.773,13.773,0,0,1-.816-1.457l-.019.007c.032.549.045,1.075.045,1.8v1.865Z" transform="translate(-32.107 -53.002)" fill="#fff"/>
    <path id="Path_31" data-name="Path 31" d="M453.421,403.962a4.062,4.062,0,0,1-1.34.238,2.048,2.048,0,0,1-2.241-2.2,2.19,2.19,0,0,1,2.363-2.253,2.69,2.69,0,0,1,1.088.2l-.136.46a2.269,2.269,0,0,0-.964-.188,1.632,1.632,0,0,0-1.755,1.755,1.6,1.6,0,0,0,1.684,1.76,1.853,1.853,0,0,0,.751-.116v-1.3h-.887v-.453h1.438Z" transform="translate(-33.623 -52.986)" fill="#fff"/>
    <path id="Path_32" data-name="Path 32" d="M458.915,399.808h2.351v.473h-1.787v1.45h1.651v.466h-1.651v1.975h-.564Z" transform="translate(-35.916 -53.002)" fill="#fff"/>
    <path id="Path_33" data-name="Path 33" d="M467.422,401.921a2.043,2.043,0,0,1-2.025,2.3,2,2,0,0,1-1.963-2.214,2.073,2.073,0,0,1,2.027-2.292,1.986,1.986,0,0,1,1.961,2.208m-3.385.071c0,.932.506,1.768,1.392,1.768s1.4-.822,1.4-1.813c0-.868-.454-1.774-1.393-1.774s-1.4.861-1.4,1.82" transform="translate(-37.058 -52.978)" fill="#fff"/>
    <path id="Path_34" data-name="Path 34" d="M470.395,399.854a5.94,5.94,0,0,1,1.081-.09,1.79,1.79,0,0,1,1.263.356,1.091,1.091,0,0,1,.344.829,1.145,1.145,0,0,1-.823,1.114v.02a1.088,1.088,0,0,1,.641.88,7.09,7.09,0,0,0,.336,1.2h-.584a5.808,5.808,0,0,1-.291-1.043c-.129-.6-.362-.829-.874-.848h-.531v1.891h-.564Zm.564,1.988h.575c.6,0,.984-.33.984-.829,0-.563-.408-.809-1-.815a2.362,2.362,0,0,0-.557.051Z" transform="translate(-38.816 -52.991)" fill="#fff"/>
    <path id="Path_35" data-name="Path 35" d="M481.83,401.921a2.043,2.043,0,0,1-2.026,2.3,2,2,0,0,1-1.962-2.214,2.072,2.072,0,0,1,2.026-2.292,1.986,1.986,0,0,1,1.962,2.208m-3.386.071c0,.932.506,1.768,1.392,1.768s1.4-.822,1.4-1.813c0-.868-.454-1.774-1.392-1.774s-1.4.861-1.4,1.82" transform="translate(-40.698 -52.978)" fill="#fff"/>
    <path id="Path_36" data-name="Path 36" d="M484.8,404.172v-4.364h.616l1.4,2.207a12.465,12.465,0,0,1,.782,1.418l.013-.006c-.052-.584-.065-1.114-.065-1.794v-1.826h.531v4.364h-.57l-1.386-2.214a13.894,13.894,0,0,1-.815-1.457l-.019.007c.032.549.046,1.075.046,1.8v1.865Z" transform="translate(-42.457 -53.002)" fill="#fff"/>
    <path id="Path_37" data-name="Path 37" d="M491.15,399.808h.563V403.7h1.865v.473H491.15Z" transform="translate(-44.06 -53.002)" fill="#fff"/>
    <rect id="Rectangle_3" data-name="Rectangle 3" width="0.564" height="4.364" transform="translate(450.629 346.806)" fill="#fff"/>
    <path id="Path_38" data-name="Path 38" d="M498.6,404.172v-4.364h.616l1.4,2.207a12.23,12.23,0,0,1,.782,1.418l.014-.006c-.052-.584-.065-1.114-.065-1.794v-1.826h.531v4.364h-.57l-1.386-2.214a13.644,13.644,0,0,1-.816-1.457l-.019.007c.033.549.046,1.075.046,1.8v1.865Z" transform="translate(-45.944 -53.002)" fill="#fff"/>
    <path id="Path_39" data-name="Path 39" d="M507.211,402.126h-1.7V403.7h1.89v.473h-2.454v-4.364h2.356v.473h-1.792v1.379h1.7Z" transform="translate(-47.547 -53.002)" fill="#fff"/>
    <path id="Path_40" data-name="Path 40" d="M471.566,276.013a34.811,34.811,0,0,0-5.089-9.49,32.732,32.732,0,0,0-10.076-8.746,34.319,34.319,0,0,0-12.617-4.189,33.133,33.133,0,0,0-13.307,1.007,36.545,36.545,0,0,0-11.93,5.885c-8.3,5.85-13.244,14.106-14.07,13.859h0c-1.072,1.288-2.107,2.566-3.083,3.791V215.241a6.515,6.515,0,0,0-6.573-6.577,6.179,6.179,0,0,0-4.615,1.909,6.446,6.446,0,0,0-1.854,4.667v67.192l-8.565-8.588a17.126,17.126,0,0,0-12.588-5.2,18.185,18.185,0,0,0-6.877,1.325,16.191,16.191,0,0,0-5.71,3.872l-8.464,8.482V243.093a6.331,6.331,0,0,0-1.923-4.666,6.747,6.747,0,0,0-9.408,0,6.331,6.331,0,0,0-1.924,4.666v55.033a6.52,6.52,0,0,0,6.577,6.573,6.886,6.886,0,0,0,3.817-1.167v.108l19.51-19.619a5.928,5.928,0,0,1,4.347-1.8,6.236,6.236,0,0,1,4.242,1.7l18.876,18.98.848.743.108-.108a6.216,6.216,0,0,0,3.6,1.167,6.355,6.355,0,0,0,3.848-1.232,14.793,14.793,0,0,0,1.253-1.2,6.49,6.49,0,0,0,.518-.7c.682-.845,1.661-2.026,2.85-3.441,4.027-5.4,9.683-13.7,19.753-23.766a19.088,19.088,0,0,1,3.931-3.808,1.8,1.8,0,0,1,.22-.17c.132-.1.268-.188.4-.28.062-.043.116-.09.18-.131.1-.063.181-.1.275-.161a22.02,22.02,0,0,1,3.051-1.692,21.35,21.35,0,0,1,8.368-1.7,20.261,20.261,0,0,1,8.364,1.8q1.693.853,3.226,1.8a19.373,19.373,0,0,1,2.914,2.226,22.761,22.761,0,0,1,4.447,6.312,19.657,19.657,0,0,1,1.9,7.472,19.892,19.892,0,0,1-3.707,13.363,20.593,20.593,0,0,1-11.753,8.269,19.638,19.638,0,0,1-13.656-.91c-.245-.124-.5-.228-.741-.361a18.259,18.259,0,0,1-6.786-5.092,21.523,21.523,0,0,1-4.826-9.965,20.928,20.928,0,0,1-.387-4.76l-.022-.023c-3.6,3.76-8.187,9.117-10.452,14.069a36.309,36.309,0,0,0,3.722,6.618,33.9,33.9,0,0,0,5.842,6.309,35.082,35.082,0,0,0,7.275,4.719,34.363,34.363,0,0,0,33.772-2.65,32.739,32.739,0,0,0,6.424-5.674,34.08,34.08,0,0,0,4.725-7,36.536,36.536,0,0,0,2.922-7.9,32.352,32.352,0,0,0,.9-8.481,36.12,36.12,0,0,0-2.014-10.552m-39.931,30.948c.348.168.7.337,1.046.49l-.25-.1c-.273-.114-.53-.261-.8-.387" transform="translate(-4.076 -4.708)" fill="#fff"/>
    <path id="Path_41" data-name="Path 41" d="M443.023,250.542V196.6a6.335,6.335,0,0,0-1.923-4.666,6.755,6.755,0,0,0-9.408,0,6.332,6.332,0,0,0-1.923,4.666v66.086c3.347-4.613,10-9.769,13.254-12.147" transform="translate(-28.552)" fill="#fff"/>
  </g>
</svg>
